SplineFontDB: 3.0
FontName: Klaudia-Bold
FullName: Klaudia Bold
FamilyName: Klaudia
Weight: Bold
Copyright: Copyright (c) 2020-2024 by Wojciech Kalinowski "wmk69" with Reserved Font Name "Klaudia-Bold".\nThis Font Software is licensed under the SIL Open Font License, Version 1.1.
Version: 3.1.0; 2021-05-10
ItalicAngle: 0
UnderlinePosition: -80
UnderlineWidth: 320
Ascent: 1638
Descent: 410
InvalidEm: 0
LayerCount: 2
Layer: 0 1 "Warstwa t+AUIA-a" 1
Layer: 1 1 "Plan pierwszy" 0
XUID: [1021 783 23647091 10727182]
StyleMap: 0x0020
FSType: 0
OS2Version: 3
OS2_WeightWidthSlopeOnly: 0
OS2_UseTypoMetrics: 1
CreationTime: 1260698820
ModificationTime: 1620665448
PfmFamily: 33
TTFWeight: 700
TTFWidth: 5
LineGap: 300
VLineGap: 0
Panose: 2 13 8 2 5 5 3 6 2 4
OS2TypoAscent: 2000
OS2TypoAOffset: 0
OS2TypoDescent: -450
OS2TypoDOffset: 0
OS2TypoLinegap: 300
OS2WinAscent: 2000
OS2WinAOffset: 0
OS2WinDescent: 450
OS2WinDOffset: 0
HheadAscent: 2000
HheadAOffset: 0
HheadDescent: -450
HheadDOffset: 0
OS2SubXSize: 1434
OS2SubYSize: 1331
OS2SubXOff: 0
OS2SubYOff: 287
OS2SupXSize: 1434
OS2SupYSize: 1331
OS2SupXOff: 0
OS2SupYOff: 977
OS2StrikeYSize: 102
OS2StrikeYPos: 512
OS2CapHeight: 1510
OS2XHeight: 1100
OS2Vendor: '    '
OS2CodePages: 20000093.00000000
OS2UnicodeRanges: 8000002f.4000204b.00000000.00000000
Lookup: 258 0 0 "'kern' Horizontal Kerning lookup 0" { "'kern' Horizontal Kerning lookup 0-1 subtable" [307,0,4] } ['kern' ('DFLT' <'dflt' > 'grek' <'dflt' > 'latn' <'dflt' > ) ]
MarkAttachClasses: 1
DEI: 91125
KernClass2: 68 54 "'kern' Horizontal Kerning lookup 0-1 subtable"
 84 A Agrave Aacute Acircumflex Atilde Adieresis Aring Amacron Abreve Aogonek Aringacute
 17 B uni1E02 uni1E9E
 137 C E AE Ccedilla Egrave Eacute Ecircumflex Edieresis Cacute Ccircumflex Cdotaccent Ccaron Emacron Ebreve Edotaccent Eogonek Ecaron AEacute
 122 D O Q Eth Ograve Oacute Ocircumflex Otilde Odieresis Oslash Dcaron Dcroat Omacron Obreve Ohungarumlaut Oslashacute uni1E0A

StartChar: .notdef
Encoding: 65536 -1 0
Width: 1054
Flags: W
HStem: 0 118<308 746> 1392 118<308 746>
VStem: 120 188<118 1392> 746 188<118 1392>
LayerCount: 2
Fore
SplineSet
120 0 m 1,0,-1
 120 1510 l 1,1,-1
 934 1510 l 1,2,-1
 934 0 l 1,3,-1
 120 0 l 1,0,-1
308 118 m 1,4,-1
 746 118 l 1,5,-1
 746 1392 l 1,6,-1
 308 1392 l 1,7,-1
 308 118 l 1,4,-1
EndSplineSet
Validated: 1
EndChar

StartChar: exclam
Encoding: 33 33 4
Width: 792
GlyphClass: 2
Flags: W
HStem: -20 370<277.14 514.86> 1490 20G<215 577>
VStem: 214 364<42.5779 287.422> 282 228<450 676.808>
LayerCount: 2
Fore
SplineSet
396 -20 m 128,-1,1
 320 -20 320 -20 267 34 c 128,-1,2
 214 88 214 88 214 165 c 128,-1,3
 214 242 214 242 267 296 c 128,-1,4
 320 350 320 350 396 350 c 128,-1,5
 472 350 472 350 525 296 c 128,-1,6
 578 242 578 242 578 165 c 128,-1,7
 578 88 578 88 525 34 c 128,-1,0
 472 -20 472 -20 396 -20 c 128,-1,1
215 1510 m 1,8,-1
 577 1510 l 1,9,-1
 510 450 l 1,10,-1
 282 450 l 1,11,-1
 215 1510 l 1,8,-1
EndSplineSet
Validated: 1
EndChar

StartChar: quotedbl
Encoding: 34 34 5
Width: 580
GlyphClass: 2
Flags: W
HStem: 1094 456<20 220 360 560>
VStem: 20 200<1094 1550> 360 200<1094 1550>
LayerCount: 2
Fore
SplineSet
360 1550 m 1,0,-1
 560 1550 l 1,1,-1
 560 1094 l 1,2,-1
 360 1094 l 1,3,-1
 360 1550 l 1,0,-1
20 1550 m 1,4,-1
 220 1550 l 1,5,-1
 220 1094 l 1,6,-1
 20 1094 l 1,7,-1
 20 1550 l 1,4,-1
EndSplineSet
Validated: 1
EndChar

StartChar: numbersign
Encoding: 35 35 6
Width: 1349
GlyphClass: 2
Flags: W
HStem: 474 171<120 394 565 784 955 1229> 864 171<120 394 565 784 955 1229>
VStem: 394 171<200 474 645 864 1035 1309> 784 171<200 474 645 864 1035 1309>
LayerCount: 2
Fore
SplineSet
394 1309 m 1,0,-1
 565 1309 l 1,1,-1
 565 1035 l 1,2,-1
 784 1035 l 1,3,-1
 784 1309 l 1,4,-1
 955 1309 l 1,5,-1
 955 1035 l 1,6,-1
 1229 1035 l 1,7,-1
 1229 864 l 1,8,-1
 955 864 l 1,9,-1
 955 645 l 1,10,-1
 1229 645 l 1,11,-1
 1229 474 l 1,12,-1
 955 474 l 1,13,-1
 955 200 l 1,14,-1
 784 200 l 1,15,-1
 784 474 l 1,16,-1
 565 474 l 1,17,-1
 565 200 l 1,18,-1
 394 200 l 1,19,-1
 394 474 l 1,20,-1
 120 474 l 1,21,-1
 120 645 l 1,22,-1
 394 645 l 1,23,-1
 394 864 l 1,24,-1
 120 864 l 1,25,-1
 120 1035 l 1,26,-1
 394 1035 l 1,27,-1
 394 1309 l 1,0,-1
784 645 m 1,28,-1
 784 864 l 1,29,-1
 565 864 l 1,30,-1
 565 645 l 1,31,-1
 784 645 l 1,28,-1
EndSplineSet
Validated: 1
EndChar

StartChar: dollar
Encoding: 36 36 7
Width: 1352
GlyphClass: 2
Flags: W
HStem: -20 170<485.714 673> 1352 175<823 908.262>
VStem: 259 308<1104.69 1297.82> 673 150<-120 -20 190 633 1059 1342 1522.18 1630> 958 324<306.544 563.447>
LayerCount: 2
Fore
SplineSet
673 -20 m 1,0,1
 302 -20 302 -20 70 232 c 1,2,-1
 318 363 l 1,3,4
 440 150 440 150 673 150 c 1,5,-1
 673 704 l 1,6,-1
 530 771 l 2,7,8
 259 898 259 898 259 1134 c 0,9,10
 259 1302 259 1302 405 1416 c 0,11,12
 522 1507 522 1507 673 1525 c 1,13,-1
 673 1630 l 1,14,-1
 823 1630 l 1,15,-1
 823 1527 l 1,16,17
 1041 1507 1041 1507 1179 1365 c 1,18,-1
 974 1220 l 1,19,20
 921 1328 921 1328 823 1352 c 1,21,-1
 823 987 l 1,22,-1
 999 904 l 2,23,24
 1282 771 1282 771 1282 505 c 0,25,26
 1282 322 1282 322 1151 179 c 0,27,28
 1021 37 1021 37 823 -4 c 1,29,-1
 823 -120 l 1,30,-1
 673 -120 l 1,31,-1
 673 -20 l 1,0,1
823 190 m 1,32,33
 867 218 867 218 900 264 c 0,34,35
 958 346 958 346 958 449 c 0,36,37
 958 567 958 567 823 633 c 1,38,-1
 823 190 l 1,32,33
673 1342 m 1,39,40
 646 1331 646 1331 626 1313 c 0,41,42
 567 1262 567 1262 567 1197 c 0,43,44
 567 1119 567 1119 673 1059 c 1,45,-1
 673 1342 l 1,39,40
EndSplineSet
Validated: 1
EndChar

StartChar: percent
Encoding: 37 37 8
Width: 1749
GlyphClass: 2
Flags: W
HStem: -20 116<1141.91 1334.18> 0 21G<325 592.166> 536 118<1171.82 1363.84> 856 118<385.162 577.175> 1414 116<414.825 607.088> 1490 20G<1156.83 1424>
VStem: 120 219<1026.17 1329.05> 653 218<1056.92 1362.75> 878 218<147.246 453.078> 1410 219<180.949 483.831>
DStem2: 325 0 581 0 0.487458 0.873146<124.789 1729.38>
LayerCount: 2
Fore
SplineSet
1230 96 m 0,0,1
 1306 96 1306 96 1355 163 c 0,2,3
 1410 237 1410 237 1410 341 c 0,4,5
 1410 430 1410 430 1375 479 c 0,6,7
 1336 536 1336 536 1276 536 c 0,8,9
 1200 536 1200 536 1151 469 c 0,10,11
 1096 395 1096 395 1096 291 c 0,12,13
 1096 202 1096 202 1131 153 c 0,14,15
 1171 96 1171 96 1230 96 c 0,0,1
1220 -20 m 0,16,17
 1045 -20 1045 -20 953 78 c 0,18,19
 878 159 878 159 878 293 c 0,20,21
 878 430 878 430 993 540 c 0,22,23
 1113 654 1113 654 1286 654 c 128,-1,24
 1459 654 1459 654 1553 555 c 0,25,26
 1629 475 1629 475 1629 338.5 c 128,-1,27
 1629 202 1629 202 1513 93 c 0,28,29
 1393 -20 1393 -20 1220 -20 c 0,16,17
519 1414 m 0,30,31
 443 1414 443 1414 394 1347 c 0,32,33
 339 1273 339 1273 339 1169 c 0,34,35
 339 1080 339 1080 374 1031 c 0,36,37
 413 974 413 974 473 974 c 0,38,39
 549 974 549 974 598 1041 c 0,40,41
 653 1115 653 1115 653 1219 c 0,42,43
 653 1308 653 1308 618 1357 c 0,44,45
 578 1414 578 1414 519 1414 c 0,30,31
529 1530 m 0,46,47
 704 1530 704 1530 796 1432 c 0,48,49
 871 1351 871 1351 871 1217 c 0,50,51
 871 1080 871 1080 756 970 c 0,52,53
 636 856 636 856 463 856 c 128,-1,54
 290 856 290 856 196 955 c 0,55,56
 120 1035 120 1035 120 1171.5 c 128,-1,57
 120 1308 120 1308 236 1417 c 0,58,59
 356 1530 356 1530 529 1530 c 0,46,47
325 0 m 1,60,-1
 1168 1510 l 1,61,-1
 1424 1510 l 1,62,-1
 581 0 l 1,63,-1
 325 0 l 1,60,-1
EndSplineSet
Validated: 1
EndChar

StartChar: ampersand
Encoding: 38 38 9
Width: 1755
GlyphClass: 2
Flags: W
HStem: -20 170<585.705 969.518> 0 21G<1212.81 1582> 1377 153<670.023 859.382>
VStem: 120 335<273.211 659.504> 320 289<1081.93 1314.36> 1285 300<672.715 1045>
DStem2: 788 1045 614 810 0.604987 -0.796236<81.8477 690.814 965.115 1098.26>
LayerCount: 2
Fore
SplineSet
1582 0 m 1,0,-1
 1228 0 l 1,1,-1
 1149 104 l 1,2,3
 976 -20 976 -20 697 -20 c 0,4,5
 410 -20 410 -20 252 129 c 0,6,7
 120 253 120 253 120 443 c 0,8,9
 120 642 120 642 252 799 c 0,10,11
 338 901 338 901 467 967 c 1,12,13
 320 1030 320 1030 320 1166 c 128,-1,14
 320 1302 320 1302 439 1406 c 0,15,16
 580 1530 580 1530 781 1530 c 128,-1,17
 982 1530 982 1530 1091 1441 c 0,18,19
 1135 1405 1135 1405 1158 1360 c 1,20,-1
 896 1232 l 1,21,22
 896 1292 896 1292 861 1335 c 0,23,24
 826 1377 826 1377 778 1377 c 0,25,26
 704 1377 704 1377 650 1314 c 0,27,28
 609 1266 609 1266 609 1183 c 0,29,30
 609 1123 609 1123 632 1092 c 0,31,32
 667 1045 667 1045 737 1045 c 2,33,-1
 788 1045 l 1,34,-1
 1206 495 l 1,35,36
 1284 702 1284 702 1285 1045 c 1,37,-1
 1585 1045 l 1,38,39
 1585 583 1585 583 1363 288 c 1,40,-1
 1582 0 l 1,0,-1
1041 247 m 1,41,-1
 614 810 l 1,42,43
 583 786 583 786 558 754 c 0,44,45
 455 627 455 627 455 443 c 0,46,47
 455 302 455 302 533 233 c 0,48,49
 623 150 623 150 782 150 c 0,50,51
 940 150 940 150 1041 247 c 1,41,-1
EndSplineSet
Validated: 1
EndChar

StartChar: quotesingle
Encoding: 39 39 10
Width: 240
GlyphClass: 2
Flags: W
HStem: 1094 456<20 220>
VStem: 20 200<1094 1550>
LayerCount: 2
Fore
SplineSet
20 1550 m 1,0,-1
 220 1550 l 1,1,-1
 220 1094 l 1,2,-1
 20 1094 l 1,3,-1
 20 1550 l 1,0,-1
EndSplineSet
Validated: 1
EndChar

StartChar: parenleft
Encoding: 40 40 11
Width: 799
GlyphClass: 2
Flags: W
VStem: 170 329<358.913 1149.07>
LayerCount: 2
Fore
SplineSet
779 -250 m 1,0,1
 503 -250 l 1,2,3
 369 -62 369 -62 279 159 c 0,4,5
 170 425 170 425 170 755 c 128,-1,6
 170 1085 170 1085 279 1351 c 0,7,8
 368 1568 368 1568 503 1760 c 1,9,-1
 779 1760 l 1,10,11
 633 1535 633 1535 570 1297 c 0,12,13
 499 1031 499 1031 499 755 c 0,14,15
 499 469 499 469 570 213 c 0,16,17
 635 -20 635 -20 779 -250 c 1,0,1
EndSplineSet
Validated: 1
EndChar

StartChar: parenright
Encoding: 41 41 12
Width: 799
GlyphClass: 2
Flags: W
VStem: 300 329<358.913 1149.07>
LayerCount: 2
Fore
SplineSet
20 -250 m 1,0,1
 164 -20 164 -20 229 213 c 0,2,3
 300 469 300 469 300 755 c 0,4,5
 300 1031 300 1031 229 1297 c 0,6,7
 166 1535 166 1535 20 1760 c 1,8,-1
 296 1760 l 1,9,10
 431 1568 431 1568 520 1351 c 0,11,12
 629 1085 629 1085 629 755 c 128,-1,13
 629 425 629 425 520 159 c 0,14,15
 430 -62 430 -62 296 -250 c 1,16,-1
 20 -250 l 1,0,1
EndSplineSet
Validated: 1
EndChar

StartChar: asterisk
Encoding: 42 42 13
Width: 736
GlyphClass: 2
Flags: W
VStem: 293 150<832 1061 1321 1550>
DStem2: 95 1435 20 1306 0.865744 -0.500487<0 228.473 488.461 716.934> 20 1076 95 947 0.865744 0.500487<0.368046 228.841 488.829 717.302>
LayerCount: 2
Fore
SplineSet
293 1550 m 1,0,-1
 443 1550 l 1,1,-1
 443 1321 l 1,2,-1
 641 1435 l 1,3,-1
 716 1306 l 1,4,-1
 518 1191 l 1,5,-1
 716 1076 l 1,6,-1
 641 947 l 1,7,-1
 443 1061 l 1,8,-1
 443 832 l 1,9,-1
 293 832 l 1,10,-1
 293 1061 l 1,11,-1
 95 947 l 1,12,-1
 20 1076 l 1,13,-1
 218 1191 l 1,14,-1
 20 1306 l 1,15,-1
 95 1435 l 1,16,-1
 293 1321 l 1,17,-1
 293 1550 l 1,0,-1
EndSplineSet
Validated: 1
EndChar

StartChar: plus
Encoding: 43 43 14
Width: 1240
GlyphClass: 2
Flags: W
HStem: 655 200<120 520 720 1120>
VStem: 520 200<255 655 855 1255>
LayerCount: 2
Fore
SplineSet
520 1255 m 1,0,-1
 720 1255 l 1,1,-1
 720 855 l 1,2,-1
 1120 855 l 1,3,-1
 1120 655 l 1,4,-1
 720 655 l 1,5,-1
 720 255 l 1,6,-1
 520 255 l 1,7,-1
 520 655 l 1,8,-1
 120 655 l 1,9,-1
 120 855 l 1,10,-1
 520 855 l 1,11,-1
 520 1255 l 1,0,-1
EndSplineSet
Validated: 1
EndChar

StartChar: comma
Encoding: 44 44 15
Width: 373
GlyphClass: 2
Flags: W
HStem: -268 596
VStem: 144 209<-86.1641 124.525>
LayerCount: 2
Fore
SplineSet
152 328 m 1,0,1
 353 242 353 242 353 50 c 0,2,3
 353 -144 353 -144 143 -268 c 1,4,-1
 29 -147 l 1,5,6
 144 -72 144 -72 144 32 c 0,7,8
 144 127 144 127 20 167 c 1,9,-1
 152 328 l 1,0,1
EndSplineSet
Validated: 1
EndChar

StartChar: hyphen
Encoding: 45 45 16
Width: 1240
GlyphClass: 2
Flags: W
HStem: 655 200<120 1120>
LayerCount: 2
Fore
SplineSet
120 855 m 1,0,-1
 1120 855 l 1,1,-1
 1120 655 l 1,2,-1
 120 655 l 1,3,-1
 120 855 l 1,0,-1
EndSplineSet
Validated: 1
EndChar

StartChar: period
Encoding: 46 46 17
Width: 404
GlyphClass: 2
Flags: W
HStem: -20 370<83.1396 320.86>
VStem: 20 364<42.5779 287.422>
LayerCount: 2
Fore
SplineSet
202 -20 m 128,-1,1
 126 -20 126 -20 73 34 c 128,-1,2
 20 88 20 88 20 165 c 128,-1,3
 20 242 20 242 73 296 c 128,-1,4
 126 350 126 350 202 350 c 128,-1,5
 278 350 278 350 331 296 c 128,-1,6
 384 242 384 242 384 165 c 128,-1,7
 384 88 384 88 331 34 c 128,-1,0
 278 -20 278 -20 202 -20 c 128,-1,1
EndSplineSet
Validated: 1
EndChar

StartChar: slash
Encoding: 47 47 18
Width: 1276
GlyphClass: 2
Flags: W
DStem2: 10 -130 337 -130 0.465128 0.885243<152.097 1999.45>
LayerCount: 2
Fore
SplineSet
337 -130 m 1,0,-1
 10 -130 l 1,1,-1
 940 1640 l 1,2,-1
 1266 1640 l 1,3,-1
 337 -130 l 1,0,-1
EndSplineSet
Validated: 1
EndChar

StartChar: zero
Encoding: 48 48 19
Width: 1819
GlyphClass: 2
Flags: W
HStem: -20 170<661.859 1060.89> 1360 170<757.694 1158.32>
VStem: 70 340<433.677 936.643> 1409 340<572.643 1076.98>
LayerCount: 2
Fore
SplineSet
827 -20 m 0,0,1
 456 -20 456 -20 245 194 c 0,2,3
 70 373 70 373 70 651 c 0,4,5
 70 1041 70 1041 359 1299 c 0,6,7
 619 1530 619 1530 992 1530 c 0,8,9
 1366 1530 1366 1530 1574 1316 c 0,10,11
 1749 1137 1749 1137 1749 859 c 0,12,13
 1749 466 1749 466 1460 211 c 0,14,15
 1197 -20 1197 -20 827 -20 c 0,0,1
858 150 m 0,16,17
 1070 150 1070 150 1212 307 c 0,18,19
 1409 523 1409 523 1409 836 c 0,20,21
 1409 1055 1409 1055 1290 1207 c 0,22,23
 1171 1360 1171 1360 961 1360 c 0,24,25
 750 1360 750 1360 607 1203 c 0,26,27
 410 987 410 987 410 674 c 0,28,29
 410 457 410 457 530 304 c 0,30,31
 650 150 650 150 858 150 c 0,16,17
EndSplineSet
Validated: 1
EndChar

StartChar: one
Encoding: 49 49 20
Width: 760
GlyphClass: 2
Flags: W
HStem: 0 21G<220 540> 1340 170<10 220>
VStem: 220 320<0 1340>
LayerCount: 2
Fore
SplineSet
220 0 m 1,0,-1
 220 1340 l 1,1,-1
 10 1340 l 1,2,-1
 10 1510 l 1,3,-1
 540 1510 l 1,4,-1
 540 0 l 1,5,-1
 220 0 l 1,0,-1
EndSplineSet
Validated: 1
EndChar

StartChar: two
Encoding: 50 50 21
Width: 1403
GlyphClass: 2
Flags: W
HStem: 0 170<434 1283> 1360 170<517.046 807.374>
VStem: 930 344<844.362 1232.32>
LayerCount: 2
Fore
SplineSet
90 0 m 1,0,-1
 90 170 l 1,1,2
 542 426 542 426 804 722 c 0,3,4
 930 864 930 864 930 1048 c 0,5,6
 930 1189 930 1189 854 1276 c 0,7,8
 781 1360 781 1360 669 1360 c 0,9,10
 540 1360 540 1360 452 1263 c 0,11,12
 371 1172 371 1172 329 1030 c 1,13,-1
 105 1147 l 1,14,15
 150 1224 150 1224 192 1278 c 0,16,17
 388 1530 388 1530 727 1530 c 0,18,19
 984 1530 984 1530 1142 1381 c 0,20,21
 1274 1257 1274 1257 1274 1055 c 0,22,23
 1274 826 1274 826 1109 645 c 0,24,25
 894 408 894 408 434 170 c 1,26,-1
 1283 170 l 1,27,-1
 1283 0 l 1,28,-1
 90 0 l 1,0,-1
EndSplineSet
Validated: 1
EndChar

StartChar: three
Encoding: 51 51 22
Width: 1403
GlyphClass: 2
Flags: W
HStem: -20 170<408.762 748.637> 875 175<557 753.518> 1364 166<600.162 810.138>
VStem: 833 290<1125.67 1330.42> 938 345<367.794 766.379>
LayerCount: 2
Fore
SplineSet
590 -20 m 0,0,1
 237 -20 237 -20 5 231 c 1,2,-1
 253 362 l 1,3,4
 360 150 360 150 589 150 c 0,5,6
 735 150 735 150 836 270 c 0,7,8
 938 391 938 391 938 580 c 0,9,10
 938 710 938 710 878 789 c 0,11,12
 813 875 813 875 706 875 c 0,13,14
 628 875 628 875 557 861 c 1,15,-1
 557 1050 l 1,16,17
 700 1050 700 1050 764 1102 c 0,18,19
 833 1158 833 1158 833 1237 c 0,20,21
 833 1287 833 1287 810 1321 c 0,22,23
 780 1364 780 1364 719 1364 c 0,24,25
 641 1364 641 1364 583 1304 c 0,26,27
 535 1254 535 1254 500 1188 c 1,28,-1
 298 1304 l 1,29,30
 483 1530 483 1530 739 1530 c 0,31,32
 925 1530 925 1530 1030 1441 c 0,33,34
 1123 1363 1123 1363 1123 1246 c 0,35,36
 1123 1089 1123 1089 957 1000 c 1,37,38
 1103 953 1103 953 1182 862 c 0,39,40
 1283 746 1283 746 1283 573 c 0,41,42
 1283 335 1283 335 1074 158 c 0,43,44
 864 -20 864 -20 590 -20 c 0,0,1
EndSplineSet
Validated: 1
EndChar

StartChar: four
Encoding: 52 52 23
Width: 1422
GlyphClass: 2
Flags: W
HStem: 0 21G<882 1202> 280 170<330 882> 1490 20G<644 1202>
VStem: 882 320<0 280 450 1238>
LayerCount: 2
Fore
SplineSet
882 0 m 1,0,-1
 882 280 l 1,1,-1
 50 280 l 1,2,3
 386 987 386 987 902 1510 c 1,4,-1
 1202 1510 l 1,5,-1
 1202 0 l 1,6,-1
 882 0 l 1,0,-1
882 1238 m 1,7,8
 551 907 551 907 330 450 c 1,9,-1
 882 450 l 1,10,-1
 882 1238 l 1,7,8
EndSplineSet
Validated: 1
EndChar

StartChar: five
Encoding: 53 53 24
Width: 1448
GlyphClass: 2
Flags: W
HStem: -20 170<446.67 792.085> 875 171<581.421 870.888> 1340 170<617 1191>
VStem: 983 345<371.578 751.381>
LayerCount: 2
Fore
SplineSet
635 -20 m 0,0,1
 282 -20 282 -20 50 231 c 1,2,-1
 298 362 l 1,3,4
 405 150 405 150 620 150 c 0,5,6
 777 150 777 150 882 271 c 0,7,8
 983 389 983 389 983 559 c 0,9,10
 983 699 983 699 916 787 c 0,11,12
 850 875 850 875 738 875 c 0,13,14
 593 875 593 875 502 758 c 1,15,-1
 209 758 l 1,16,-1
 333 1510 l 1,17,-1
 1191 1510 l 1,18,-1
 1191 1340 l 1,19,-1
 617 1340 l 1,20,-1
 569 1019 l 1,21,22
 669 1046 669 1046 771 1046 c 0,23,24
 1068 1046 1068 1046 1227 863 c 0,25,26
 1328 747 1328 747 1328 574 c 0,27,28
 1328 338 1328 338 1120 160 c 0,29,30
 909 -20 909 -20 635 -20 c 0,0,1
EndSplineSet
Validated: 1
EndChar

StartChar: six
Encoding: 54 54 25
Width: 1550
GlyphClass: 2
Flags: W
HStem: -20 170<588.627 903.4> 876 172<672.948 978.756> 1359 171<809.868 1177.05>
VStem: 120 352<333.454 791.704> 1094 336<360.6 755.556>
LayerCount: 2
Fore
SplineSet
712 -20 m 0,0,1
 455 -20 455 -20 287 147 c 0,2,3
 120 313 120 313 120 591 c 0,4,5
 120 940 120 940 287 1181 c 0,6,7
 411 1360 411 1360 621 1452 c 0,8,9
 799 1530 799 1530 1001 1530 c 0,10,11
 1194 1530 1194 1530 1361 1457 c 1,12,-1
 1226 1279 l 1,13,14
 1135 1359 1135 1359 1002 1359 c 0,15,16
 912 1359 912 1359 830 1325 c 0,17,18
 658 1253 658 1253 561 1085 c 0,19,20
 505 987 505 987 483 886 c 1,21,22
 643 1048 643 1048 883 1048 c 0,23,24
 1146 1048 1146 1048 1298 897 c 0,25,26
 1430 767 1430 767 1430 575 c 0,27,28
 1430 367 1430 367 1298 225 c 0,29,30
 1070 -20 1070 -20 712 -20 c 0,0,1
740 150 m 0,31,32
 893 150 893 150 995 274 c 0,33,34
 1094 394 1094 394 1094 575 c 0,35,36
 1094 710 1094 710 1025 789 c 0,37,38
 948 876 948 876 847 876 c 0,39,40
 708 876 708 876 607 785 c 0,41,42
 472 663 472 663 472 452 c 0,43,44
 472 330 472 330 537 245 c 0,45,46
 610 150 610 150 740 150 c 0,31,32
EndSplineSet
Validated: 1
EndChar

StartChar: seven
Encoding: 55 55 26
Width: 1102
GlyphClass: 2
Flags: W
HStem: 0 21G<42 756> 1340 170<20 753>
VStem: 753 329<1125.75 1340>
LayerCount: 2
Fore
SplineSet
42 0 m 1,0,1
 753 723 753 723 753 1340 c 1,2,-1
 20 1340 l 1,3,-1
 20 1510 l 1,4,-1
 1082 1510 l 1,5,6
 1082 737 1082 737 430 0 c 1,7,-1
 42 0 l 1,0,1
EndSplineSet
Validated: 1
EndChar

StartChar: eight
Encoding: 56 56 27
Width: 1504
GlyphClass: 2
Flags: W
HStem: -20 170<563.933 856.804> 876 165<646.689 837.597> 1377 153<670.023 859.867>
VStem: 120 335<264.648 660.236> 320 289<1081.93 1314.36> 896 288<1106.03 1338.99> 1050 334<367.641 759.354>
LayerCount: 2
Fore
SplineSet
778 1377 m 0,0,1
 704 1377 704 1377 650 1314 c 0,2,3
 609 1266 609 1266 609 1183 c 0,4,5
 609 1123 609 1123 632 1092 c 0,6,7
 671 1041 671 1041 730 1041 c 0,8,9
 807 1041 807 1041 858 1107 c 0,10,11
 896 1156 896 1156 896 1232 c 0,12,13
 896 1292 896 1292 861 1335 c 0,14,15
 826 1377 826 1377 778 1377 c 0,0,1
667 -20 m 0,16,17
 410 -20 410 -20 252 129 c 0,18,19
 120 253 120 253 120 443 c 0,20,21
 120 645 120 645 252 799 c 0,22,23
 338 901 338 901 467 967 c 1,24,25
 320 1030 320 1030 320 1166 c 128,-1,26
 320 1302 320 1302 439 1406 c 0,27,28
 580 1530 580 1530 781 1530 c 0,29,30
 985 1530 985 1530 1091 1441 c 0,31,32
 1184 1363 1184 1363 1184 1247 c 0,33,34
 1184 1104 1184 1104 1042 1016 c 1,35,36
 1170 975 1170 975 1253 896 c 0,37,38
 1384 770 1384 770 1384 575 c 0,39,40
 1384 378 1384 378 1253 225 c 0,41,42
 1044 -20 1044 -20 667 -20 c 0,16,17
699 150 m 0,43,44
 847 150 847 150 948 275 c 0,45,46
 1050 402 1050 402 1050 577 c 0,47,48
 1050 717 1050 717 977 800 c 0,49,50
 910 876 910 876 806 876 c 0,51,52
 657 876 657 876 558 754 c 0,53,54
 455 627 455 627 455 443 c 0,55,56
 455 310 455 310 524 230 c 0,57,58
 594 150 594 150 699 150 c 0,43,44
EndSplineSet
Validated: 1
EndChar

StartChar: nine
Encoding: 57 57 28
Width: 1550
GlyphClass: 2
Flags: W
HStem: -20 171<372.95 740.132> 462 172<571.244 877.052> 1360 170<646.6 961.373>
VStem: 120 336<754.444 1149.4> 1078 352<718.296 1176.55>
LayerCount: 2
Fore
SplineSet
549 -20 m 0,0,1
 356 -20 356 -20 189 53 c 1,2,-1
 324 231 l 1,3,4
 415 151 415 151 548 151 c 0,5,6
 638 151 638 151 720 185 c 0,7,8
 892 257 892 257 989 425 c 0,9,10
 1045 523 1045 523 1067 624 c 1,11,12
 907 462 907 462 667 462 c 0,13,14
 404 462 404 462 252 613 c 0,15,16
 120 743 120 743 120 935 c 0,17,18
 120 1143 120 1143 252 1285 c 0,19,20
 480 1530 480 1530 838 1530 c 0,21,22
 1095 1530 1095 1530 1263 1363 c 0,23,24
 1430 1197 1430 1197 1430 919 c 0,25,26
 1430 570 1430 570 1263 329 c 0,27,28
 1139 150 1139 150 929 58 c 0,29,30
 751 -20 751 -20 549 -20 c 0,0,1
810 1360 m 0,31,32
 657 1360 657 1360 555 1236 c 0,33,34
 456 1116 456 1116 456 935 c 0,35,36
 456 800 456 800 525 721 c 0,37,38
 602 634 602 634 703 634 c 0,39,40
 842 634 842 634 943 725 c 0,41,42
 1078 847 1078 847 1078 1058 c 0,43,44
 1078 1180 1078 1180 1013 1265 c 0,45,46
 940 1360 940 1360 810 1360 c 0,31,32
EndSplineSet
Validated: 1
EndChar

StartChar: colon
Encoding: 58 58 29
Width: 404
GlyphClass: 2
Flags: W
HStem: -20 370<83.1396 320.86> 570 370<83.1396 320.86>
VStem: 20 364<42.5779 287.422 632.578 877.422>
LayerCount: 2
Fore
SplineSet
202 -20 m 128,-1,1
 126 -20 126 -20 73 34 c 128,-1,2
 20 88 20 88 20 165 c 128,-1,3
 20 242 20 242 73 296 c 128,-1,4
 126 350 126 350 202 350 c 128,-1,5
 278 350 278 350 331 296 c 128,-1,6
 384 242 384 242 384 165 c 128,-1,7
 384 88 384 88 331 34 c 128,-1,0
 278 -20 278 -20 202 -20 c 128,-1,1
202 940 m 128,-1,9
 278 940 278 940 331 886 c 128,-1,10
 384 832 384 832 384 755 c 128,-1,11
 384 678 384 678 331 624 c 128,-1,12
 278 570 278 570 202 570 c 128,-1,13
 126 570 126 570 73 624 c 128,-1,14
 20 678 20 678 20 755 c 128,-1,15
 20 832 20 832 73 886 c 128,-1,8
 126 940 126 940 202 940 c 128,-1,9
EndSplineSet
Validated: 1
EndChar

StartChar: semicolon
Encoding: 59 59 30
Width: 404
GlyphClass: 2
Flags: W
HStem: 570 370<83.1396 320.86>
VStem: 20 364<632.578 877.422> 144 209<-86.1641 124.525>
LayerCount: 2
Fore
SplineSet
152 328 m 1,0,1
 353 242 353 242 353 50 c 0,2,3
 353 -144 353 -144 143 -268 c 1,4,-1
 29 -147 l 1,5,6
 144 -72 144 -72 144 32 c 0,7,8
 144 127 144 127 20 167 c 1,9,-1
 152 328 l 1,0,1
202 940 m 128,-1,11
 278 940 278 940 331 886 c 128,-1,12
 384 832 384 832 384 755 c 128,-1,13
 384 678 384 678 331 624 c 128,-1,14
 278 570 278 570 202 570 c 128,-1,15
 126 570 126 570 73 624 c 128,-1,16
 20 678 20 678 20 755 c 128,-1,17
 20 832 20 832 73 886 c 128,-1,10
 126 940 126 940 202 940 c 128,-1,11
EndSplineSet
Validated: 1
EndChar

StartChar: less
Encoding: 60 60 31
Width: 1266
GlyphClass: 2
Flags: W
DStem2: 120 855 310 799 0.893693 0.448678<144.676 1024.8> 310 799 120 655 0.892591 -0.450868<0 877.866>
LayerCount: 2
Fore
SplineSet
120 855 m 1,0,-1
 1096 1345 l 1,1,-1
 1096 1195 l 1,2,-1
 310 799 l 1,3,-1
 1096 408 l 1,4,-1
 1096 162 l 1,5,-1
 120 655 l 1,6,-1
 120 855 l 1,0,-1
EndSplineSet
Validated: 1
EndChar

StartChar: equal
Encoding: 61 61 32
Width: 1240
GlyphClass: 2
Flags: W
HStem: 430 200<120 1120> 879 200<120 1120>
LayerCount: 2
Fore
SplineSet
120 630 m 1,0,-1
 1120 630 l 1,1,-1
 1120 430 l 1,2,-1
 120 430 l 1,3,-1
 120 630 l 1,0,-1
120 1079 m 1,4,-1
 1120 1079 l 1,5,-1
 1120 879 l 1,6,-1
 120 879 l 1,7,-1
 120 1079 l 1,4,-1
EndSplineSet
Validated: 1
EndChar

StartChar: greater
Encoding: 62 62 33
Width: 1266
GlyphClass: 2
Flags: W
DStem2: 170 1345 170 1099 0.892591 -0.450868<110.914 988.779> 170 312 170 162 0.893693 0.448678<0 880.12>
LayerCount: 2
Fore
SplineSet
1146 652 m 1,0,-1
 170 162 l 1,1,-1
 170 312 l 1,2,-1
 956 708 l 1,3,-1
 170 1099 l 1,4,-1
 170 1345 l 1,5,-1
 1146 852 l 1,6,-1
 1146 652 l 1,0,-1
EndSplineSet
Validated: 1
EndChar

StartChar: question
Encoding: 63 63 34
Width: 1408
GlyphClass: 2
Flags: W
HStem: -20 370<540.14 777.86> 1360 170<534.785 822.255>
VStem: 477 364<42.5779 287.422> 943 345<890.606 1234.26>
LayerCount: 2
Fore
SplineSet
659 -20 m 128,-1,1
 583 -20 583 -20 530 34 c 128,-1,2
 477 88 477 88 477 165 c 128,-1,3
 477 242 477 242 530 296 c 128,-1,4
 583 350 583 350 659 350 c 128,-1,5
 735 350 735 350 788 296 c 128,-1,6
 841 242 841 242 841 165 c 128,-1,7
 841 88 841 88 788 34 c 128,-1,0
 735 -20 735 -20 659 -20 c 128,-1,1
742 1530 m 0,8,9
 1003 1530 1003 1530 1157 1382 c 0,10,11
 1288 1256 1288 1256 1288 1065 c 0,12,13
 1288 852 1288 852 1063 663 c 2,14,-1
 809 450 l 1,15,-1
 547 450 l 1,16,-1
 821 774 l 2,17,18
 943 918 943 918 943 1066 c 0,19,20
 943 1192 943 1192 869 1275 c 0,21,22
 793 1360 793 1360 683 1360 c 0,23,24
 568 1360 568 1360 469 1266 c 24,25,26
 387 1187 387 1187 343 1031 c 1,27,-1
 120 1148 l 1,28,29
 158 1216 158 1216 207 1278 c 0,30,31
 408 1530 408 1530 742 1530 c 0,8,9
EndSplineSet
Validated: 1
EndChar

StartChar: at
Encoding: 64 64 35
Width: 1756
GlyphClass: 2
Flags: W
HStem: -430 150<696.135 1084.72> -20 170<887.107 1133.35> 0 21G<1286 1586> 698 52<1039.66 1152.77> 956 164<805.671 1163.23>
VStem: 120 307<24.3685 526.57> 542 276<221.573 525.801> 1286 300<0 179 345.431 817.995>
LayerCount: 2
Fore
SplineSet
1586 0 m 1,0,-1
 1286 0 l 1,1,-1
 1286 179 l 1,2,3
 1186 -20 1186 -20 970 -20 c 0,4,5
 800 -20 800 -20 679 82 c 0,6,7
 542 196 542 196 542 362 c 0,8,9
 542 540 542 540 699 656 c 0,10,11
 827 750 827 750 1012 750 c 0,12,13
 1106 750 1106 750 1190 709 c 1,14,-1
 1190 698 l 1,15,16
 1013 698 1013 698 907 586 c 0,17,18
 818 492 818 492 818 363 c 0,19,20
 818 264 818 264 878 203 c 0,21,22
 929 150 929 150 1010 150 c 0,23,24
 1101 150 1101 150 1164 222 c 0,25,26
 1288 363 1288 363 1288 591 c 0,27,28
 1288 733 1288 733 1243 819 c 0,29,30
 1171 956 1171 956 1017 956 c 0,31,32
 791 956 791 956 621 783 c 0,33,34
 427 586 427 586 427 302 c 0,35,36
 427 17 427 17 566 -136 c 0,37,38
 697 -280 697 -280 873 -280 c 0,39,40
 1103 -280 1103 -280 1260 -109 c 1,41,-1
 1412 -239 l 1,42,43
 1186 -430 1186 -430 868 -430 c 0,44,45
 510 -430 510 -430 301 -224 c 0,46,47
 120 -46 120 -46 120 263 c 0,48,49
 120 636 120 636 425 897 c 0,50,51
 687 1120 687 1120 1036 1120 c 0,52,53
 1320 1120 1320 1120 1477 936 c 0,54,55
 1586 808 1586 808 1586 562 c 2,56,-1
 1586 0 l 1,0,-1
EndSplineSet
Validated: 1
EndChar

StartChar: A
Encoding: 65 65 36
Width: 1683
GlyphClass: 2
Flags: W
HStem: 0 21G<5 201.896 1327.13 1678> 670 170<567 964> 1490 20G<672.046 1009.97>
DStem2: 5 0 193 0 0.408605 0.912711<76.8177 810.099 996.313 1486.52> 1001 1510 766 1288 0.409108 -0.912486<106.432 596.229 782.034 1514.91>
LayerCount: 2
Fore
SplineSet
5 0 m 1,0,-1
 681 1510 l 1,1,-1
 1001 1510 l 1,2,-1
 1678 0 l 1,3,-1
 1336 0 l 1,4,-1
 1039 670 l 1,5,-1
 491 670 l 1,6,-1
 193 0 l 1,7,-1
 5 0 l 1,0,-1
964 840 m 1,8,-1
 766 1288 l 1,9,-1
 567 840 l 1,10,-1
 964 840 l 1,8,-1
EndSplineSet
Validated: 1
EndChar

StartChar: B
Encoding: 66 66 37
Width: 1558
GlyphClass: 2
Flags: W
HStem: -20 138<657.471 957.494> 0 21G<170 490> 32 114<586.959 724.309> 1346 184<742.83 986.753> 1490 20G<170 490>
VStem: 170 320<0 1077.46 1266 1510> 1045 307<1027.09 1288.56> 1156 332<314.571 643.098>
LayerCount: 2
Fore
SplineSet
170 0 m 1,0,-1
 170 1510 l 1,1,-1
 490 1510 l 1,2,-1
 490 1266 l 1,3,4
 683 1530 683 1530 944 1530 c 0,5,6
 1135 1530 1135 1530 1243.5 1429.5 c 128,-1,7
 1352 1329 1352 1329 1352 1188 c 0,8,9
 1352 996 1352 996 1138 861 c 1,10,11
 1272 840 1272 840 1360 770 c 0,12,13
 1488 668 1488 668 1488 502 c 128,-1,14
 1488 336 1488 336 1367 208 c 0,15,16
 1150 -20 1150 -20 835 -20 c 0,17,18
 728 -20 728 -20 644 32 c 0,19,20
 578 73 578 73 534 139 c 1,21,-1
 541 146 l 1,22,23
 641 118 641 118 727 118 c 0,24,25
 944 118 944 118 1053 229 c 0,26,27
 1156 334 1156 334 1156 493 c 0,28,29
 1156 604 1156 604 1085 676 c 0,30,31
 1013 749 1013 749 892 749 c 0,32,33
 788 749 788 749 687 729 c 1,34,-1
 687 739 l 1,35,36
 790 780 790 780 877 852 c 0,37,38
 1045 992 1045 992 1045 1161 c 0,39,40
 1045 1242 1045 1242 996.5 1294 c 128,-1,41
 948 1346 948 1346 865 1346 c 0,42,43
 736 1346 736 1346 633 1231 c 0,44,45
 490 1072 490 1072 490 867 c 2,46,-1
 490 0 l 1,47,-1
 170 0 l 1,0,-1
EndSplineSet
Validated: 1
EndChar

StartChar: C
Encoding: 67 67 38
Width: 1641
GlyphClass: 2
Flags: W
HStem: -20 170<661.859 1061.31> 1360 170<757.694 1147.92>
VStem: 70 340<433.677 936.643>
LayerCount: 2
Fore
SplineSet
827 -20 m 0,0,1
 456 -20 456 -20 245 194 c 0,2,3
 70 373 70 373 70 651 c 0,4,5
 70 1041 70 1041 359 1299 c 0,6,7
 619 1530 619 1530 992 1530 c 128,-1,8
 1365 1530 1365 1530 1591 1298 c 1,9,-1
 1321 1163 l 1,10,11
 1177 1360 1177 1360 961 1360 c 0,12,13
 750 1360 750 1360 607 1203 c 0,14,15
 410 987 410 987 410 674 c 0,16,17
 410 457 410 457 530 304 c 0,18,19
 650 150 650 150 858 150 c 0,20,21
 1069 150 1069 150 1212 307 c 0,22,23
 1297 400 1297 400 1345 511 c 1,24,-1
 1586 347 l 1,25,26
 1532 275 1532 275 1460 211 c 0,27,28
 1200 -20 1200 -20 827 -20 c 0,0,1
EndSplineSet
Validated: 1
EndChar

StartChar: D
Encoding: 68 68 39
Width: 1796
GlyphClass: 2
Flags: W
HStem: -20 138<668.471 979.771> 0 21G<170 490> 32 114<597.959 735.309> 1360 170<761.871 1134.66> 1490 20G<170 490>
VStem: 170 320<0 1078.35 1266 1510> 1386 340<576.088 1077.38>
LayerCount: 2
Fore
SplineSet
170 0 m 1,0,-1
 170 1510 l 1,1,-1
 490 1510 l 1,2,-1
 490 1266 l 1,3,4
 664 1530 664 1530 1000 1530 c 0,5,6
 1343 1530 1343 1530 1551 1316 c 0,7,8
 1726 1137 1726 1137 1726 859 c 0,9,10
 1726 469 1726 469 1437 211 c 0,11,12
 1178 -20 1178 -20 846 -20 c 0,13,14
 739 -20 739 -20 655 32 c 0,15,16
 589 73 589 73 545 139 c 1,17,18
 552 146 l 1,19,20
 652 118 652 118 738 118 c 0,21,22
 1014 118 1014 118 1189 306 c 0,23,24
 1386 518 1386 518 1386 835 c 0,25,26
 1386 1057 1386 1057 1267 1207 c 0,27,28
 1146 1360 1146 1360 943 1360 c 0,29,30
 771 1360 771 1360 637 1225 c 0,31,32
 490 1077 490 1077 490 868 c 2,33,-1
 490 0 l 1,34,-1
 170 0 l 1,0,-1
EndSplineSet
Validated: 1
EndChar

StartChar: E
Encoding: 69 69 40
Width: 1641
GlyphClass: 2
Flags: W
HStem: -20 170<661.859 1060.89> 670 170<425 1204> 1360 170<757.694 1147.92>
VStem: 70 340<434.057 663.155>
CounterMasks: 1 e0
LayerCount: 2
Fore
SplineSet
827 -20 m 0,0,1
 456 -20 456 -20 245 194 c 0,2,3
 70 373 70 373 70 651 c 0,4,5
 70 1041 70 1041 359 1299 c 0,6,7
 619 1530 619 1530 992 1530 c 128,-1,8
 1365 1530 1365 1530 1591 1298 c 1,9,-1
 1321 1163 l 1,10,11
 1177 1360 1177 1360 961 1360 c 0,12,13
 750 1360 750 1360 607 1203 c 0,14,15
 465 1047 465 1047 425 840 c 1,16,-1
 1204 840 l 1,17,-1
 1204 670 l 1,18,-1
 410 670 l 1,19,20
 411 456 411 456 530 304 c 0,21,22
 650 150 650 150 858 150 c 0,23,24
 1070 150 1070 150 1212 307 c 0,25,26
 1297 400 1297 400 1345 511 c 1,27,-1
 1586 347 l 1,28,29
 1532 275 1532 275 1460 211 c 0,30,31
 1197 -20 1197 -20 827 -20 c 0,0,1
EndSplineSet
Validated: 1
EndChar

StartChar: F
Encoding: 70 70 41
Width: 1426
GlyphClass: 2
Flags: W
HStem: 0 21G<170 490> 670 170<490 1060> 1346 184<747.384 1052.09> 1490 20G<170 490>
VStem: 170 320<0 670 840 1100.61 1266 1510>
LayerCount: 2
Fore
SplineSet
170 0 m 1,0,-1
 170 1510 l 1,1,-1
 490 1510 l 1,2,-1
 490 1266 l 1,3,4
 664 1530 664 1530 984 1530 c 0,5,6
 1234 1530 1234 1530 1353 1397 c 0,7,8
 1395 1350 1395 1350 1421 1293 c 1,9,-1
 1139 1130 l 1,10,11
 1129 1221 1129 1221 1080 1276 c 0,12,13
 1017 1346 1017 1346 907 1346 c 0,14,15
 714 1346 714 1346 592 1196 c 0,16,17
 490 1071 490 1071 490 866 c 2,18,-1
 490 840 l 1,19,-1
 1060 840 l 1,20,-1
 1060 670 l 1,21,-1
 490 670 l 1,22,-1
 490 0 l 1,23,-1
 170 0 l 1,0,-1
EndSplineSet
Validated: 1
EndChar

StartChar: G
Encoding: 71 71 42
Width: 1819
GlyphClass: 2
Flags: W
HStem: -20 170<661.859 1060.89> 670 170<985 1394> 1360 170<757.694 1147.92>
VStem: 70 340<433.677 937.119>
CounterMasks: 1 e0
LayerCount: 2
Fore
SplineSet
827 -20 m 0,0,1
 456 -20 456 -20 245 194 c 0,2,3
 70 373 70 373 70 651 c 0,4,5
 70 1043 70 1043 359 1299 c 0,6,7
 619 1530 619 1530 992 1530 c 128,-1,8
 1365 1530 1365 1530 1591 1298 c 1,9,-1
 1321 1163 l 1,10,11
 1177 1360 1177 1360 961 1360 c 0,12,13
 750 1360 750 1360 607 1203 c 0,14,15
 410 987 410 987 410 674 c 0,16,17
 410 457 410 457 530 304 c 0,18,19
 650 150 650 150 858 150 c 0,20,21
 1070 150 1070 150 1212 307 c 0,22,23
 1354 462 1354 462 1394 670 c 1,24,-1
 985 670 l 1,25,-1
 985 840 l 1,26,-1
 1749 840 l 1,27,28
 1749 466 1749 466 1460 211 c 0,29,30
 1197 -20 1197 -20 827 -20 c 0,0,1
EndSplineSet
Validated: 1
EndChar

StartChar: H
Encoding: 72 72 43
Width: 1632
GlyphClass: 2
Flags: W
HStem: 0 21G<170 490 1142 1462> 670 170<490 1142> 1490 20G<170 490 1142 1462>
VStem: 170 320<0 670 840 1510> 1142 320<0 670 840 1510>
LayerCount: 2
Fore
SplineSet
170 0 m 1,0,-1
 170 1510 l 1,1,-1
 490 1510 l 1,2,-1
 490 840 l 1,3,-1
 1142 840 l 1,4,-1
 1142 1510 l 1,5,-1
 1462 1510 l 1,6,-1
 1462 0 l 1,7,-1
 1142 0 l 1,8,-1
 1142 670 l 1,9,-1
 490 670 l 1,10,-1
 490 0 l 1,11,-1
 170 0 l 1,0,-1
EndSplineSet
Validated: 1
EndChar

StartChar: I
Encoding: 73 73 44
Width: 660
GlyphClass: 2
Flags: W
HStem: 0 21G<170 490> 1490 20G<170 490>
VStem: 170 320<0 1510>
LayerCount: 2
Fore
SplineSet
170 0 m 1,0,-1
 170 1510 l 1,1,-1
 490 1510 l 1,2,-1
 490 0 l 1,3,-1
 170 0 l 1,0,-1
EndSplineSet
Validated: 1
EndChar

StartChar: J
Encoding: 74 74 45
Width: 1289
GlyphClass: 2
Flags: W
HStem: -20 156<294.513 632.025> 1340 170<230 799>
VStem: 799 320<322.625 1340>
LayerCount: 2
Fore
SplineSet
488 -20 m 0,0,1
 189 -20 189 -20 5 133 c 1,2,-1
 182 315 l 1,3,4
 269 136 269 136 452 136 c 0,5,6
 603 136 603 136 695 230 c 0,7,8
 799 337 799 337 799 532 c 2,9,-1
 799 1340 l 1,10,-1
 230 1340 l 1,11,-1
 230 1510 l 1,12,-1
 1119 1510 l 1,13,-1
 1119 550 l 2,14,15
 1119 331 1119 331 985 188 c 0,16,17
 790 -20 790 -20 488 -20 c 0,0,1
EndSplineSet
Validated: 1
EndChar

StartChar: K
Encoding: 75 75 46
Width: 1558
GlyphClass: 2
Flags: W
HStem: 0 21G<170 490 1023.39 1528> 1490 20G<170 490 1066 1386>
VStem: 170 320<0 338 508 1510> 1047 481<0 481> 1066 320<990.457 1510>
DStem2: 935 480 628 355 0.777275 -0.629161<0 389.052>
LayerCount: 2
Fore
SplineSet
170 0 m 1,0,-1
 170 1510 l 1,1,-1
 490 1510 l 1,2,-1
 490 508 l 1,3,4
 567 516 567 516 662 548 c 0,5,6
 973 652 973 652 1037 1051 c 0,7,8
 1066 1234 1066 1234 1066 1510 c 1,9,-1
 1386 1510 l 1,10,11
 1386 1233 1386 1233 1366 1102 c 0,12,13
 1303 690 1303 690 935 480 c 1,14,-1
 1528 0 l 1,15,-1
 1047 0 l 1,16,-1
 628 355 l 1,17,18
 539 338 539 338 490 338 c 1,19,-1
 490 0 l 1,20,-1
 170 0 l 1,0,-1
EndSplineSet
Validated: 1
EndChar

StartChar: L
Encoding: 76 76 47
Width: 1128
GlyphClass: 2
Flags: W
HStem: 0 170<490 1118> 1490 20G<170 490>
VStem: 170 320<170 1510>
LayerCount: 2
Fore
SplineSet
170 0 m 1,0,-1
 170 1510 l 1,1,-1
 490 1510 l 1,2,-1
 490 170 l 1,3,-1
 1118 170 l 1,4,-1
 1118 0 l 1,5,-1
 170 0 l 1,0,-1
EndSplineSet
Validated: 1
EndChar

StartChar: M
Encoding: 77 77 48
Width: 2542
GlyphClass: 2
Flags: W
HStem: 0 21G<170 490 1111 1431 2052 2372> 1346 184<738.834 1022.95 1672.1 1971.32> 1490 20G<170 490>
VStem: 170 320<0 1086.92 1266 1510> 1111 320<0 1085.94> 2052 320<0 1260.17>
CounterMasks: 1 1c
LayerCount: 2
Fore
SplineSet
170 0 m 1,0,-1
 170 1510 l 1,1,-1
 490 1510 l 1,2,-1
 490 1266 l 1,3,4
 656 1530 656 1530 970 1530 c 0,5,6
 1302 1530 1302 1530 1395 1266 c 1,7,8
 1571 1530 1571 1530 1900 1530 c 0,9,10
 2136 1530 2136 1530 2265 1397 c 0,11,12
 2372 1287 2372 1287 2372 1089 c 2,13,-1
 2372 0 l 1,14,-1
 2052 0 l 1,15,-1
 2052 1083 l 2,16,17
 2052 1213 2052 1213 1997 1277 c 0,18,19
 1938 1346 1938 1346 1842 1346 c 0,20,21
 1686 1346 1686 1346 1566 1222 c 0,22,23
 1431 1084 1431 1084 1431 866 c 2,24,-1
 1431 0 l 1,25,-1
 1111 0 l 1,26,-1
 1111 1083 l 2,27,28
 1111 1207 1111 1207 1054 1274 c 0,29,30
 992 1346 992 1346 901 1346 c 0,31,32
 748 1346 748 1346 625 1222 c 0,33,34
 490 1086 490 1086 490 866 c 2,35,-1
 490 0 l 1,36,-1
 170 0 l 1,0,-1
EndSplineSet
Validated: 1
EndChar

StartChar: N
Encoding: 78 78 49
Width: 1631
GlyphClass: 2
Flags: W
HStem: 0 21G<170 490 1141 1461> 1346 184<747.384 1052.22> 1490 20G<170 490>
VStem: 170 320<0 1100.61 1266 1510> 1141 320<0 1251.3>
LayerCount: 2
Fore
SplineSet
170 0 m 1,0,-1
 170 1510 l 1,1,-1
 490 1510 l 1,2,-1
 490 1266 l 1,3,4
 664 1530 664 1530 984 1530 c 0,5,6
 1235 1530 1235 1530 1353 1397 c 0,7,8
 1461 1279 1461 1279 1461 1089 c 2,9,-1
 1461 0 l 1,10,-1
 1141 0 l 1,11,-1
 1141 1083 l 2,12,13
 1141 1208 1141 1208 1080 1276 c 0,14,15
 1017 1346 1017 1346 907 1346 c 0,16,17
 714 1346 714 1346 592 1196 c 0,18,19
 490 1071 490 1071 490 866 c 2,20,-1
 490 0 l 1,21,-1
 170 0 l 1,0,-1
EndSplineSet
Validated: 1
EndChar

StartChar: O
Encoding: 79 79 50
Width: 1819
GlyphClass: 2
Flags: W
HStem: -20 170<661.859 1060.89> 1360 170<757.694 1158.32>
VStem: 70 340<433.677 936.643> 1409 340<572.643 1076.98>
LayerCount: 2
Fore
SplineSet
827 -20 m 0,0,1
 456 -20 456 -20 245 194 c 0,2,3
 70 373 70 373 70 651 c 0,4,5
 70 1041 70 1041 359 1299 c 0,6,7
 619 1530 619 1530 992 1530 c 0,8,9
 1366 1530 1366 1530 1574 1316 c 0,10,11
 1749 1137 1749 1137 1749 859 c 0,12,13
 1749 466 1749 466 1460 211 c 0,14,15
 1197 -20 1197 -20 827 -20 c 0,0,1
858 150 m 0,16,17
 1070 150 1070 150 1212 307 c 0,18,19
 1409 523 1409 523 1409 836 c 0,20,21
 1409 1055 1409 1055 1290 1207 c 0,22,23
 1171 1360 1171 1360 961 1360 c 0,24,25
 750 1360 750 1360 607 1203 c 0,26,27
 410 987 410 987 410 674 c 0,28,29
 410 457 410 457 530 304 c 0,30,31
 650 150 650 150 858 150 c 0,16,17
EndSplineSet
Validated: 1
EndChar

StartChar: P
Encoding: 80 80 51
Width: 1595
GlyphClass: 2
Flags: W
HStem: 0 21G<170 490> 344 138<668.471 943.601> 396 114<597.959 735.309> 1346 184<747.151 1048.23> 1490 20G<170 490>
VStem: 170 320<0 1086.13 1266 1510> 1184 341<769.407 1203.72>
LayerCount: 2
Fore
SplineSet
170 0 m 1,0,-1
 170 1510 l 1,1,-1
 490 1510 l 1,2,-1
 490 1266 l 1,3,4
 664 1530 664 1530 984 1530 c 0,5,6
 1215 1530 1215 1530 1371 1388 c 0,7,8
 1525 1247 1525 1247 1525 1022 c 0,9,10
 1525 693 1525 693 1275 493 c 0,11,12
 1089 344 1089 344 846 344 c 0,13,14
 739 344 739 344 655 396 c 0,15,16
 589 437 589 437 545 503 c 1,17,-1
 552 510 l 1,18,19
 652 482 652 482 738 482 c 0,20,21
 933 482 933 482 1045 602 c 0,22,23
 1184 751 1184 751 1184 1007 c 0,24,25
 1184 1168 1184 1168 1102 1257 c 0,26,27
 1021 1346 1021 1346 884 1346 c 0,28,29
 746 1346 746 1346 625 1222 c 0,30,31
 490 1084 490 1084 490 867 c 2,32,-1
 490 0 l 1,33,-1
 170 0 l 1,0,-1
EndSplineSet
Validated: 1
EndChar

StartChar: Q
Encoding: 81 81 52
Width: 1819
GlyphClass: 2
Flags: W
HStem: -20 170<661.859 1017.44> 0 21G<1222.78 1671> 1360 170<757.694 1158.32>
VStem: 70 340<433.677 936.643> 1409 340<572.195 1076.98>
LayerCount: 2
Fore
SplineSet
699 426 m 1,0,-1
 1115 426 l 1,1,-1
 1235 334 l 1,2,3
 1409 542 1409 542 1409 836 c 0,4,5
 1409 1055 1409 1055 1290 1207 c 0,6,7
 1171 1360 1171 1360 961 1360 c 0,8,9
 750 1360 750 1360 607 1203 c 0,10,11
 410 987 410 987 410 674 c 0,12,13
 410 457 410 457 530 304 c 0,14,15
 650 150 650 150 858 150 c 0,16,17
 945 150 945 150 1021 177 c 1,18,-1
 699 426 l 1,0,-1
1671 0 m 1,19,-1
 1249 0 l 1,20,-1
 1190 45 l 1,21,22
 1024 -20 1024 -20 827 -20 c 0,23,24
 456 -20 456 -20 245 194 c 0,25,26
 70 373 70 373 70 651 c 0,27,28
 70 1041 70 1041 359 1299 c 0,29,30
 619 1530 619 1530 992 1530 c 0,31,32
 1366 1530 1366 1530 1574 1316 c 0,33,34
 1749 1137 1749 1137 1749 859 c 0,35,36
 1749 466 1749 466 1460 211 c 0,37,38
 1445 198 1445 198 1429 185 c 1,39,-1
 1671 0 l 1,19,-1
EndSplineSet
Validated: 1
EndChar

StartChar: R
Encoding: 82 82 53
Width: 1679
GlyphClass: 2
Flags: W
HStem: 0 21G<170 490 1133.22 1609> 1346 184<747.151 1048.23> 1490 20G<170 490>
VStem: 170 320<0 1086.13 1266 1510> 1184 341<769.163 1203.72>
LayerCount: 2
Fore
SplineSet
170 0 m 1,0,-1
 170 1510 l 1,1,-1
 490 1510 l 1,2,-1
 490 1266 l 1,3,4
 664 1530 664 1530 984 1530 c 0,5,6
 1215 1530 1215 1530 1371 1388 c 0,7,8
 1525 1247 1525 1247 1525 1022 c 0,9,10
 1525 692 1525 692 1275 493 c 0,11,12
 1208 440 1208 440 1124 400 c 1,13,-1
 1609 0 l 1,14,-1
 1157 0 l 1,15,-1
 565 498 l 1,16,-1
 572 505 l 1,17,18
 662 482 662 482 738 482 c 0,19,20
 933 482 933 482 1045 602 c 0,21,22
 1184 751 1184 751 1184 1007 c 0,23,24
 1184 1168 1184 1168 1102 1257 c 0,25,26
 1021 1346 1021 1346 884 1346 c 0,27,28
 746 1346 746 1346 625 1222 c 0,29,30
 490 1084 490 1084 490 867 c 2,31,-1
 490 0 l 1,32,-1
 170 0 l 1,0,-1
EndSplineSet
Validated: 1
EndChar

StartChar: S
Encoding: 83 83 54
Width: 1352
GlyphClass: 2
Flags: W
HStem: -20 170<484.601 829.605> 1358 172<629.202 900.453>
VStem: 259 308<1103.99 1297.82> 958 324<306.544 561.011>
DStem2: 706 1042 528 766 0.904679 -0.426094<-163.301 434.095>
LayerCount: 2
Fore
SplineSet
655 -20 m 0,0,1
 302 -20 302 -20 70 232 c 1,2,-1
 318 363 l 1,3,4
 440 150 440 150 668 150 c 0,5,6
 819 150 819 150 900 264 c 0,7,8
 958 346 958 346 958 449 c 0,9,10
 958 564 958 564 815 631 c 2,11,-1
 528 766 l 2,12,13
 259 893 259 893 259 1134 c 0,14,15
 259 1302 259 1302 405 1416 c 128,-1,16
 551 1530 551 1530 750 1530 c 0,17,18
 1018 1530 1018 1530 1179 1365 c 1,19,-1
 974 1220 l 1,20,21
 907 1358 907 1358 766 1358 c 0,22,23
 677 1358 677 1358 626 1313 c 0,24,25
 567 1262 567 1262 567 1197 c 0,26,27
 567 1107 567 1107 706 1042 c 2,28,-1
 999 904 l 2,29,30
 1282 771 1282 771 1282 505 c 0,31,32
 1282 322 1282 322 1151 179 c 0,33,34
 969 -20 969 -20 655 -20 c 0,0,1
EndSplineSet
Validated: 1
EndChar

StartChar: T
Encoding: 84 84 55
Width: 1260
GlyphClass: 2
Flags: W
HStem: 0 21G<470 790> 1340 170<10 470 790 1250>
VStem: 470 320<0 1340>
LayerCount: 2
Fore
SplineSet
470 0 m 1,0,-1
 470 1340 l 1,1,-1
 10 1340 l 1,2,-1
 10 1510 l 1,3,-1
 1250 1510 l 1,4,-1
 1250 1340 l 1,5,-1
 790 1340 l 1,6,-1
 790 0 l 1,7,-1
 470 0 l 1,0,-1
EndSplineSet
Validated: 1
EndChar

StartChar: U
Encoding: 85 85 56
Width: 1631
GlyphClass: 2
Flags: W
HStem: -20 184<578.785 883.616> 0 21G<1141 1461> 1490 20G<170 490 1141 1461>
VStem: 170 320<258.695 1510> 1141 320<0 244 409.391 1510>
LayerCount: 2
Fore
SplineSet
1461 0 m 1,0,-1
 1141 0 l 1,1,-1
 1141 244 l 1,2,3
 967 -20 967 -20 647 -20 c 0,4,5
 396 -20 396 -20 278 113 c 0,6,7
 170 231 170 231 170 421 c 2,8,-1
 170 1510 l 1,9,-1
 490 1510 l 1,10,-1
 490 427 l 2,11,12
 490 302 490 302 551 234 c 0,13,14
 614 164 614 164 724 164 c 0,15,16
 917 164 917 164 1039 314 c 0,17,18
 1141 439 1141 439 1141 644 c 2,19,-1
 1141 1510 l 1,20,-1
 1461 1510 l 1,21,-1
 1461 0 l 1,0,-1
EndSplineSet
Validated: 1
EndChar

StartChar: V
Encoding: 86 86 57
Width: 1683
GlyphClass: 2
Flags: W
HStem: 0 21G<673.033 1010.95> 1490 20G<5 361.948 1481.1 1678>
DStem2: 353 1510 5 1510 0.409108 -0.912486<0 1395.7> 923 236 1002 0 0.408605 0.912711<0 1394.47>
LayerCount: 2
Fore
SplineSet
682 0 m 1,0,-1
 5 1510 l 1,1,-1
 353 1510 l 1,2,-1
 923 236 l 1,3,-1
 1490 1510 l 1,4,-1
 1678 1510 l 1,5,-1
 1002 0 l 1,6,-1
 682 0 l 1,0,-1
EndSplineSet
Validated: 1
EndChar

StartChar: W
Encoding: 87 87 58
Width: 2475
GlyphClass: 2
Flags: W
HStem: -20 184<570.679 869.896 1519.05 1792.93> 1490 20G<170 490 1111 1431 1704 2174.5>
VStem: 170 320<249.834 1510> 1111 320<424.062 1510> 2105 300<581.825 1082.27>
LayerCount: 2
Fore
SplineSet
642 -20 m 0,0,1
 406 -20 406 -20 277 113 c 0,2,3
 170 223 170 223 170 421 c 2,4,-1
 170 1510 l 1,5,-1
 490 1510 l 1,6,-1
 490 427 l 2,7,8
 490 297 490 297 545 233 c 0,9,10
 604 164 604 164 700 164 c 0,11,12
 856 164 856 164 976 288 c 0,13,14
 1111 426 1111 426 1111 644 c 2,15,-1
 1111 1510 l 1,16,-1
 1431 1510 l 1,17,-1
 1431 427 l 2,18,19
 1431 303 1431 303 1488 236 c 0,20,21
 1550 164 1550 164 1641 164 c 0,22,23
 1792 164 1792 164 1923 320 c 0,24,25
 2105 535 2105 535 2105 838 c 0,26,27
 2105 1041 2105 1041 1999 1203 c 0,28,29
 1894 1364 1894 1364 1704 1510 c 1,30,-1
 2111 1510 l 1,31,32
 2238 1402 2238 1402 2316 1250 c 0,33,34
 2405 1076 2405 1076 2405 858 c 0,35,36
 2405 486 2405 486 2116 211 c 0,37,38
 1874 -20 1874 -20 1572 -20 c 0,39,40
 1240 -20 1240 -20 1147 244 c 1,41,42
 971 -20 971 -20 642 -20 c 0,0,1
EndSplineSet
Validated: 1
EndChar

StartChar: X
Encoding: 88 88 59
Width: 1517
GlyphClass: 2
Flags: W
HStem: 0 21G<5 245.189 1115.09 1512> 1490 20G<5 401.911 1271.81 1512>
VStem: 5 382<1128 1510> 5 223<0 223> 1130 382<0 382> 1289 223<1287 1510>
DStem2: 387 1510 5 1510 0.597448 -0.801908<0 701.003 953.782 1654.78> 5 0 228 0 0.647795 0.761815<144.458 885.483 1241.08 1982.11>
LayerCount: 2
Fore
SplineSet
5 0 m 1,0,-1
 608 701 l 1,1,-1
 5 1510 l 1,2,-1
 387 1510 l 1,3,-1
 806 948 l 1,4,-1
 1289 1510 l 1,5,-1
 1512 1510 l 1,6,-1
 909 809 l 1,7,-1
 1512 0 l 1,8,-1
 1130 0 l 1,9,-1
 711 562 l 1,10,-1
 228 0 l 1,11,-1
 5 0 l 1,0,-1
EndSplineSet
Validated: 1
EndChar

StartChar: Y
Encoding: 89 89 60
Width: 1524
GlyphClass: 2
Flags: W
HStem: 0 21G<588 908> 1490 20G<5 364.703 1311.73 1519>
VStem: 588 320<0 422>
DStem2: 354 1510 5 1510 0.472311 -0.881432<0 1000.35> 826 628 908 423 0.489995 0.871725<0 1012.39>
LayerCount: 2
Fore
SplineSet
588 0 m 1,0,-1
 588 422 l 1,1,-1
 5 1510 l 1,2,-1
 354 1510 l 1,3,-1
 826 628 l 1,4,-1
 1323 1510 l 1,5,-1
 1519 1510 l 1,6,-1
 908 423 l 1,7,-1
 908 0 l 1,8,-1
 588 0 l 1,0,-1
EndSplineSet
Validated: 1
EndChar

StartChar: Z
Encoding: 90 90 61
Width: 1450
GlyphClass: 2
Flags: W
HStem: 0 170<526 1320> 1340 170<120 991>
VStem: 991 329<1135.64 1340>
LayerCount: 2
Fore
SplineSet
40 0 m 1,0,-1
 40 170 l 1,1,2
 991 736 991 736 991 1340 c 1,3,-1
 120 1340 l 1,4,-1
 120 1510 l 1,5,-1
 1320 1510 l 1,6,7
 1320 672 1320 672 526 170 c 1,8,-1
 1320 170 l 1,9,-1
 1320 0 l 1,10,-1
 40 0 l 1,0,-1
EndSplineSet
Validated: 1
EndChar

StartChar: bracketleft
Encoding: 91 91 62
Width: 913
GlyphClass: 2
Flags: W
HStem: -250 170<490 893> 1590 170<490 893>
VStem: 170 320<-80 1590>
LayerCount: 2
Fore
SplineSet
170 -250 m 1,0,-1
 170 1760 l 1,1,-1
 893 1760 l 1,2,-1
 893 1590 l 1,3,-1
 490 1590 l 1,4,-1
 490 -80 l 1,5,-1
 893 -80 l 1,6,-1
 893 -250 l 1,7,-1
 170 -250 l 1,0,-1
EndSplineSet
Validated: 1
EndChar

StartChar: backslash
Encoding: 92 92 63
Width: 1276
GlyphClass: 2
Flags: W
DStem2: 336 1640 10 1640 0.465128 -0.885243<0 1847.35>
LayerCount: 2
Fore
SplineSet
939 -130 m 1,0,-1
 10 1640 l 1,1,-1
 336 1640 l 1,2,-1
 1266 -130 l 1,3,-1
 939 -130 l 1,0,-1
EndSplineSet
Validated: 1
EndChar

StartChar: bracketright
Encoding: 93 93 64
Width: 913
GlyphClass: 2
Flags: W
HStem: -250 170<20 423> 1590 170<20 423>
VStem: 423 320<-80 1590>
LayerCount: 2
Fore
SplineSet
743 -250 m 1,0,-1
 20 -250 l 1,1,-1
 20 -80 l 1,2,-1
 423 -80 l 1,3,-1
 423 1590 l 1,4,-1
 20 1590 l 1,5,-1
 20 1760 l 1,6,-1
 743 1760 l 1,7,-1
 743 -250 l 1,0,-1
EndSplineSet
Validated: 1
EndChar

StartChar: asciicircum
Encoding: 94 94 65
Width: 1046
GlyphClass: 2
Flags: W
HStem: 1070 440
VStem: 20 199<1070 1269> 727 299<1070 1369>
DStem2: 20 1070 219 1070 0.664258 0.747503<132.187 520.342> 635 1510 477 1360 0.664258 -0.747503<7.17263 390.013>
LayerCount: 2
Fore
SplineSet
411 1510 m 1,0,-1
 635 1510 l 1,1,-1
 1026 1070 l 1,2,-1
 727 1070 l 1,3,-1
 477 1360 l 1,4,-1
 219 1070 l 1,5,-1
 20 1070 l 1,6,-1
 411 1510 l 1,0,-1
EndSplineSet
Validated: 1
EndChar

StartChar: underscore
Encoding: 95 95 66
Width: 1242
GlyphClass: 2
Flags: W
HStem: -410 150<120 1122>
LayerCount: 2
Fore
SplineSet
1122 -410 m 1,0,-1
 120 -410 l 1,1,-1
 120 -260 l 1,2,-1
 1122 -260 l 1,3,-1
 1122 -410 l 1,0,-1
EndSplineSet
Validated: 1
EndChar

StartChar: a
Encoding: 97 97 67
Width: 1385
GlyphClass: 2
Flags: W
HStem: -20 137<540.605 780.433> 0 21G<915 1215> 970 150<600.575 856.084>
VStem: 70 322<282.062 705.836> 915 300<0 906.597>
LayerCount: 2
Fore
SplineSet
1215 0 m 1,0,-1
 915 0 l 1,1,-1
 915 700 l 2,2,3
 915 838 915 838 873 904 c 128,-1,4
 831 970 831 970 749 970 c 0,5,6
 617 970 617 970 516 852 c 0,7,8
 392 705 392 705 392 514 c 0,9,10
 392 322 392 322 474 222 c 0,11,12
 561 117 561 117 688 117 c 0,13,14
 790 117 790 117 875 146 c 1,15,-1
 882 139 l 1,16,17
 856 87 856 87 811 47 c 0,18,19
 736 -20 736 -20 607 -20 c 0,20,21
 361 -20 361 -20 201 142 c 0,22,23
 70 275 70 275 70 480 c 0,24,25
 70 738 70 738 272.5 929 c 128,-1,26
 475 1120 475 1120 767 1120 c 0,27,28
 982 1120 982 1120 1098 1010 c 0,29,30
 1215 900 1215 900 1215 705 c 2,31,-1
 1215 0 l 1,0,-1
EndSplineSet
Validated: 1
EndChar

StartChar: b
Encoding: 98 98 68
Width: 1385
GlyphClass: 2
Flags: W
HStem: -20 150<528.916 784.425> 983 137<604.567 844.395> 1490 20G<170 470>
VStem: 170 300<193.403 1510> 993 322<394.164 817.938>
LayerCount: 2
Fore
SplineSet
618 -20 m 0,0,1
 403 -20 403 -20 287 90 c 0,2,3
 170 200 170 200 170 395 c 2,4,-1
 170 1510 l 1,5,-1
 470 1510 l 1,6,-1
 470 400 l 2,7,8
 470 262 470 262 512 196 c 128,-1,9
 554 130 554 130 636 130 c 0,10,11
 768 130 768 130 869 248 c 0,12,13
 993 395 993 395 993 586 c 0,14,15
 993 778 993 778 911 878 c 0,16,17
 824 983 824 983 697 983 c 0,18,19
 595 983 595 983 510 954 c 1,20,-1
 503 961 l 1,21,22
 529 1013 529 1013 574 1053 c 0,23,24
 649 1120 649 1120 778 1120 c 0,25,26
 1024 1120 1024 1120 1184 958 c 0,27,28
 1315 825 1315 825 1315 620 c 0,29,30
 1315 362 1315 362 1112.5 171 c 128,-1,31
 910 -20 910 -20 618 -20 c 0,0,1
EndSplineSet
Validated: 1
EndChar

StartChar: c
Encoding: 99 99 69
Width: 1268
GlyphClass: 2
Flags: W
HStem: -20 150<514.795 801.644> 970 150<603.22 890.289>
VStem: 70 322<270.814 707.992>
LayerCount: 2
Fore
SplineSet
627 -20 m 0,0,1
 361 -20 361 -20 201 142 c 0,2,3
 70 275 70 275 70 480 c 0,4,5
 70 738 70 738 274 932 c 0,6,7
 473 1120 473 1120 777 1120 c 0,8,9
 1040 1120 1040 1120 1218 942 c 1,10,-1
 972 820 l 1,11,12
 900 970 900 970 759 970 c 0,13,14
 616 970 616 970 516 852 c 0,15,16
 392 706 392 706 392 476 c 0,17,18
 392 329 392 329 460 231 c 0,19,20
 531 130 531 130 645 130 c 0,21,22
 789 130 789 130 888 248 c 0,23,24
 952 324 952 324 983 422 c 1,25,-1
 1218 267 l 1,26,27
 1180 216 1180 216 1130 168 c 0,28,29
 934 -20 934 -20 627 -20 c 0,0,1
EndSplineSet
Validated: 1
EndChar

StartChar: d
Encoding: 100 100 70
Width: 1451
GlyphClass: 2
Flags: W
HStem: -20 158<510.177 791.849> 0 21G<981 1281> 983 137<614.357 865.352> 1490 20G<981 1281>
VStem: 70 321<281.388 710.09> 981 300<0 179 350.84 1510>
LayerCount: 2
Fore
SplineSet
1281 0 m 1,0,-1
 981 0 l 1,1,-1
 981 179 l 1,2,3
 849 -20 849 -20 607 -20 c 0,4,5
 361 -20 361 -20 201 142 c 0,6,7
 70 275 70 275 70 480 c 0,8,9
 70 741 70 741 272 932 c 0,10,11
 471 1120 471 1120 710 1120 c 0,12,13
 816 1120 816 1120 879 1065 c 0,14,15
 918 1031 918 1031 948 971 c 1,16,-1
 941 964 l 1,17,18
 866 983 866 983 791 983 c 0,19,20
 621 983 621 983 510 852 c 0,21,22
 391 711 391 711 391 505 c 0,23,24
 391 335 391 335 464 232 c 0,25,26
 530 138 530 138 642 138 c 0,27,28
 753 138 753 138 840 220 c 0,29,30
 981 354 981 354 981 559 c 2,31,-1
 981 1510 l 1,32,-1
 1281 1510 l 1,33,-1
 1281 0 l 1,0,-1
EndSplineSet
Validated: 1
EndChar

StartChar: e
Encoding: 101 101 71
Width: 1268
GlyphClass: 2
Flags: W
HStem: -20 150<514.795 801.406> 475 150<407 922> 970 150<603.22 890.289>
VStem: 70 322<272.156 475>
CounterMasks: 1 e0
LayerCount: 2
Fore
SplineSet
627 -20 m 0,0,1
 361 -20 361 -20 201 142 c 0,2,3
 70 275 70 275 70 480 c 0,4,5
 70 738 70 738 274 932 c 0,6,7
 473 1120 473 1120 777 1120 c 0,8,9
 1040 1120 1040 1120 1218 942 c 1,10,-1
 972 820 l 1,11,12
 900 970 900 970 759 970 c 0,13,14
 616 970 616 970 516 852 c 0,15,16
 435 756 435 756 407 625 c 1,17,-1
 922 625 l 1,18,-1
 922 475 l 1,19,-1
 392 475 l 1,20,21
 392 329 392 329 460 231 c 0,22,23
 531 130 531 130 645 130 c 0,24,25
 788 130 788 130 888 248 c 0,26,27
 952 324 952 324 983 422 c 1,28,-1
 1218 267 l 1,29,30
 1180 216 1180 216 1130 168 c 0,31,32
 934 -20 934 -20 627 -20 c 0,0,1
EndSplineSet
Validated: 1
EndChar

StartChar: f
Encoding: 102 102 72
Width: 1191
GlyphClass: 2
Flags: W
HStem: 0 21G<170 470> 680 150<70 170 470 942> 1380 150<697.967 991.585>
VStem: 170 300<0 680 830 1099.3>
LayerCount: 2
Fore
SplineSet
170 0 m 1,0,-1
 170 680 l 1,1,-1
 70 680 l 1,2,-1
 70 830 l 1,3,-1
 170 830 l 1,4,5
 170 1147 170 1147 374 1340 c 0,6,7
 574 1530 574 1530 877 1530 c 0,8,9
 1038 1530 1038 1530 1186 1455 c 1,10,-1
 1051 1274 l 1,11,12
 977 1380 977 1380 859 1380 c 0,13,14
 689 1380 689 1380 556 1205 c 0,15,16
 470 1092 470 1092 470 830 c 1,17,-1
 942 830 l 1,18,-1
 942 680 l 1,19,-1
 470 680 l 1,20,-1
 470 0 l 1,21,-1
 170 0 l 1,0,-1
EndSplineSet
Validated: 1
EndChar

StartChar: g
Encoding: 103 103 73
Width: 1385
GlyphClass: 2
Flags: W
HStem: -430 150<393.415 696.502> -20 137<540.605 780.433> 970 150<600.575 856.084>
VStem: 70 322<282.062 705.836> 915 300<-0.788086 906.597>
LayerCount: 2
Fore
SplineSet
607 -20 m 0,0,1
 361 -20 361 -20 201 142 c 0,2,3
 70 275 70 275 70 480 c 0,4,5
 70 738 70 738 272.5 929 c 128,-1,6
 475 1120 475 1120 767 1120 c 0,7,8
 982 1120 982 1120 1098 1010 c 0,9,10
 1215 900 1215 900 1215 705 c 2,11,-1
 1215 267 l 2,12,13
 1215 -47 1215 -47 1011 -240 c 0,14,15
 811 -430 811 -430 508 -430 c 0,16,17
 347 -430 347 -430 199 -355 c 1,18,-1
 334 -174 l 1,19,20
 408 -280 408 -280 526 -280 c 0,21,22
 717 -280 717 -280 829 -105 c 0,23,24
 915 28 915 28 915 267 c 2,25,-1
 915 700 l 2,26,27
 915 838 915 838 873 904 c 128,-1,28
 831 970 831 970 749 970 c 0,29,30
 617 970 617 970 516 852 c 0,31,32
 392 705 392 705 392 514 c 0,33,34
 392 322 392 322 474 222 c 0,35,36
 561 117 561 117 688 117 c 0,37,38
 790 117 790 117 875 146 c 1,39,-1
 882 139 l 1,40,41
 856 87 856 87 811 47 c 0,42,43
 736 -20 736 -20 607 -20 c 0,0,1
EndSplineSet
Validated: 1
EndChar

StartChar: h
Encoding: 104 104 74
Width: 1422
GlyphClass: 2
Flags: W
HStem: 0 21G<170 470 952 1252> 950 170<671.017 902.472> 1490 20G<170 470>
VStem: 170 300<0 746.595 921 1510> 952 300<0 885.458>
LayerCount: 2
Fore
SplineSet
170 0 m 1,0,-1
 170 1510 l 1,1,-1
 470 1510 l 1,2,-1
 470 921 l 1,3,4
 636 1120 636 1120 890 1120 c 0,5,6
 1054 1120 1054 1120 1153 1024 c 128,-1,7
 1252 928 1252 928 1252 752 c 2,8,-1
 1252 0 l 1,9,-1
 952 0 l 1,10,-1
 952 747 l 2,11,12
 952 838 952 838 919 887 c 0,13,14
 876 950 876 950 800 950 c 0,15,16
 656 950 656 950 556 815 c 0,17,18
 470 700 470 700 470 538 c 2,19,-1
 470 0 l 1,20,-1
 170 0 l 1,0,-1
EndSplineSet
Validated: 1
EndChar

StartChar: i
Encoding: 105 105 75
Width: 640
GlyphClass: 2
Flags: W
HStem: -20 150<509.722 630> 1080 20G<170 470> 1160 370<201.14 438.86>
VStem: 138 364<1222.58 1467.42> 170 300<167.963 1100>
LayerCount: 2
Fore
SplineSet
630 -20 m 1,0,1
 170 -20 170 -20 170 276 c 2,2,-1
 170 1100 l 1,3,-1
 470 1100 l 1,4,-1
 470 280 l 2,5,6
 470 130 470 130 630 130 c 1,7,-1
 630 -20 l 1,0,1
320 1530 m 128,-1,9
 396 1530 396 1530 449 1476 c 128,-1,10
 502 1422 502 1422 502 1345 c 128,-1,11
 502 1268 502 1268 449 1214 c 128,-1,12
 396 1160 396 1160 320 1160 c 128,-1,13
 244 1160 244 1160 191 1214 c 128,-1,14
 138 1268 138 1268 138 1345 c 128,-1,15
 138 1422 138 1422 191 1476 c 128,-1,8
 244 1530 244 1530 320 1530 c 128,-1,9
EndSplineSet
Validated: 19457
EndChar

StartChar: j
Encoding: 106 106 76
Width: 640
GlyphClass: 2
Flags: W
HStem: -430 150<10 117.812> 1080 20G<170 470> 1160 370<201.14 438.86>
VStem: 138 364<1222.58 1467.42> 170 300<-233.076 1100>
LayerCount: 2
Fore
SplineSet
10 -430 m 1,0,1
 10 -280 l 1,2,3
 170 -280 170 -280 170 -80 c 2,4,-1
 170 1100 l 1,5,-1
 470 1100 l 1,6,-1
 470 -84 l 2,7,8
 470 -430 470 -430 10 -430 c 1,0,1
320 1530 m 128,-1,10
 396 1530 396 1530 449 1476 c 128,-1,11
 502 1422 502 1422 502 1345 c 128,-1,12
 502 1268 502 1268 449 1214 c 128,-1,13
 396 1160 396 1160 320 1160 c 128,-1,14
 244 1160 244 1160 191 1214 c 128,-1,15
 138 1268 138 1268 138 1345 c 128,-1,16
 138 1422 138 1422 191 1476 c 128,-1,9
 244 1530 244 1530 320 1530 c 128,-1,10
EndSplineSet
Validated: 1
EndChar

StartChar: k
Encoding: 107 107 77
Width: 1366
GlyphClass: 2
Flags: W
HStem: 0 21G<170 470 917.444 1356> 208 151<470 638.26> 1080 20G<896 1196> 1490 20G<170 470>
VStem: 170 300<0 208 359 1510> 896 300<683.676 1100>
LayerCount: 2
Fore
SplineSet
170 0 m 1,0,-1
 170 1510 l 1,1,-1
 470 1510 l 1,2,-1
 470 359 l 1,3,4
 715 382 715 382 819 581 c 0,5,6
 896 730 896 730 896 1100 c 1,7,-1
 1196 1100 l 1,8,9
 1196 724 1196 724 1102 561 c 0,10,11
 1033 440 1033 440 914 358 c 1,12,-1
 1356 0 l 1,13,-1
 943 0 l 1,14,-1
 644 234 l 1,15,16
 552 208 552 208 470 208 c 1,17,-1
 470 0 l 1,18,-1
 170 0 l 1,0,-1
EndSplineSet
Validated: 1
EndChar

StartChar: l
Encoding: 108 108 78
Width: 640
GlyphClass: 2
Flags: W
HStem: -20 150<509.722 630> 1490 20G<170 470>
VStem: 170 300<167.963 1510>
LayerCount: 2
Fore
SplineSet
630 -20 m 1,0,1
 170 -20 170 -20 170 276 c 2,2,-1
 170 1510 l 1,3,-1
 470 1510 l 1,4,-1
 470 280 l 2,5,6
 470 130 470 130 630 130 c 1,7,-1
 630 -20 l 1,0,1
EndSplineSet
Validated: 1
EndChar

StartChar: m
Encoding: 109 109 79
Width: 2144
GlyphClass: 2
Flags: W
HStem: 0 21G<170 470 922 1222 1674 1974> 950 170<650.367 877.951 1401.55 1631.3> 1080 20G<170 470>
VStem: 170 300<0 748.177 921 1100> 922 300<0 748.177> 1674 300<0 897.456>
CounterMasks: 1 1c
LayerCount: 2
Fore
SplineSet
170 0 m 1,0,-1
 170 1100 l 1,1,-1
 470 1100 l 1,2,-1
 470 921 l 1,3,4
 612 1120 612 1120 859 1120 c 0,5,6
 1040 1120 1040 1120 1127 1013 c 0,7,8
 1163 970 1163 970 1186 903 c 1,9,10
 1349 1120 1349 1120 1591 1120 c 0,11,12
 1771 1120 1771 1120 1874 1020 c 0,13,14
 1974 923 1974 923 1974 752 c 2,15,-1
 1974 0 l 1,16,-1
 1674 0 l 1,17,-1
 1674 747 l 2,18,19
 1674 850 1674 850 1638 899 c 0,20,21
 1600 950 1600 950 1533 950 c 0,22,23
 1434 950 1434 950 1340 854 c 0,24,25
 1222 733 1222 733 1222 538 c 2,26,-1
 1222 0 l 1,27,-1
 922 0 l 1,28,-1
 922 747 l 2,29,30
 922 849 922 849 885 899 c 0,31,32
 847 950 847 950 781 950 c 0,33,34
 682 950 682 950 588 854 c 0,35,36
 470 733 470 733 470 538 c 2,37,-1
 470 0 l 1,38,-1
 170 0 l 1,0,-1
EndSplineSet
Validated: 1
EndChar

StartChar: n
Encoding: 110 110 80
Width: 1422
GlyphClass: 2
Flags: W
HStem: 0 21G<170 470 952 1252> 950 170<671.017 902.532> 1080 20G<170 470>
VStem: 170 300<0 746.595 921 1100> 952 300<0 885.458>
LayerCount: 2
Fore
SplineSet
170 0 m 1,0,-1
 170 1100 l 1,1,-1
 470 1100 l 1,2,-1
 470 921 l 1,3,4
 636 1120 636 1120 890 1120 c 0,5,6
 1056 1120 1056 1120 1153 1024 c 0,7,8
 1252 928 1252 928 1252 752 c 2,9,-1
 1252 0 l 1,10,-1
 952 0 l 1,11,-1
 952 747 l 2,12,13
 952 838 952 838 919 887 c 0,14,15
 876 950 876 950 800 950 c 0,16,17
 656 950 656 950 556 815 c 0,18,19
 470 700 470 700 470 538 c 2,20,-1
 470 0 l 1,21,-1
 170 0 l 1,0,-1
EndSplineSet
Validated: 1
EndChar

StartChar: o
Encoding: 111 111 81
Width: 1404
GlyphClass: 2
Flags: W
HStem: -20 150<515.137 800.78> 970 150<603.22 888.863>
VStem: 70 322<270.814 707.746> 1012 322<392.254 829.186>
LayerCount: 2
Fore
SplineSet
645 130 m 0,0,1
 788 130 788 130 888 248 c 0,2,3
 1012 395 1012 395 1012 624 c 0,4,5
 1012 771 1012 771 944 869 c 0,6,7
 873 970 873 970 759 970 c 0,8,9
 616 970 616 970 516 852 c 0,10,11
 392 705 392 705 392 476 c 0,12,13
 392 329 392 329 460 231 c 0,14,15
 531 130 531 130 645 130 c 0,0,1
627 -20 m 0,16,17
 363 -20 363 -20 201 142 c 0,18,19
 70 275 70 275 70 480 c 0,20,21
 70 738 70 738 274 932 c 0,22,23
 473 1120 473 1120 777 1120 c 0,24,25
 1041 1120 1041 1120 1203 958 c 0,26,27
 1334 825 1334 825 1334 620 c 0,28,29
 1334 362 1334 362 1130 168 c 0,30,31
 931 -20 931 -20 627 -20 c 0,16,17
EndSplineSet
Validated: 1
EndChar

StartChar: p
Encoding: 112 112 82
Width: 1451
GlyphClass: 2
Flags: W
HStem: -410 21G<170 470> -20 137<585.648 836.643> 962 158<659.151 940.823> 1080 20G<170 470>
VStem: 170 300<-410 749.16 921 1100> 1060 321<389.91 818.612>
LayerCount: 2
Fore
SplineSet
741 -20 m 0,0,1
 635 -20 635 -20 572 35 c 0,2,3
 533 69 533 69 503 129 c 1,4,-1
 510 136 l 1,5,6
 585 117 585 117 660 117 c 0,7,8
 830 117 830 117 941 248 c 0,9,10
 1060 389 1060 389 1060 595 c 0,11,12
 1060 765 1060 765 987 868 c 0,13,14
 921 962 921 962 809 962 c 0,15,16
 698 962 698 962 611 880 c 0,17,18
 470 746 470 746 470 541 c 2,19,-1
 470 -410 l 1,20,-1
 170 -410 l 1,21,-1
 170 1100 l 1,22,-1
 470 1100 l 1,23,-1
 470 921 l 1,24,25
 602 1120 602 1120 844 1120 c 0,26,27
 1090 1120 1090 1120 1250 958 c 0,28,29
 1381 825 1381 825 1381 620 c 0,30,31
 1381 359 1381 359 1179 168 c 0,32,33
 980 -20 980 -20 741 -20 c 0,0,1
EndSplineSet
Validated: 1
EndChar

StartChar: q
Encoding: 113 113 83
Width: 1385
GlyphClass: 2
Flags: W
HStem: -410 21G<915 1215> -20 137<540.605 780.433> 970 150<600.575 856.084>
VStem: 70 322<282.062 705.836> 915 300<-410 906.597>
LayerCount: 2
Fore
SplineSet
1215 -410 m 1,0,-1
 915 -410 l 1,1,-1
 915 700 l 2,2,3
 915 838 915 838 873 904 c 128,-1,4
 831 970 831 970 749 970 c 0,5,6
 617 970 617 970 516 852 c 0,7,8
 392 705 392 705 392 514 c 0,9,10
 392 322 392 322 474 222 c 0,11,12
 561 117 561 117 688 117 c 0,13,14
 790 117 790 117 875 146 c 1,15,-1
 882 139 l 1,16,17
 856 87 856 87 811 47 c 0,18,19
 736 -20 736 -20 607 -20 c 0,20,21
 361 -20 361 -20 201 142 c 0,22,23
 70 275 70 275 70 480 c 0,24,25
 70 738 70 738 272.5 929 c 128,-1,26
 475 1120 475 1120 767 1120 c 0,27,28
 982 1120 982 1120 1098 1010 c 0,29,30
 1215 900 1215 900 1215 705 c 2,31,-1
 1215 -410 l 1,0,-1
EndSplineSet
Validated: 1
EndChar

StartChar: r
Encoding: 114 114 84
Width: 1234
GlyphClass: 2
Flags: W
HStem: 0 21G<170 470> 950 170<671.017 902.472> 1080 20G<170 470>
VStem: 170 300<0 746.595 921 1100>
LayerCount: 2
Fore
SplineSet
170 0 m 1,0,-1
 170 1100 l 1,1,-1
 470 1100 l 1,2,-1
 470 921 l 1,3,4
 636 1120 636 1120 890 1120 c 0,5,6
 1054 1120 1054 1120 1153 1024 c 0,7,8
 1204 975 1204 975 1229 904 c 1,9,-1
 952 747 l 1,10,11
 952 838 952 838 919 887 c 0,12,13
 876 950 876 950 800 950 c 0,14,15
 656 950 656 950 556 815 c 0,16,17
 470 700 470 700 470 538 c 2,18,-1
 470 0 l 1,19,-1
 170 0 l 1,0,-1
EndSplineSet
Validated: 1
EndChar

StartChar: s
Encoding: 115 115 85
Width: 1086
GlyphClass: 2
Flags: W
HStem: -20 152<371.129 658.24> 968 152<513.177 723.571>
VStem: 207 273<715.5 939.747> 729 287<200.705 399.517>
DStem2: 810 673 398 538 0.910496 -0.413517<-379.683 60.2033>
LayerCount: 2
Fore
SplineSet
527 -20 m 0,0,1
 247 -20 247 -20 70 180 c 1,2,-1
 286 293 l 1,3,4
 351 132 351 132 516 132 c 0,5,6
 620 132 620 132 682 196 c 0,7,8
 729 244 729 244 729 311 c 0,9,10
 729 388 729 388 638 429 c 2,11,-1
 398 538 l 2,12,13
 207 625 207 625 207 806 c 0,14,15
 207 941 207 941 325 1032 c 0,16,17
 440 1120 440 1120 623 1120 c 0,18,19
 833 1120 833 1120 940 987 c 1,20,-1
 768 866 l 1,21,22
 713 968 713 968 619 968 c 0,23,24
 556 968 556 968 520 940 c 0,25,26
 480 908 480 908 480 866 c 0,27,28
 480 822 480 822 576 779 c 2,29,-1
 810 673 l 2,30,31
 1016 580 1016 580 1016 372 c 0,32,33
 1016 190 1016 190 860 76 c 0,34,35
 728 -20 728 -20 527 -20 c 0,0,1
EndSplineSet
Validated: 1
EndChar

StartChar: t
Encoding: 116 116 86
Width: 780
GlyphClass: 2
Flags: W
HStem: -20 150<509.722 630> 950 150<30 170 470 770> 1490 20G<170 470>
VStem: 170 300<167.963 950 1100 1510>
LayerCount: 2
Fore
SplineSet
630 -20 m 1,0,1
 170 -20 170 -20 170 276 c 2,2,-1
 170 950 l 1,3,-1
 30 950 l 1,4,-1
 30 1100 l 1,5,-1
 170 1100 l 1,6,-1
 170 1510 l 1,7,-1
 470 1510 l 1,8,-1
 470 1100 l 1,9,-1
 770 1100 l 1,10,-1
 770 950 l 1,11,-1
 470 950 l 1,12,-1
 470 280 l 2,13,14
 470 130 470 130 630 130 c 1,15,-1
 630 -20 l 1,0,1
EndSplineSet
Validated: 1
EndChar

StartChar: u
Encoding: 117 117 87
Width: 1422
GlyphClass: 2
Flags: W
HStem: -20 170<519.468 750.983> 0 21G<952 1252> 1080 20G<170 470 952 1252>
VStem: 170 300<214.542 1100> 952 300<0 179 353.405 1100>
LayerCount: 2
Fore
SplineSet
1252 0 m 1,0,-1
 952 0 l 1,1,-1
 952 179 l 1,2,3
 786 -20 786 -20 532 -20 c 0,4,5
 366 -20 366 -20 269 76 c 0,6,7
 170 172 170 172 170 348 c 2,8,-1
 170 1100 l 1,9,-1
 470 1100 l 1,10,-1
 470 353 l 2,11,12
 470 262 470 262 503 213 c 0,13,14
 546 150 546 150 622 150 c 0,15,16
 766 150 766 150 866 285 c 0,17,18
 952 400 952 400 952 562 c 2,19,-1
 952 1100 l 1,20,-1
 1252 1100 l 1,21,-1
 1252 0 l 1,0,-1
EndSplineSet
Validated: 1
EndChar

StartChar: v
Encoding: 118 118 88
Width: 1348
GlyphClass: 2
Flags: W
HStem: 0 21G<513.582 833.436> 1080 20G<5 345.438 1167.54 1343>
DStem2: 336 1100 5 1100 0.426035 -0.904707<0 984.124> 756 210 824 0 0.426707 0.90439<0 984.551>
LayerCount: 2
Fore
SplineSet
523 0 m 1,0,-1
 5 1100 l 1,1,-1
 336 1100 l 1,2,-1
 756 210 l 1,3,-1
 1177 1100 l 1,4,-1
 1343 1100 l 1,5,-1
 824 0 l 1,6,-1
 523 0 l 1,0,-1
EndSplineSet
Validated: 1
EndChar

StartChar: w
Encoding: 119 119 89
Width: 2052
GlyphClass: 2
Flags: W
HStem: -20 170<512.705 742.451 1265.62 1514.06> 1080 20G<170 470 922 1222 1391 1817.5>
VStem: 170 300<202.544 1100> 922 300<351.823 1100> 1704 278<391.051 809.006>
LayerCount: 2
Fore
SplineSet
553 -20 m 0,0,1
 373 -20 373 -20 270 80 c 0,2,3
 170 177 170 177 170 348 c 2,4,-1
 170 1100 l 1,5,-1
 470 1100 l 1,6,-1
 470 353 l 2,7,8
 470 250 470 250 506 201 c 0,9,10
 544 150 544 150 611 150 c 0,11,12
 710 150 710 150 804 246 c 0,13,14
 922 367 922 367 922 562 c 2,15,-1
 922 1100 l 1,16,-1
 1222 1100 l 1,17,-1
 1222 353 l 2,18,19
 1222 251 1222 251 1259 201 c 0,20,21
 1297 150 1297 150 1368 150 c 0,22,23
 1506 150 1506 150 1606 282 c 0,24,25
 1704 413 1704 413 1704 586 c 0,26,27
 1704 740 1704 740 1632 864 c 0,28,29
 1553 1001 1553 1001 1391 1100 c 1,30,-1
 1765 1100 l 1,31,32
 1870 1012 1870 1012 1926 892 c 128,-1,33
 1982 772 1982 772 1982 619 c 0,34,35
 1982 360 1982 360 1779 170 c 128,-1,36
 1576 -20 1576 -20 1303 -20 c 0,37,38
 1108 -20 1108 -20 1017 87 c 0,39,40
 981 130 981 130 958 197 c 1,41,42
 795 -20 795 -20 553 -20 c 0,0,1
EndSplineSet
Validated: 1
EndChar

StartChar: x
Encoding: 120 120 90
Width: 1185
GlyphClass: 2
Flags: W
HStem: 0 21G<5 228.042 821.868 1180> 1080 20G<5 364.119 956.91 1180>
VStem: 5 344<756 1100> 5 205<0 205> 837 343<0 343> 975 205<895 1100>
DStem2: 349 1100 5 1100 0.603243 -0.797557<0 472.603 697.691 1171.7> 5 0 210 0 0.661396 0.750037<135.586 644.636 958.295 1466.59>
LayerCount: 2
Fore
SplineSet
5 0 m 1,0,-1
 458 501 l 1,1,-1
 5 1100 l 1,2,-1
 349 1100 l 1,3,-1
 634 723 l 1,4,-1
 975 1100 l 1,5,-1
 1180 1100 l 1,6,-1
 727 599 l 1,7,-1
 1180 0 l 1,8,-1
 837 0 l 1,9,-1
 551 378 l 1,10,-1
 210 0 l 1,11,-1
 5 0 l 1,0,-1
EndSplineSet
Validated: 1
EndChar

StartChar: y
Encoding: 121 121 91
Width: 1422
GlyphClass: 2
Flags: W
HStem: -430 150<430.415 733.502> -20 170<519.528 749.987> 1080 20G<170 470 952 1252>
VStem: 170 300<214.542 1100> 952 300<353.405 1100>
LayerCount: 2
Fore
SplineSet
532 -20 m 0,0,1
 368 -20 368 -20 269 76 c 128,-1,2
 170 172 170 172 170 348 c 2,3,-1
 170 1100 l 1,4,-1
 470 1100 l 1,5,-1
 470 353 l 2,6,7
 470 262 470 262 503 213 c 0,8,9
 546 150 546 150 622 150 c 0,10,11
 766 150 766 150 866 285 c 0,12,13
 952 400 952 400 952 562 c 2,14,-1
 952 1100 l 1,15,-1
 1252 1100 l 1,16,-1
 1252 267 l 2,17,18
 1252 -47 1252 -47 1048 -240 c 0,19,20
 848 -430 848 -430 545 -430 c 0,21,22
 384 -430 384 -430 236 -355 c 1,23,-1
 371 -174 l 1,24,25
 445 -280 445 -280 563 -280 c 0,26,27
 754 -280 754 -280 866 -105 c 0,28,29
 939 9 939 9 952 180 c 1,30,31
 782 -20 782 -20 532 -20 c 0,0,1
EndSplineSet
Validated: 1
EndChar

StartChar: z
Encoding: 122 122 92
Width: 1230
GlyphClass: 2
Flags: W
HStem: 0 150<497 1100> 950 150<148 794>
LayerCount: 2
Fore
SplineSet
40 0 m 1,0,-1
 41 150 l 1,1,2
 794 574 794 574 794 950 c 1,3,-1
 148 950 l 1,4,-1
 148 1100 l 1,5,-1
 1100 1100 l 1,6,7
 1100 534 1100 534 497 150 c 1,8,-1
 1100 150 l 1,9,-1
 1100 0 l 1,10,-1
 40 0 l 1,0,-1
EndSplineSet
Validated: 1
EndChar

StartChar: braceleft
Encoding: 123 123 93
Width: 898
GlyphClass: 2
Flags: W
HStem: -250 170<698.811 878> 669 171<20 256> 1590 170<698.811 878>
VStem: 256 315<38.9294 669 840 1471.07>
LayerCount: 2
Fore
SplineSet
878 -250 m 1,0,1
 256 -250 256 -250 256 205 c 2,2,-1
 256 669 l 1,3,-1
 20 669 l 1,4,-1
 20 840 l 1,5,-1
 256 840 l 1,6,-1
 256 1305 l 2,7,8
 256 1760 256 1760 878 1760 c 1,9,-1
 878 1590 l 1,10,11
 571 1590 571 1590 571 1304 c 2,12,-1
 571 206 l 2,13,14
 571 -80 571 -80 878 -80 c 1,15,-1
 878 -250 l 1,0,1
EndSplineSet
Validated: 1
EndChar

StartChar: bar
Encoding: 124 124 94
Width: 740
GlyphClass: 2
Flags: W
VStem: 220 300<-130 1640>
LayerCount: 2
Fore
SplineSet
220 -130 m 1,0,-1
 220 1640 l 1,1,-1
 520 1640 l 1,2,-1
 520 -130 l 1,3,-1
 220 -130 l 1,0,-1
EndSplineSet
Validated: 1
EndChar

StartChar: braceright
Encoding: 125 125 95
Width: 898
GlyphClass: 2
Flags: W
HStem: -250 170<20 199.189> 669 171<642 878> 1590 170<20 199.189>
VStem: 327 315<38.9294 669 840 1471.07>
LayerCount: 2
Fore
SplineSet
20 -250 m 1,0,1
 20 -80 l 1,2,3
 327 -80 327 -80 327 206 c 2,4,-1
 327 1304 l 2,5,6
 327 1590 327 1590 20 1590 c 1,7,-1
 20 1760 l 1,8,9
 642 1760 642 1760 642 1305 c 2,10,-1
 642 840 l 1,11,-1
 878 840 l 1,12,-1
 878 669 l 1,13,-1
 642 669 l 1,14,-1
 642 205 l 2,15,16
 642 -250 642 -250 20 -250 c 1,0,1
EndSplineSet
Validated: 1
EndChar

StartChar: asciitilde
Encoding: 126 126 96
Width: 1242
GlyphClass: 2
Flags: W
HStem: 546 195<743.406 945.183> 747 195<298.239 498.594>
VStem: 120 121<624.958 684.987> 1001 121<801.421 863.042>
DStem2: 596 885 496 704 0.829489 -0.558523<-94.3072 301.323>
LayerCount: 2
Fore
SplineSet
1001 908 m 1,0,-1
 1122 857 l 1,1,2
 1039 546 1039 546 830 546 c 0,3,4
 731 546 731 546 646 603 c 2,5,-1
 496 704 l 2,6,7
 432 747 432 747 388 747 c 0,8,9
 285 747 285 747 241 580 c 1,10,-1
 120 631 l 1,11,12
 203 942 203 942 412 942 c 0,13,14
 511 942 511 942 596 885 c 2,15,-1
 746 784 l 2,16,17
 810 741 810 741 864 741 c 0,18,19
 958 741 958 741 1001 908 c 1,0,-1
EndSplineSet
Validated: 1
EndChar

StartChar: exclamdown
Encoding: 161 161 98
Width: 792
GlyphClass: 2
Flags: W
HStem: -410 21G<215 577> 750 370<277.14 514.86>
VStem: 214 364<812.578 1057.42> 282 228<423.192 650>
LayerCount: 2
Fore
SplineSet
396 1120 m 128,-1,1
 472 1120 472 1120 525 1066 c 128,-1,2
 578 1012 578 1012 578 935 c 128,-1,3
 578 858 578 858 525 804 c 128,-1,4
 472 750 472 750 396 750 c 128,-1,5
 320 750 320 750 267 804 c 128,-1,6
 214 858 214 858 214 935 c 128,-1,7
 214 1012 214 1012 267 1066 c 128,-1,0
 320 1120 320 1120 396 1120 c 128,-1,1
577 -410 m 1,8,-1
 215 -410 l 1,9,-1
 282 650 l 1,10,-1
 510 650 l 1,11,-1
 577 -410 l 1,8,-1
EndSplineSet
Validated: 1
EndChar

StartChar: cent
Encoding: 162 162 99
Width: 1268
GlyphClass: 2
Flags: W
HStem: -20 150<516.928 642> 968 152<792 891.48>
VStem: 70 322<270.814 707.992> 642 150<-120 -20 167 947 1120 1220>
LayerCount: 2
Fore
SplineSet
642 -20 m 1,0,1
 361 -20 361 -20 201 142 c 0,2,3
 70 275 70 275 70 480 c 0,4,5
 70 738 70 738 274 932 c 0,6,7
 427 1077 427 1077 642 1110 c 1,8,-1
 642 1220 l 1,9,-1
 792 1220 l 1,10,-1
 792 1120 l 1,11,12
 1045 1115 1045 1115 1218 942 c 1,13,-1
 972 820 l 1,14,15
 909 952 909 952 792 968 c 1,16,-1
 792 167 l 1,17,18
 844 196 844 196 888 248 c 0,19,20
 952 324 952 324 983 422 c 1,21,-1
 1218 267 l 1,22,23
 1180 216 1180 216 1130 168 c 0,24,25
 990 33 990 33 792 -5 c 1,26,-1
 792 -120 l 1,27,-1
 642 -120 l 1,28,-1
 642 -20 l 1,0,1
642 947 m 1,29,30
 572 918 572 918 516 852 c 0,31,32
 392 706 392 706 392 476 c 0,33,34
 392 329 392 329 460 231 c 0,35,36
 530 131 530 131 642 130 c 1,37,-1
 642 947 l 1,29,30
EndSplineSet
Validated: 1
EndChar

StartChar: sterling
Encoding: 163 163 100
Width: 1256
GlyphClass: 2
Flags: W
HStem: 0 170<70 170 470 1118> 680 150<70 170 470 942> 1380 150<697.967 991.585>
VStem: 170 300<170 680 830 1099.3>
LayerCount: 2
Fore
SplineSet
70 0 m 1,0,-1
 70 170 l 1,1,-1
 170 170 l 1,2,-1
 170 680 l 1,3,-1
 70 680 l 1,4,-1
 70 830 l 1,5,-1
 170 830 l 1,6,7
 170 1147 170 1147 374 1340 c 0,8,9
 574 1530 574 1530 877 1530 c 0,10,11
 1038 1530 1038 1530 1186 1455 c 1,12,-1
 1051 1274 l 1,13,14
 977 1380 977 1380 859 1380 c 0,15,16
 689 1380 689 1380 556 1205 c 0,17,18
 470 1092 470 1092 470 830 c 1,19,-1
 942 830 l 1,20,-1
 942 680 l 1,21,-1
 470 680 l 1,22,-1
 470 170 l 1,23,-1
 1118 170 l 1,24,-1
 1118 0 l 1,25,-1
 70 0 l 1,0,-1
EndSplineSet
Validated: 1
EndChar

StartChar: currency
Encoding: 164 164 101
Width: 1526
GlyphClass: 2
Flags: W
HStem: 185 150<575.682 862.859> 1175 150<663.141 950.318>
VStem: 131 322<476.494 911.066> 1073 322<598.934 1033.51>
DStem2: 268 1398 120 1250 0.707107 -0.707107<0 237.517 1371.86 1609.38> 120 260 268 112 0.707107 0.707107<0 169.551 1439.82 1609.38>
LayerCount: 2
Fore
SplineSet
706 335 m 0,0,1
 849 335 849 335 949 453 c 0,2,3
 1073 600 1073 600 1073 829 c 0,4,5
 1073 976 1073 976 1005 1074 c 0,6,7
 934 1175 934 1175 820 1175 c 0,8,9
 677 1175 677 1175 577 1057 c 0,10,11
 453 910 453 910 453 681 c 0,12,13
 453 534 453 534 521 436 c 0,14,15
 592 335 592 335 706 335 c 0,0,1
268 1398 m 1,16,-1
 445 1222 l 1,17,18
 613 1325 613 1325 838 1325 c 0,19,20
 1000 1325 1000 1325 1124 1264 c 1,21,-1
 1258 1398 l 1,22,-1
 1406 1250 l 1,23,-1
 1290 1134 l 1,24,25
 1395 1008 1395 1008 1395 825 c 0,26,27
 1395 601 1395 601 1241 425 c 1,28,-1
 1406 260 l 1,29,-1
 1258 112 l 1,30,-1
 1081 288 l 1,31,32
 913 185 913 185 688 185 c 0,33,34
 526 185 526 185 402 246 c 1,35,-1
 268 112 l 1,36,-1
 120 260 l 1,37,-1
 236 376 l 1,38,39
 131 502 131 502 131 685 c 0,40,41
 131 909 131 909 285 1085 c 1,42,-1
 120 1250 l 1,43,-1
 268 1398 l 1,16,-1
EndSplineSet
Validated: 1
EndChar

StartChar: yen
Encoding: 165 165 102
Width: 1524
GlyphClass: 2
Flags: W
HStem: 0 21G<588 908> 274 150<265 587 909 1257> 548 150<267 440 1063 1259> 1490 20G<5 364.714 1311.72 1519>
VStem: 588 320<0 274>
DStem2: 354 1510 5 1510 0.472357 -0.881408<0 756.326> 865 698 1063 698 0.489728 0.871876<96.966 932.258>
LayerCount: 2
Fore
SplineSet
588 0 m 1,0,-1
 588 274 l 1,1,-1
 265 274 l 1,2,-1
 265 424 l 1,3,-1
 587 424 l 1,4,-1
 520 548 l 1,5,-1
 267 548 l 1,6,-1
 267 698 l 1,7,-1
 440 698 l 1,8,-1
 5 1510 l 1,9,-1
 354 1510 l 1,10,-1
 789 698 l 1,11,-1
 865 698 l 1,12,-1
 1323 1510 l 1,13,-1
 1519 1510 l 1,14,-1
 1063 698 l 1,15,-1
 1259 698 l 1,16,-1
 1259 548 l 1,17,-1
 978 548 l 1,18,-1
 909 424 l 1,19,-1
 1257 424 l 1,20,-1
 1257 274 l 1,21,-1
 908 274 l 1,22,-1
 908 0 l 1,23,-1
 588 0 l 1,0,-1
EndSplineSet
Validated: 1
EndChar

StartChar: brokenbar
Encoding: 166 166 103
Width: 740
GlyphClass: 2
Flags: W
VStem: 220 300<-130 647 862 1640>
LayerCount: 2
Fore
SplineSet
520 -130 m 1,0,-1
 220 -130 l 1,1,-1
 220 647 l 1,2,-1
 520 647 l 1,3,-1
 520 -130 l 1,0,-1
220 1640 m 1,4,-1
 520 1640 l 1,5,-1
 520 862 l 1,6,-1
 220 862 l 1,7,-1
 220 1640 l 1,4,-1
EndSplineSet
Validated: 1
EndChar

StartChar: section
Encoding: 167 167 104
Width: 1100
GlyphClass: 2
Flags: W
HStem: -20 152<412.429 622.838> 1378 152<477.162 687.571>
VStem: 120 287<689.515 881.37> 171 273<1208.63 1349.75> 656 273<160.253 301.371> 693 287<628.63 820.485>
DStem2: 493 661 329 437 0.910496 -0.413517<-105.137 321.26> 771 1073 367 958 0.910496 -0.413517<-377.953 48.4433>
LayerCount: 2
Fore
SplineSet
513 -20 m 0,0,1
 303 -20 303 -20 196 113 c 1,2,-1
 368 234 l 1,3,4
 423 132 423 132 517 132 c 0,5,6
 581 132 581 132 616 160 c 0,7,8
 656 192 656 192 656 234 c 0,9,10
 656 289 656 289 563 331 c 2,11,-1
 329 437 l 2,12,13
 120 532 120 532 120 728 c 0,14,15
 120 869 120 869 214 970 c 1,16,-1
 427 868 l 1,17,18
 407 833 407 833 407 789 c 0,19,20
 407 700 407 700 493 661 c 2,21,-1
 733 552 l 2,22,23
 929 463 929 463 929 294 c 0,24,25
 929 159 929 159 811 68 c 0,26,27
 696 -20 696 -20 513 -20 c 0,0,1
587 1530 m 0,28,29
 797 1530 797 1530 904 1397 c 1,30,-1
 732 1276 l 1,31,32
 677 1378 677 1378 583 1378 c 0,33,34
 519 1378 519 1378 484 1350 c 0,35,36
 444 1318 444 1318 444 1276 c 0,37,38
 444 1221 444 1221 537 1179 c 2,39,-1
 771 1073 l 2,40,41
 980 978 980 978 980 782 c 0,42,43
 980 641 980 641 886 540 c 1,44,-1
 673 642 l 1,45,46
 693 677 693 677 693 721 c 0,47,48
 693 810 693 810 607 849 c 2,49,-1
 367 958 l 2,50,51
 171 1047 171 1047 171 1216 c 0,52,53
 171 1351 171 1351 289 1442 c 0,54,55
 404 1530 404 1530 587 1530 c 0,28,29
EndSplineSet
Validated: 1
EndChar

StartChar: dieresis
Encoding: 168 168 105
Width: 654
GlyphClass: 2
Flags: W
HStem: 1190 282<61.2546 256.745 396.285 591.715>
VStem: 20 278<1232.29 1429.71> 354 280<1232.29 1429.71>
LayerCount: 2
Fore
SplineSet
494 1472 m 128,-1,1
 552 1472 552 1472 593 1431 c 128,-1,2
 634 1390 634 1390 634 1331 c 128,-1,3
 634 1272 634 1272 593 1231 c 128,-1,4
 552 1190 552 1190 494 1190 c 128,-1,5
 436 1190 436 1190 395 1231 c 128,-1,6
 354 1272 354 1272 354 1331 c 128,-1,7
 354 1390 354 1390 395 1431 c 128,-1,0
 436 1472 436 1472 494 1472 c 128,-1,1
159 1472 m 128,-1,9
 218 1472 218 1472 258 1431 c 128,-1,10
 298 1390 298 1390 298 1331 c 128,-1,11
 298 1272 298 1272 258 1231 c 128,-1,12
 218 1190 218 1190 159 1190 c 128,-1,13
 100 1190 100 1190 60 1231 c 128,-1,14
 20 1272 20 1272 20 1331 c 128,-1,15
 20 1390 20 1390 60 1431 c 128,-1,8
 100 1472 100 1472 159 1472 c 128,-1,9
EndSplineSet
Validated: 1
EndChar

StartChar: copyright
Encoding: 169 169 106
Width: 1341
GlyphClass: 2
Flags: W
HStem: 386 55<504.73 827.893> 567 94<541.625 781.614> 1255 93<581.62 823.497> 1475 55<512.972 828.032>
VStem: 120 60<779.952 1138.53> 242 210<756.736 1100.8> 1160 61<771.255 1146.12>
LayerCount: 2
Fore
SplineSet
724 1348 m 0,0,1
 924 1348 924 1348 1033 1240 c 0,2,3
 1039 1234 1039 1234 1045 1227 c 1,4,-1
 876 1145 l 1,5,6
 866 1165 866 1165 852 1181 c 0,7,8
 794 1255 794 1255 706 1255 c 128,-1,9
 618 1255 618 1255 551 1182 c 0,10,11
 452 1074 452 1074 452 917 c 0,12,13
 452 810 452 810 511 735.5 c 128,-1,14
 570 661 570 661 658 661 c 128,-1,15
 746 661 746 661 812 733 c 0,16,17
 863 789 863 789 888 858 c 1,18,-1
 1042 755 l 1,19,20
 1014 717 1014 717 976 684 c 0,21,22
 842 567 842 567 638 567 c 0,23,24
 436 567 436 567 330 675 c 0,25,26
 242 765 242 765 242 905 c 0,27,28
 242 1101 242 1101 387 1231 c 1,29,30
 522 1348 522 1348 724 1348 c 0,0,1
671 1530 m 0,31,32
 913 1530 913 1530 1069 1357 c 0,33,34
 1221 1188 1221 1188 1221 953 c 0,35,36
 1221 701 1221 701 1060 549 c 0,37,38
 889 386 889 386 669 386 c 0,39,40
 446 386 446 386 281 549 c 0,41,42
 120 708 120 708 120 953 c 0,43,44
 120 1197 120 1197 278 1362 c 0,45,46
 439 1530 439 1530 671 1530 c 0,31,32
669 1475 m 0,47,48
 473 1475 473 1475 327 1330 c 0,49,50
 180 1184 180 1184 180 953 c 0,51,52
 180 751 180 751 324 591 c 0,53,54
 459 441 459 441 671 441 c 0,55,56
 868 441 868 441 1017 591 c 0,57,58
 1160 736 1160 736 1160 953 c 0,59,60
 1160 1188 1160 1188 1019 1327 c 0,61,62
 869 1475 869 1475 669 1475 c 0,47,48
EndSplineSet
Validated: 1
EndChar

StartChar: ordfeminine
Encoding: 170 170 107
Width: 652
VWidth: 1299
GlyphClass: 2
Flags: W
HStem: 733 170<20 632> 969 74<265.712 400.708> 1464 86<293.007 428.3>
VStem: 20 201<1088.68 1383.83> 442 190<979 1425.09>
LayerCount: 2
Fore
SplineSet
388 1550 m 0,0,1
 510 1550 510 1550 571 1491.5 c 128,-1,2
 632 1433 632 1433 632 1338 c 2,3,-1
 632 979 l 1,4,-1
 442 979 l 1,5,-1
 442 1334 l 2,6,7
 442 1397 442 1397 429 1426 c 0,8,9
 412 1464 412 1464 375 1464 c 0,10,11
 329 1464 329 1464 285 1413 c 0,12,13
 221 1339 221 1339 221 1236 c 0,14,15
 221 1141 221 1141 255.5 1092 c 128,-1,16
 290 1043 290 1043 352 1043 c 0,17,18
 389 1043 389 1043 420 1060 c 1,19,-1
 429 1055 l 1,20,21
 401 969 401 969 307 969 c 0,22,23
 170 969 170 969 94 1046 c 0,24,25
 20 1122 20 1122 20 1238 c 0,26,27
 20 1357 20 1357 121 1451 c 0,28,29
 227 1550 227 1550 388 1550 c 0,0,1
20 903 m 1,30,-1
 632 903 l 1,31,-1
 632 733 l 1,32,-1
 20 733 l 1,33,-1
 20 903 l 1,30,-1
EndSplineSet
Validated: 1
EndChar

StartChar: guillemotleft
Encoding: 171 171 108
Width: 1238
GlyphClass: 2
Flags: W
HStem: 205 267<363 630 801 1068> 1135 173<457 630 895 1068>
DStem2: 120 855 252 806 0.747652 0.664091<66.1496 567.248> 252 806 120 655 0.749838 -0.661622<0.92627 504.42> 558 855 690 806 0.747652 0.664091<66.1496 567.248> 690 806 558 655 0.749838 -0.661622<0.92627 504.42>
LayerCount: 2
Fore
SplineSet
558 855 m 1,0,-1
 1068 1308 l 1,1,-1
 1068 1135 l 1,2,-1
 690 806 l 1,3,-1
 1068 472 l 1,4,-1
 1068 205 l 1,5,-1
 558 655 l 1,6,-1
 558 855 l 1,0,-1
120 855 m 1,7,-1
 630 1308 l 1,8,-1
 630 1135 l 1,9,-1
 252 806 l 1,10,-1
 630 472 l 1,11,-1
 630 205 l 1,12,-1
 120 655 l 1,13,-1
 120 855 l 1,7,-1
EndSplineSet
Validated: 1
EndChar

StartChar: logicalnot
Encoding: 172 172 109
Width: 1240
GlyphClass: 2
Flags: W
HStem: 655 200<120 930>
VStem: 930 190<397 655>
LayerCount: 2
Fore
SplineSet
120 855 m 1,0,-1
 1120 855 l 1,1,-1
 1120 397 l 1,2,-1
 930 397 l 1,3,-1
 930 655 l 1,4,-1
 120 655 l 1,5,-1
 120 855 l 1,0,-1
EndSplineSet
Validated: 1
EndChar

StartChar: uni00AD
Encoding: 173 173 110
Width: 1240
GlyphClass: 2
Flags: W
HStem: 655 200<120 1120>
LayerCount: 2
Fore
SplineSet
120 855 m 1,0,-1
 1120 855 l 1,1,-1
 1120 655 l 1,2,-1
 120 655 l 1,3,-1
 120 855 l 1,0,-1
EndSplineSet
Validated: 1
EndChar

StartChar: registered
Encoding: 174 174 111
Width: 1341
GlyphClass: 2
Flags: W
HStem: 386 55<505.64 827.094> 1250 102<579.339 775.584> 1475 55<511.548 828.032>
VStem: 120 60<780.988 1139.44> 311 200<606 1174.91 1245 1313> 818 210<930.702 1206.45> 1160 61<771.988 1146.12>
LayerCount: 2
Fore
SplineSet
671 1530 m 0,0,1
 913 1530 913 1530 1069 1357 c 0,2,3
 1221 1188 1221 1188 1221 953 c 0,4,5
 1221 701 1221 701 1060 549 c 0,6,7
 889 386 889 386 669 386 c 0,8,9
 446 386 446 386 281 549 c 0,10,11
 120 708 120 708 120 953 c 0,12,13
 120 1197 120 1197 278 1362 c 0,14,15
 439 1530 439 1530 671 1530 c 0,0,1
337 577 m 1,16,17
 469 441 469 441 671 441 c 0,18,19
 859 441 859 441 1003 577 c 1,20,-1
 799 577 l 1,21,-1
 531 831 l 1,22,-1
 537 841 l 1,23,24
 582 829 582 829 615 829 c 0,25,26
 695 829 695 829 749 885 c 0,27,28
 818 959 818 959 818 1055 c 0,29,30
 818 1155 818 1155 777 1206 c 0,31,32
 742 1250 742 1250 683 1250 c 0,33,34
 610 1250 610 1250 565 1189 c 0,35,36
 511 1115 511 1115 511 1016 c 2,37,-1
 511 577 l 1,38,-1
 337 577 l 1,16,17
1036 612 m 1,39,40
 1160 752 1160 752 1160 953 c 0,41,42
 1160 1188 1160 1188 1019 1327 c 0,43,44
 869 1475 869 1475 669 1475 c 0,45,46
 483 1475 483 1475 342 1344 c 1,47,-1
 511 1344 l 1,48,-1
 511 1245 l 1,49,50
 592 1352 592 1352 735 1352 c 0,51,52
 868 1352 868 1352 948 1279.5 c 128,-1,53
 1028 1207 1028 1207 1028 1095 c 0,54,55
 1028 898 1028 898 824 793 c 1,56,-1
 1036 612 l 1,39,40
311 1313 m 1,57,58
 180 1171 180 1171 180 953 c 0,59,60
 180 760 180 760 311 606 c 1,61,-1
 311 1313 l 1,57,58
EndSplineSet
Validated: 1
EndChar

StartChar: macron
Encoding: 175 175 112
Width: 680
GlyphClass: 2
Flags: W
HStem: 1255 170<20 660>
VStem: 20 640<1255 1425>
LayerCount: 2
Fore
SplineSet
20 1425 m 1,0,-1
 660 1425 l 1,1,-1
 660 1255 l 1,2,-1
 20 1255 l 1,3,-1
 20 1425 l 1,0,-1
EndSplineSet
Validated: 1
EndChar

StartChar: degree
Encoding: 176 176 113
Width: 791
GlyphClass: 2
Flags: W
HStem: 876 118<285.162 477.175> 1434 116<314.825 507.088>
VStem: 20 219<1046.17 1349.05> 553 218<1076.92 1382.75>
LayerCount: 2
Fore
SplineSet
419 1434 m 0,0,1
 343 1434 343 1434 294 1367 c 0,2,3
 239 1293 239 1293 239 1189 c 0,4,5
 239 1100 239 1100 274 1051 c 0,6,7
 313 994 313 994 373 994 c 0,8,9
 449 994 449 994 498 1061 c 0,10,11
 553 1135 553 1135 553 1239 c 0,12,13
 553 1328 553 1328 518 1377 c 0,14,15
 478 1434 478 1434 419 1434 c 0,0,1
429 1550 m 0,16,17
 604 1550 604 1550 696 1452 c 0,18,19
 771 1371 771 1371 771 1237 c 0,20,21
 771 1100 771 1100 656 990 c 0,22,23
 536 876 536 876 363 876 c 128,-1,24
 190 876 190 876 96 975 c 0,25,26
 20 1055 20 1055 20 1191.5 c 128,-1,27
 20 1328 20 1328 136 1437 c 0,28,29
 256 1550 256 1550 429 1550 c 0,16,17
EndSplineSet
Validated: 1
EndChar

StartChar: plusminus
Encoding: 177 177 114
Width: 1241
GlyphClass: 2
Flags: W
HStem: 149 200<120 1120> 797 200<121 521 721 1121>
VStem: 521 200<397 797 997 1397>
LayerCount: 2
Fore
SplineSet
521 1397 m 1,0,-1
 721 1397 l 1,1,-1
 721 997 l 1,2,-1
 1121 997 l 1,3,-1
 1121 797 l 1,4,-1
 721 797 l 1,5,-1
 721 397 l 1,6,-1
 521 397 l 1,7,-1
 521 797 l 1,8,-1
 121 797 l 1,9,-1
 121 997 l 1,10,-1
 521 997 l 1,11,-1
 521 1397 l 1,0,-1
120 349 m 1,12,-1
 1120 349 l 1,13,-1
 1120 149 l 1,14,-1
 120 149 l 1,15,-1
 120 349 l 1,12,-1
EndSplineSet
Validated: 1
EndChar

StartChar: uni00B2
Encoding: 178 178 115
Width: 677
VWidth: 1406
GlyphClass: 2
Flags: W
HStem: 783 97<244 657> 1463 97<241.477 411.542>
VStem: 442 215<1177.54 1430.81>
LayerCount: 2
Fore
SplineSet
359 1560 m 0,0,1
 501 1560 501 1560 577 1488 c 0,2,3
 651 1418 651 1418 651 1310 c 0,4,5
 651 1199 651 1199 569 1111 c 0,6,7
 463 997 463 997 244 880 c 1,8,-1
 657 880 l 1,9,-1
 657 783 l 1,10,-1
 20 783 l 1,11,-1
 20 876 l 1,12,13
 245 1004 245 1004 377 1152 c 0,14,15
 442 1225 442 1225 442 1324 c 0,16,17
 442 1382 442 1382 410 1425 c 0,18,19
 382 1463 382 1463 330 1463 c 0,20,21
 230 1463 230 1463 174 1285 c 1,22,-1
 27 1361 l 1,23,24
 43 1393 43 1393 71 1429 c 0,25,26
 175 1560 175 1560 359 1560 c 0,0,1
EndSplineSet
Validated: 1
EndChar

StartChar: uni00B3
Encoding: 179 179 116
Width: 717
VWidth: 1401
GlyphClass: 2
Flags: W
HStem: 771 95<222.33 425.423> 1217 99<295 398.175> 1463 92<302.27 430.558>
VStem: 431 185<1334.84 1462.49> 484 213<932.642 1186.84>
LayerCount: 2
Fore
SplineSet
425 1555 m 0,0,1
 515 1555 515 1555 570 1508 c 0,2,3
 616 1469 616 1469 616 1410 c 0,4,5
 616 1332 616 1332 538 1287 c 1,6,7
 697 1240 697 1240 697 1090 c 0,8,9
 697 952 697 952 589 861 c 0,10,11
 479 771 479 771 331 771 c 0,12,13
 140 771 140 771 20 901 c 1,14,-1
 174 984 l 1,15,16
 222 866 222 866 331 866 c 0,17,18
 391 866 391 866 439 924 c 0,19,20
 484 979 484 979 484 1069 c 0,21,22
 484 1142 484 1142 455 1180 c 0,23,24
 427 1217 427 1217 375 1217 c 0,25,26
 344 1217 344 1217 295 1206 c 1,27,-1
 295 1316 l 1,28,29
 373 1316 373 1316 399 1338 c 0,30,31
 431 1365 431 1365 431 1409 c 0,32,33
 431 1463 431 1463 377 1463 c 0,34,35
 344 1463 344 1463 321 1442 c 0,36,37
 293 1416 293 1416 281 1371 c 1,38,-1
 165 1439 l 1,39,40
 261 1555 261 1555 425 1555 c 0,0,1
EndSplineSet
Validated: 1
EndChar

StartChar: uni00B5
Encoding: 181 181 117
Width: 1422
GlyphClass: 2
Flags: W
HStem: -410 21G<170 470> -20 170<517.177 750.983> 0 21G<952 1252> 1080 20G<170 470 952 1252>
VStem: 170 300<-410 -16 214.542 1100> 952 300<0 179 353.405 1100>
LayerCount: 2
Fore
SplineSet
1252 0 m 1,0,-1
 952 0 l 1,1,-1
 952 179 l 1,2,3
 786 -20 786 -20 532 -20 c 0,4,5
 500 -20 500 -20 470 -16 c 1,6,-1
 470 -410 l 1,7,-1
 170 -410 l 1,8,-1
 170 1100 l 1,9,-1
 470 1100 l 1,10,-1
 470 353 l 2,11,12
 470 262 470 262 503 213 c 0,13,14
 546 150 546 150 622 150 c 0,15,16
 766 150 766 150 866 285 c 0,17,18
 952 400 952 400 952 562 c 2,19,-1
 952 1100 l 1,20,-1
 1252 1100 l 1,21,-1
 1252 0 l 1,0,-1
EndSplineSet
Validated: 1
EndChar

StartChar: paragraph
Encoding: 182 182 118
Width: 1175
GlyphClass: 2
Flags: W
HStem: 0 21G<685 790 900 1005> 654 856<398.823 682.218> 1424 86<790 900>
VStem: 120 670<831.5 1223.93> 685 105<0 688> 900 105<0 1424>
LayerCount: 2
Fore
SplineSet
1005 0 m 1,0,-1
 900 0 l 1,1,-1
 900 1424 l 1,2,-1
 790 1424 l 1,3,-1
 790 0 l 1,4,-1
 685 0 l 1,5,-1
 685 688 l 1,6,7
 596 654 596 654 503 654 c 0,8,9
 305 654 305 654 198 782 c 0,10,11
 120 876 120 876 120 1010 c 0,12,13
 120 1222 120 1222 267 1374 c 0,14,15
 399 1510 399 1510 613 1510 c 0,16,17
 650 1510 650 1510 685 1505 c 1,18,-1
 685 1510 l 1,19,-1
 1005 1510 l 1,20,-1
 1005 0 l 1,0,-1
EndSplineSet
Validated: 1
EndChar

StartChar: periodcentered
Encoding: 183 183 119
Width: 404
GlyphClass: 2
Flags: W
HStem: 570 370<83.1396 320.86>
VStem: 20 364<632.578 877.422>
LayerCount: 2
Fore
SplineSet
202 940 m 128,-1,1
 278 940 278 940 331 886 c 128,-1,2
 384 832 384 832 384 755 c 128,-1,3
 384 678 384 678 331 624 c 128,-1,4
 278 570 278 570 202 570 c 128,-1,5
 126 570 126 570 73 624 c 128,-1,6
 20 678 20 678 20 755 c 128,-1,7
 20 832 20 832 73 886 c 128,-1,0
 126 940 126 940 202 940 c 128,-1,1
EndSplineSet
Validated: 1
EndChar

StartChar: cedilla
Encoding: 184 184 120
Width: 406
GlyphClass: 2
Flags: W
HStem: -430 181<20 162.611> -68 68<72 154.223>
VStem: 72 157<-52.364 0> 184 202<-227.352 -96.1058>
LayerCount: 2
Fore
SplineSet
72 0 m 1,0,-1
 229 0 l 1,1,-1
 229 -40 l 1,2,3
 386 -77 386 -77 386 -213 c 0,4,5
 386 -430 386 -430 20 -430 c 1,6,-1
 20 -249 l 1,7,8
 184 -249 184 -249 184 -161 c 0,9,10
 184 -91 184 -91 72 -68 c 1,11,-1
 72 0 l 1,0,-1
EndSplineSet
Validated: 1
EndChar

StartChar: uni00B9
Encoding: 185 185 121
Width: 396
VWidth: 1401
GlyphClass: 2
Flags: W
HStem: 1455 95<20 126>
VStem: 126 200<785 1455>
LayerCount: 2
Fore
SplineSet
20 1550 m 1,0,-1
 326 1550 l 1,1,-1
 326 785 l 1,2,-1
 126 785 l 1,3,-1
 126 1455 l 1,4,-1
 20 1455 l 1,5,-1
 20 1550 l 1,0,-1
EndSplineSet
Validated: 1
EndChar

StartChar: ordmasculine
Encoding: 186 186 122
Width: 710
VWidth: 1299
GlyphClass: 2
Flags: W
HStem: 733 170<20 690> 971 86<255.829 427.2> 1464 86<288.116 455.394>
VStem: 20 200<1100.02 1385.04> 489 201<1135.19 1426.5>
LayerCount: 2
Fore
SplineSet
20 903 m 1,0,-1
 690 903 l 1,1,-1
 690 733 l 1,2,-1
 20 733 l 1,3,-1
 20 903 l 1,0,-1
376 1464 m 0,4,5
 324 1464 324 1464 280 1413 c 0,6,7
 220 1343 220 1343 220 1230 c 0,8,9
 220 1151 220 1151 249 1108 c 0,10,11
 282 1057 282 1057 340 1057 c 0,12,13
 391 1057 391 1057 436 1109 c 0,14,15
 489 1172 489 1172 489 1296 c 0,16,17
 489 1369 489 1369 458 1419 c 0,18,19
 430 1464 430 1464 376 1464 c 0,4,5
386 1550 m 0,20,21
 531 1550 531 1550 613 1474 c 0,22,23
 690 1403 690 1403 690 1285 c 0,24,25
 690 1161 690 1161 588 1068 c 0,26,27
 481 971 481 971 326 971 c 0,28,29
 178 971 178 971 98 1050 c 0,30,31
 20 1127 20 1127 20 1239 c 0,32,33
 20 1358 20 1358 122 1453 c 0,34,35
 228 1550 228 1550 386 1550 c 0,20,21
EndSplineSet
Validated: 1
EndChar

StartChar: guillemotright
Encoding: 187 187 123
Width: 1238
GlyphClass: 2
Flags: W
HStem: 205 173<170 343 608 781> 1041 267<170 437 608 875>
DStem2: 170 1308 170 1041 0.749838 -0.661622<176.653 680.147> 170 378 170 205 0.747652 0.664091<0 501.098> 608 1308 608 1041 0.749838 -0.661622<176.653 680.147> 608 378 608 205 0.747652 0.664091<0 501.098>
LayerCount: 2
Fore
SplineSet
680 658 m 1,0,-1
 170 205 l 1,1,-1
 170 378 l 1,2,-1
 548 707 l 1,3,-1
 170 1041 l 1,4,-1
 170 1308 l 1,5,-1
 680 858 l 1,6,-1
 680 658 l 1,0,-1
1118 658 m 1,7,-1
 608 205 l 1,8,-1
 608 378 l 1,9,-1
 986 707 l 1,10,-1
 608 1041 l 1,11,-1
 608 1308 l 1,12,-1
 1118 858 l 1,13,-1
 1118 658 l 1,7,-1
EndSplineSet
Validated: 1
EndChar

StartChar: onequarter
Encoding: 188 188 124
Width: 1538
GlyphClass: 2
Flags: W
HStem: 0 21G<169 436.166 1168 1368> 140 95<925 1168> 1417 95<120 226>
VStem: 226 200<747 1417> 1168 200<0 140 235 597>
DStem2: 169 0 425 0 0.487458 0.873146<124.789 1729.38>
LayerCount: 2
Fore
SplineSet
120 1512 m 1,0,-1
 426 1512 l 1,1,-1
 426 747 l 1,2,-1
 226 747 l 1,3,-1
 226 1417 l 1,4,-1
 120 1417 l 1,5,-1
 120 1512 l 1,0,-1
1368 0 m 1,6,-1
 1168 0 l 1,7,-1
 1168 140 l 1,8,-1
 749 140 l 1,9,10
 923 505 923 505 1183 765 c 1,11,-1
 1368 765 l 1,12,-1
 1368 0 l 1,6,-1
1168 597 m 1,13,14
 1025 441 1025 441 925 235 c 1,15,-1
 1168 235 l 1,16,-1
 1168 597 l 1,13,14
169 0 m 1,17,-1
 1012 1510 l 1,18,-1
 1268 1510 l 1,19,-1
 425 0 l 1,20,-1
 169 0 l 1,17,-1
EndSplineSet
Validated: 1
EndChar

StartChar: onehalf
Encoding: 189 189 125
Width: 1660
GlyphClass: 2
Flags: W
HStem: 0 97<1127 1540> 680 97<1124.48 1294.54> 1417 95<120 226>
VStem: 226 200<747 1417> 1325 215<394.541 647.812>
DStem2: 169 0 425 0 0.487458 0.873146<124.789 1729.38>
LayerCount: 2
Fore
SplineSet
1242 777 m 0,0,1
 1384 777 1384 777 1460 705 c 0,2,3
 1534 635 1534 635 1534 527 c 0,4,5
 1534 416 1534 416 1452 328 c 0,6,7
 1346 214 1346 214 1127 97 c 1,8,-1
 1540 97 l 1,9,-1
 1540 0 l 1,10,-1
 903 0 l 1,11,-1
 903 93 l 1,12,13
 1128 221 1128 221 1260 369 c 0,14,15
 1325 442 1325 442 1325 541 c 0,16,17
 1325 599 1325 599 1293 642 c 0,18,19
 1265 680 1265 680 1213 680 c 0,20,21
 1113 680 1113 680 1057 502 c 1,22,-1
 910 578 l 1,23,24
 926 610 926 610 954 646 c 0,25,26
 1058 777 1058 777 1242 777 c 0,0,1
120 1512 m 1,27,-1
 426 1512 l 1,28,-1
 426 747 l 1,29,-1
 226 747 l 1,30,-1
 226 1417 l 1,31,-1
 120 1417 l 1,32,-1
 120 1512 l 1,27,-1
169 0 m 1,33,-1
 1012 1510 l 1,34,-1
 1268 1510 l 1,35,-1
 425 0 l 1,36,-1
 169 0 l 1,33,-1
EndSplineSet
Validated: 1
EndChar

StartChar: threequarters
Encoding: 190 190 126
Width: 1817
GlyphClass: 2
Flags: W
HStem: 0 21G<448 715.166 1447 1647> 140 95<1204 1447> 736 95<322.33 525.423> 1182 99<395 498.175> 1428 92<402.27 530.558>
VStem: 531 185<1299.84 1427.49> 584 213<897.642 1151.84> 1447 200<0 140 235 597>
DStem2: 448 0 704 0 0.487458 0.873146<124.789 1729.38>
LayerCount: 2
Fore
SplineSet
525 1520 m 0,0,1
 615 1520 615 1520 670 1473 c 0,2,3
 716 1434 716 1434 716 1375 c 0,4,5
 716 1297 716 1297 638 1252 c 1,6,7
 797 1205 797 1205 797 1055 c 0,8,9
 797 917 797 917 689 826 c 0,10,11
 579 736 579 736 431 736 c 0,12,13
 240 736 240 736 120 866 c 1,14,-1
 274 949 l 1,15,16
 322 831 322 831 431 831 c 0,17,18
 491 831 491 831 539 889 c 0,19,20
 584 944 584 944 584 1034 c 0,21,22
 584 1107 584 1107 555 1145 c 0,23,24
 527 1182 527 1182 475 1182 c 0,25,26
 444 1182 444 1182 395 1171 c 1,27,-1
 395 1281 l 1,28,29
 473 1281 473 1281 499 1303 c 0,30,31
 531 1330 531 1330 531 1374 c 0,32,33
 531 1428 531 1428 477 1428 c 0,34,35
 444 1428 444 1428 421 1407 c 0,36,37
 393 1381 393 1381 381 1336 c 1,38,-1
 265 1404 l 1,39,40
 361 1520 361 1520 525 1520 c 0,0,1
1647 0 m 1,41,-1
 1447 0 l 1,42,-1
 1447 140 l 1,43,-1
 1028 140 l 1,44,45
 1202 505 1202 505 1462 765 c 1,46,-1
 1647 765 l 1,47,-1
 1647 0 l 1,41,-1
1447 597 m 1,48,49
 1304 441 1304 441 1204 235 c 1,50,-1
 1447 235 l 1,51,-1
 1447 597 l 1,48,49
448 0 m 1,52,-1
 1291 1510 l 1,53,-1
 1547 1510 l 1,54,-1
 704 0 l 1,55,-1
 448 0 l 1,52,-1
EndSplineSet
Validated: 1
EndChar

StartChar: questiondown
Encoding: 191 191 127
Width: 1408
GlyphClass: 2
Flags: W
HStem: -430 170<585.745 873.215> 750 370<630.14 867.86>
VStem: 120 345<-134.256 209.394> 567 364<812.578 1057.42>
LayerCount: 2
Fore
SplineSet
749 1120 m 128,-1,1
 825 1120 825 1120 878 1066 c 128,-1,2
 931 1012 931 1012 931 935 c 128,-1,3
 931 858 931 858 878 804 c 128,-1,4
 825 750 825 750 749 750 c 128,-1,5
 673 750 673 750 620 804 c 128,-1,6
 567 858 567 858 567 935 c 128,-1,7
 567 1012 567 1012 620 1066 c 128,-1,0
 673 1120 673 1120 749 1120 c 128,-1,1
666 -430 m 0,8,9
 405 -430 405 -430 251 -282 c 0,10,11
 120 -156 120 -156 120 35 c 0,12,13
 120 248 120 248 345 437 c 2,14,-1
 599 650 l 1,15,-1
 861 650 l 1,16,-1
 587 326 l 2,17,18
 465 182 465 182 465 34 c 0,19,20
 465 -92 465 -92 539 -175 c 0,21,22
 615 -260 615 -260 725 -260 c 0,23,24
 840 -260 840 -260 939 -166 c 24,25,26
 1021 -87 1021 -87 1065 69 c 1,27,-1
 1288 -48 l 1,28,29
 1250 -116 1250 -116 1201 -178 c 0,30,31
 1000 -430 1000 -430 666 -430 c 0,8,9
EndSplineSet
Validated: 1
EndChar

StartChar: AE
Encoding: 198 198 128
Width: 2362
GlyphClass: 2
Flags: W
HStem: 0 21G<5 201.896 1491.5 1733> 670 170<567 964 1378 1925> 1360 170<1481.05 1868.92> 1490 20G<672.046 1009.96>
DStem2: 5 0 193 0 0.408605 0.912711<76.8177 810.099 996.313 1486.52> 1001 1510 766 1288 0.40894 -0.912561<106.488 220.229 484.678 596.285 920.722 1503.94>
LayerCount: 2
Fore
SplineSet
5 0 m 1,0,-1
 681 1510 l 1,1,-1
 1001 1510 l 1,2,-1
 1091 1309 l 1,3,4
 1348 1530 1348 1530 1713 1530 c 0,5,6
 2086 1530 2086 1530 2312 1298 c 1,7,-1
 2042 1163 l 1,8,9
 1898 1360 1898 1360 1682 1360 c 0,10,11
 1471 1360 1471 1360 1328 1203 c 0,12,13
 1258 1126 1258 1126 1213 1037 c 1,14,-1
 1301 840 l 1,15,-1
 1925 840 l 1,16,-1
 1925 670 l 1,17,-1
 1378 670 l 1,18,-1
 1610 151 l 1,19,20
 1801 162 1801 162 1933 307 c 0,21,22
 2018 400 2018 400 2066 511 c 1,23,-1
 2307 347 l 1,24,25
 2253 275 2253 275 2181 211 c 0,26,27
 1918 -20 1918 -20 1548 -20 c 0,28,29
 1435 -20 1435 -20 1336 0 c 1,30,-1
 1039 670 l 1,31,-1
 491 670 l 1,32,-1
 193 0 l 1,33,-1
 5 0 l 1,0,-1
964 840 m 1,34,-1
 766 1288 l 1,35,-1
 567 840 l 1,36,-1
 964 840 l 1,34,-1
EndSplineSet
Validated: 1
EndChar

StartChar: Eth
Encoding: 208 208 129
Width: 1796
GlyphClass: 2
Flags: W
HStem: -20 138<668.471 979.771> 0 21G<170 490> 32 114<597.959 735.309> 680 150<70 170 490 860> 1360 170<761.871 1134.66> 1490 20G<170 490>
VStem: 170 320<0 680 830 1078.35 1266 1510> 1386 340<576.088 1077.38>
LayerCount: 2
Fore
SplineSet
170 0 m 1,0,-1
 170 680 l 1,1,-1
 70 680 l 1,2,-1
 70 830 l 1,3,-1
 170 830 l 1,4,-1
 170 1510 l 1,5,-1
 490 1510 l 1,6,-1
 490 1266 l 1,7,8
 664 1530 664 1530 1000 1530 c 0,9,10
 1343 1530 1343 1530 1551 1316 c 0,11,12
 1726 1137 1726 1137 1726 859 c 0,13,14
 1726 469 1726 469 1437 211 c 0,15,16
 1178 -20 1178 -20 846 -20 c 0,17,18
 739 -20 739 -20 655 32 c 0,19,20
 589 73 589 73 545 139 c 1,21,-1
 552 146 l 1,22,23
 652 118 652 118 738 118 c 0,24,25
 1014 118 1014 118 1189 306 c 0,26,27
 1386 518 1386 518 1386 835 c 0,28,29
 1386 1057 1386 1057 1267 1207 c 0,30,31
 1146 1360 1146 1360 943 1360 c 0,32,33
 771 1360 771 1360 637 1225 c 0,34,35
 490 1077 490 1077 490 868 c 2,36,-1
 490 830 l 1,37,-1
 860 830 l 1,38,-1
 860 680 l 1,39,-1
 490 680 l 1,40,-1
 490 0 l 1,41,-1
 170 0 l 1,0,-1
EndSplineSet
Validated: 1
EndChar

StartChar: multiply
Encoding: 215 215 130
Width: 1188
GlyphClass: 2
Flags: W
HStem: 614 282<453 735>
VStem: 453 282<614 896>
DStem2: 311 1179 170 1038 0.707107 -0.707107<0 400.222 599.627 999.849> 170 472 311 331 0.707107 0.707107<0 400.222 599.627 999.849>
LayerCount: 2
Fore
SplineSet
311 1179 m 1,0,-1
 594 896 l 1,1,-1
 877 1179 l 1,2,-1
 1018 1038 l 1,3,-1
 735 755 l 1,4,-1
 1018 472 l 1,5,-1
 877 331 l 1,6,-1
 594 614 l 1,7,-1
 311 331 l 1,8,-1
 170 472 l 1,9,-1
 453 755 l 1,10,-1
 170 1038 l 1,11,-1
 311 1179 l 1,0,-1
EndSplineSet
Validated: 1
EndChar

StartChar: Oslash
Encoding: 216 216 131
Width: 1819
GlyphClass: 2
Flags: W
HStem: -20 170<671.05 1060.89> 1360 170<757.694 1147.28>
VStem: 70 340<433.677 936.643> 1409 340<572.643 1076.98>
DStem2: 407 35 536 -40 0.500135 0.865948<0 34.4807 284.042 1467.29 1715.99 1749.1>
LayerCount: 2
Fore
SplineSet
827 -20 m 0,0,1
 685 -20 685 -20 566 11 c 1,2,-1
 536 -40 l 1,3,-1
 407 35 l 1,4,-1
 424 65 l 1,5,6
 324 115 324 115 245 194 c 0,7,8
 70 373 70 373 70 651 c 0,9,10
 70 1041 70 1041 359 1299 c 0,11,12
 619 1530 619 1530 992 1530 c 0,13,14
 1134 1530 1134 1530 1252 1499 c 1,15,-1
 1282 1550 l 1,16,-1
 1411 1475 l 1,17,-1
 1395 1446 l 1,18,19
 1496 1396 1496 1396 1574 1316 c 0,20,21
 1749 1137 1749 1137 1749 859 c 0,22,23
 1749 466 1749 466 1460 211 c 0,24,25
 1197 -20 1197 -20 827 -20 c 0,0,1
858 150 m 0,26,27
 1070 150 1070 150 1212 307 c 0,28,29
 1409 523 1409 523 1409 836 c 0,30,31
 1409 1055 1409 1055 1290 1207 c 0,32,33
 1280 1219 1280 1219 1270 1231 c 1,34,-1
 669 190 l 1,35,36
 752 150 752 150 858 150 c 0,26,27
549 281 m 1,37,-1
 1149 1321 l 1,38,39
 1066 1360 1066 1360 961 1360 c 0,40,41
 750 1360 750 1360 607 1203 c 0,42,43
 410 987 410 987 410 674 c 0,44,45
 410 457 410 457 530 304 c 0,46,47
 539 292 539 292 549 281 c 1,37,-1
EndSplineSet
Validated: 1
EndChar

StartChar: Thorn
Encoding: 222 222 132
Width: 1595
GlyphClass: 2
Flags: W
HStem: 0 21G<170 490> 162 138<668.471 943.601> 214 114<597.959 735.309> 1164 184<747.151 1048.23> 1490 20G<170 490>
VStem: 170 320<0 904.129 1084 1510> 1184 341<587.407 1021.72>
LayerCount: 2
Fore
SplineSet
170 0 m 1,0,-1
 170 1510 l 1,1,-1
 490 1510 l 1,2,-1
 490 1084 l 1,3,4
 664 1348 664 1348 984 1348 c 0,5,6
 1215 1348 1215 1348 1371 1206 c 0,7,8
 1525 1065 1525 1065 1525 840 c 0,9,10
 1525 511 1525 511 1275 311 c 0,11,12
 1089 162 1089 162 846 162 c 0,13,14
 739 162 739 162 655 214 c 0,15,16
 589 255 589 255 545 321 c 1,17,-1
 552 328 l 1,18,19
 652 300 652 300 738 300 c 0,20,21
 933 300 933 300 1045 420 c 0,22,23
 1184 569 1184 569 1184 825 c 0,24,25
 1184 986 1184 986 1102 1075 c 0,26,27
 1021 1164 1021 1164 884 1164 c 0,28,29
 746 1164 746 1164 625 1040 c 0,30,31
 490 902 490 902 490 685 c 2,32,-1
 490 0 l 1,33,-1
 170 0 l 1,0,-1
EndSplineSet
Validated: 1
EndChar

StartChar: germandbls
Encoding: 223 223 133
Width: 1454
GlyphClass: 2
Flags: W
HStem: -20 137<585.648 826.04> 0 21G<170 470> 953 10<634 647.835> 1365 165<648.189 847.472>
VStem: 170 300<0 1125.91> 882 302<1101.02 1341.36> 1050 334<361.652 752.235>
LayerCount: 2
Fore
SplineSet
170 0 m 1,0,-1
 170 883 l 2,1,2
 170 1200 170 1200 374 1379 c 0,3,4
 547 1530 547 1530 800 1530 c 0,5,6
 985 1530 985 1530 1091 1440 c 0,7,8
 1184 1361 1184 1361 1184 1246 c 0,9,10
 1184 1101 1184 1101 1042 1013 c 1,11,12
 1173 971 1173 971 1253 894 c 0,13,14
 1384 768 1384 768 1384 574 c 0,15,16
 1384 375 1384 375 1244 213 c 0,17,18
 1043 -20 1043 -20 741 -20 c 0,19,20
 635 -20 635 -20 572 35 c 0,21,22
 533 69 533 69 503 129 c 1,23,-1
 510 136 l 1,24,25
 585 117 585 117 660 117 c 0,26,27
 831 117 831 117 954 270 c 0,28,29
 1050 389 1050 389 1050 554 c 0,30,31
 1050 708 1050 708 975 800 c 0,32,33
 857 945 857 945 634 953 c 1,34,-1
 634 963 l 1,35,36
 882 1041 882 1041 882 1235 c 0,37,38
 882 1306 882 1306 840 1341 c 0,39,40
 810 1365 810 1365 772 1365 c 0,41,42
 678 1365 678 1365 603 1281 c 24,43,44
 470 1129 470 1129 470 862 c 2,45,-1
 470 0 l 1,46,-1
 170 0 l 1,0,-1
EndSplineSet
Validated: 1
EndChar

StartChar: ae
Encoding: 230 230 134
Width: 1948
GlyphClass: 2
Flags: W
HStem: -20 137<540.605 780.433 1216.77 1461.65> 475 150<1215 1602> 970 150<600.575 855.728 1282.91 1570.29>
VStem: 70 322<282.062 705.836> 915 300<139.693 475 625 848.934>
LayerCount: 2
Fore
SplineSet
915 0 m 1,0,-1
 915 700 l 2,1,2
 915 838 915 838 873 904 c 128,-1,3
 831 970 831 970 749 970 c 0,4,5
 617 970 617 970 516 852 c 0,6,7
 392 705 392 705 392 514 c 0,8,9
 392 322 392 322 474 222 c 0,10,11
 561 117 561 117 688 117 c 0,12,13
 790 117 790 117 875 146 c 1,14,-1
 882 139 l 1,15,16
 856 87 856 87 811 47 c 0,17,18
 736 -20 736 -20 607 -20 c 0,19,20
 361 -20 361 -20 201 142 c 0,21,22
 70 275 70 275 70 480 c 0,23,24
 70 738 70 738 272.5 929 c 128,-1,25
 475 1120 475 1120 767 1120 c 0,26,27
 966 1120 966 1120 1080 1026 c 1,28,29
 1242 1120 1242 1120 1457 1120 c 0,30,31
 1720 1120 1720 1120 1898 942 c 1,32,-1
 1652 820 l 1,33,34
 1580 970 1580 970 1439 970 c 0,35,36
 1297 970 1297 970 1195 851 c 1,37,38
 1215 785 1215 785 1215 705 c 2,39,-1
 1215 625 l 1,40,-1
 1602 625 l 1,41,-1
 1602 475 l 1,42,-1
 1215 475 l 1,43,-1
 1215 159 l 1,44,45
 1264 130 1264 130 1325 130 c 0,46,47
 1468 130 1468 130 1568 248 c 0,48,49
 1632 324 1632 324 1663 422 c 1,50,-1
 1898 267 l 1,51,52
 1860 216 1860 216 1810 168 c 0,53,54
 1614 -20 1614 -20 1307 -20 c 0,55,56
 1214 -20 1214 -20 1133 0 c 1,57,-1
 915 0 l 1,0,-1
EndSplineSet
Validated: 1
EndChar

StartChar: eth
Encoding: 240 240 135
Width: 1434
GlyphClass: 2
Flags: W
HStem: -20 150<508.161 800.124> 970 150<597.684 759> 1510 20G<668.364 716.5>
VStem: 70 321<271.143 708.44> 1043 321<476.541 1011.38>
DStem2: 621 1270 727 1164 0.711802 0.702381<0.998616 110.306 367.272 470.923>
LayerCount: 2
Fore
SplineSet
627 -20 m 0,0,1
 361 -20 361 -20 201 142 c 0,2,3
 70 275 70 275 70 480 c 0,4,5
 70 740 70 740 274 932 c 0,6,7
 474 1120 474 1120 777 1120 c 1,8,-1
 759 970 l 1,9,10
 610 970 610 970 512 854 c 0,11,12
 391 711 391 711 391 514 c 0,13,14
 391 337 391 337 453 237 c 0,15,16
 519 130 519 130 645 130 c 0,17,18
 787 130 787 130 888 250 c 0,19,20
 1043 434 1043 434 1043 760 c 0,21,22
 1043 1064 1043 1064 824 1261 c 1,23,-1
 727 1164 l 1,24,-1
 621 1270 l 1,25,-1
 699 1348 l 1,26,27
 670 1364 670 1364 638 1379 c 1,28,-1
 673 1530 l 1,29,30
 760 1517 760 1517 840 1489 c 1,31,-1
 954 1603 l 1,32,-1
 1060 1497 l 1,33,-1
 986 1423 l 1,34,35
 1005 1412 1005 1412 1023 1400 c 0,36,37
 1364 1184 1364 1184 1364 792 c 0,38,39
 1364 391 1364 391 1130 170 c 0,40,41
 929 -20 929 -20 627 -20 c 0,0,1
EndSplineSet
Validated: 1
EndChar

StartChar: divide
Encoding: 247 247 136
Width: 1240
GlyphClass: 2
Flags: W
HStem: 175 370<501.14 738.86> 655 200<120 1120> 965 370<501.14 738.86>
VStem: 438 364<237.578 482.422 1027.58 1272.42>
CounterMasks: 1 e0
LayerCount: 2
Fore
SplineSet
120 855 m 1,0,-1
 1120 855 l 1,1,-1
 1120 655 l 1,2,-1
 120 655 l 1,3,-1
 120 855 l 1,0,-1
620 175 m 128,-1,5
 544 175 544 175 491 229 c 128,-1,6
 438 283 438 283 438 360 c 128,-1,7
 438 437 438 437 491 491 c 128,-1,8
 544 545 544 545 620 545 c 128,-1,9
 696 545 696 545 749 491 c 128,-1,10
 802 437 802 437 802 360 c 128,-1,11
 802 283 802 283 749 229 c 128,-1,4
 696 175 696 175 620 175 c 128,-1,5
620 1335 m 128,-1,13
 696 1335 696 1335 749 1281 c 128,-1,14
 802 1227 802 1227 802 1150 c 128,-1,15
 802 1073 802 1073 749 1019 c 128,-1,16
 696 965 696 965 620 965 c 128,-1,17
 544 965 544 965 491 1019 c 128,-1,18
 438 1073 438 1073 438 1150 c 128,-1,19
 438 1227 438 1227 491 1281 c 128,-1,12
 544 1335 544 1335 620 1335 c 128,-1,13
EndSplineSet
Validated: 1
EndChar

StartChar: oslash
Encoding: 248 248 137
Width: 1404
GlyphClass: 2
Flags: W
HStem: -20 150<557.594 800.78> 970 150<603.22 846.422>
VStem: 70 322<270.879 707.746> 1012 322<392.254 829.193>
DStem2: 302 7 432 -68 0.49983 0.866123<0.0186504 48.8154 286.274 1054.2 1291.66 1340.46>
LayerCount: 2
Fore
SplineSet
627 -20 m 0,0,1
 543 -20 543 -20 469 -4 c 1,2,-1
 432 -68 l 1,3,-1
 302 7 l 1,4,-1
 326 49 l 1,5,6
 257 86 257 86 201 142 c 0,7,8
 70 275 70 275 70 480 c 0,9,10
 70 738 70 738 274 932 c 0,11,12
 473 1120 473 1120 777 1120 c 0,13,14
 861 1120 861 1120 935 1104 c 1,15,-1
 972 1168 l 1,16,-1
 1102 1093 l 1,17,-1
 1078 1051 l 1,18,19
 1147 1014 1147 1014 1203 958 c 0,20,21
 1334 825 1334 825 1334 620 c 0,22,23
 1334 362 1334 362 1130 168 c 0,24,25
 931 -20 931 -20 627 -20 c 0,0,1
645 130 m 0,26,27
 788 130 788 130 888 248 c 0,28,29
 1012 395 1012 395 1012 624 c 0,30,31
 1012 754 1012 754 959 845 c 1,32,-1
 556 148 l 1,33,34
 597 130 597 130 645 130 c 0,26,27
445 255 m 1,35,-1
 848 952 l 1,36,37
 808 970 808 970 759 970 c 0,38,39
 616 970 616 970 516 852 c 0,40,41
 392 705 392 705 392 476 c 0,42,43
 392 347 392 347 445 255 c 1,35,-1
EndSplineSet
Validated: 1
EndChar

StartChar: thorn
Encoding: 254 254 138
Width: 1451
GlyphClass: 2
Flags: W
HStem: -410 21G<170 470> -20 137<585.648 836.643> 962 158<659.151 940.823> 1490 20G<170 470>
VStem: 170 300<-410 749.16 921 1510> 1060 321<389.91 818.612>
LayerCount: 2
Fore
SplineSet
741 -20 m 0,0,1
 635 -20 635 -20 572 35 c 0,2,3
 533 69 533 69 503 129 c 1,4,-1
 510 136 l 1,5,6
 585 117 585 117 660 117 c 0,7,8
 830 117 830 117 941 248 c 0,9,10
 1060 389 1060 389 1060 595 c 0,11,12
 1060 765 1060 765 987 868 c 0,13,14
 921 962 921 962 809 962 c 0,15,16
 698 962 698 962 611 880 c 0,17,18
 470 746 470 746 470 541 c 2,19,-1
 470 -410 l 1,20,-1
 170 -410 l 1,21,-1
 170 1510 l 1,22,-1
 470 1510 l 1,23,-1
 470 921 l 1,24,25
 602 1120 602 1120 844 1120 c 0,26,27
 1090 1120 1090 1120 1250 958 c 0,28,29
 1381 825 1381 825 1381 620 c 0,30,31
 1381 359 1381 359 1179 168 c 0,32,33
 980 -20 980 -20 741 -20 c 0,0,1
EndSplineSet
Validated: 1
EndChar

StartChar: Dcroat
Encoding: 272 272 139
Width: 1796
GlyphClass: 2
Flags: W
HStem: -20 138<668.471 979.771> 0 21G<170 490> 32 114<597.959 735.309> 680 150<70 170 490 860> 1360 170<761.871 1134.66> 1490 20G<170 490>
VStem: 170 320<0 680 830 1078.35 1266 1510> 1386 340<576.088 1077.38>
LayerCount: 2
Fore
SplineSet
170 0 m 1,0,-1
 170 680 l 1,1,-1
 70 680 l 1,2,-1
 70 830 l 1,3,-1
 170 830 l 1,4,-1
 170 1510 l 1,5,-1
 490 1510 l 1,6,-1
 490 1266 l 1,7,8
 664 1530 664 1530 1000 1530 c 0,9,10
 1343 1530 1343 1530 1551 1316 c 0,11,12
 1726 1137 1726 1137 1726 859 c 0,13,14
 1726 469 1726 469 1437 211 c 0,15,16
 1178 -20 1178 -20 846 -20 c 0,17,18
 739 -20 739 -20 655 32 c 0,19,20
 589 73 589 73 545 139 c 1,21,-1
 552 146 l 1,22,23
 652 118 652 118 738 118 c 0,24,25
 1014 118 1014 118 1189 306 c 0,26,27
 1386 518 1386 518 1386 835 c 0,28,29
 1386 1057 1386 1057 1267 1207 c 0,30,31
 1146 1360 1146 1360 943 1360 c 0,32,33
 771 1360 771 1360 637 1225 c 0,34,35
 490 1077 490 1077 490 868 c 2,36,-1
 490 830 l 1,37,-1
 860 830 l 1,38,-1
 860 680 l 1,39,-1
 490 680 l 1,40,-1
 490 0 l 1,41,-1
 170 0 l 1,0,-1
EndSplineSet
Validated: 1
EndChar

StartChar: dcroat
Encoding: 273 273 140
Width: 1451
GlyphClass: 2
Flags: W
HStem: -20 158<510.177 791.849> 0 21G<981 1281> 983 137<614.357 865.352> 1200 150<691 981 1281 1351> 1490 20G<981 1281>
VStem: 70 321<281.388 710.09> 981 300<0 179 350.84 1200 1350 1510>
LayerCount: 2
Fore
SplineSet
1281 0 m 1,0,-1
 981 0 l 1,1,-1
 981 179 l 1,2,3
 849 -20 849 -20 607 -20 c 0,4,5
 361 -20 361 -20 201 142 c 0,6,7
 70 275 70 275 70 480 c 0,8,9
 70 741 70 741 272 932 c 0,10,11
 471 1120 471 1120 710 1120 c 0,12,13
 816 1120 816 1120 879 1065 c 0,14,15
 918 1031 918 1031 948 971 c 1,16,-1
 941 964 l 1,17,18
 866 983 866 983 791 983 c 0,19,20
 621 983 621 983 510 852 c 0,21,22
 391 711 391 711 391 505 c 0,23,24
 391 335 391 335 464 232 c 0,25,26
 530 138 530 138 642 138 c 0,27,28
 753 138 753 138 840 220 c 0,29,30
 981 354 981 354 981 559 c 2,31,-1
 981 1200 l 1,32,-1
 691 1200 l 1,33,-1
 691 1350 l 1,34,-1
 981 1350 l 1,35,-1
 981 1510 l 1,36,-1
 1281 1510 l 1,37,-1
 1281 1350 l 1,38,-1
 1351 1350 l 1,39,-1
 1351 1200 l 1,40,-1
 1281 1200 l 1,41,-1
 1281 0 l 1,0,-1
EndSplineSet
Validated: 19457
EndChar

StartChar: Hbar
Encoding: 294 294 141
Width: 1632
GlyphClass: 2
Flags: W
HStem: 0 21G<170 490 1142 1462> 670 170<490 1142> 1200 150<70 170 490 1142 1462 1562> 1490 20G<170 490 1142 1462>
VStem: 170 320<0 670 840 1200 1350 1510> 1142 320<0 670 840 1200 1350 1510>
LayerCount: 2
Fore
SplineSet
170 0 m 1,0,-1
 170 1200 l 1,1,-1
 70 1200 l 1,2,-1
 70 1350 l 1,3,-1
 170 1350 l 1,4,-1
 170 1510 l 1,5,-1
 490 1510 l 1,6,-1
 490 1350 l 1,7,-1
 1142 1350 l 1,8,-1
 1142 1510 l 1,9,-1
 1462 1510 l 1,10,-1
 1462 1350 l 1,11,-1
 1562 1350 l 1,12,-1
 1562 1200 l 1,13,-1
 1462 1200 l 1,14,-1
 1462 0 l 1,15,-1
 1142 0 l 1,16,-1
 1142 670 l 1,17,-1
 490 670 l 1,18,-1
 490 0 l 1,19,-1
 170 0 l 1,0,-1
1142 1200 m 1,20,-1
 490 1200 l 1,21,-1
 490 840 l 1,22,-1
 1142 840 l 1,23,-1
 1142 1200 l 1,20,-1
EndSplineSet
Validated: 1
EndChar

StartChar: hbar
Encoding: 295 295 142
Width: 1422
GlyphClass: 2
Flags: W
HStem: 0 21G<170 470 952 1252> 950 170<671.017 902.472> 1200 150<120 170 470 760> 1490 20G<170 470>
VStem: 170 300<0 746.595 921 1200 1350 1510> 952 300<0 885.458>
LayerCount: 2
Fore
SplineSet
170 0 m 1,0,-1
 170 1200 l 1,1,-1
 120 1200 l 1,2,-1
 120 1350 l 1,3,-1
 170 1350 l 1,4,-1
 170 1510 l 1,5,-1
 470 1510 l 1,6,-1
 470 1350 l 1,7,-1
 760 1350 l 1,8,-1
 760 1200 l 1,9,-1
 470 1200 l 1,10,-1
 470 921 l 1,11,12
 636 1120 636 1120 890 1120 c 0,13,14
 1054 1120 1054 1120 1153 1024 c 128,-1,15
 1252 928 1252 928 1252 752 c 2,16,-1
 1252 0 l 1,17,-1
 952 0 l 1,18,-1
 952 747 l 2,19,20
 952 838 952 838 919 887 c 0,21,22
 876 950 876 950 800 950 c 0,23,24
 656 950 656 950 556 815 c 0,25,26
 470 700 470 700 470 538 c 2,27,-1
 470 0 l 1,28,-1
 170 0 l 1,0,-1
EndSplineSet
Validated: 19457
EndChar

StartChar: kgreenlandic
Encoding: 312 312 143
Width: 1366
GlyphClass: 2
Flags: W
HStem: 0 21G<170 470 917.444 1356> 208 151<470 638.26> 1080 20G<170 470 896 1196>
VStem: 170 300<0 208 359 1100> 896 300<683.676 1100>
LayerCount: 2
Fore
SplineSet
170 0 m 1,0,-1
 170 1100 l 1,1,-1
 470 1100 l 1,2,-1
 470 359 l 1,3,4
 715 382 715 382 819 581 c 0,5,6
 896 730 896 730 896 1100 c 1,7,-1
 1196 1100 l 1,8,9
 1196 724 1196 724 1102 561 c 0,10,11
 1033 440 1033 440 914 358 c 1,12,-1
 1356 0 l 1,13,-1
 943 0 l 1,14,-1
 644 234 l 1,15,16
 552 208 552 208 470 208 c 1,17,-1
 470 0 l 1,18,-1
 170 0 l 1,0,-1
EndSplineSet
Validated: 1
EndChar

StartChar: Lslash
Encoding: 321 321 144
Width: 1128
GlyphClass: 2
Flags: W
HStem: 0 170<490 1118> 1490 20G<170 490>
VStem: 170 320<695 707 880 1510>
DStem2: 85 646 160 516 0.865975 0.500088<0 11.597 467.74 789.798>
LayerCount: 2
Fore
SplineSet
170 0 m 1,0,-1
 170 522 l 1,1,-1
 160 516 l 1,2,-1
 85 646 l 1,3,-1
 170 695 l 1,4,-1
 170 1510 l 1,5,-1
 490 1510 l 1,6,-1
 490 880 l 1,7,-1
 769 1041 l 1,8,-1
 844 911 l 1,9,-1
 490 707 l 1,10,-1
 490 170 l 1,11,-1
 1118 170 l 1,12,-1
 1118 0 l 1,13,-1
 170 0 l 1,0,-1
EndSplineSet
Validated: 1
EndChar

StartChar: lslash
Encoding: 322 322 145
Width: 780
GlyphClass: 2
Flags: W
HStem: -20 150<579.722 700> 1490 20G<240 540>
VStem: 240 300<167.963 605 952 1510>
DStem2: 30 657 106 527 0.865664 0.500625<0.709219 155.757 589.173 767.041>
LayerCount: 2
Fore
SplineSet
700 -20 m 1,0,1
 240 -20 240 -20 240 276 c 2,2,-1
 240 605 l 1,3,-1
 106 527 l 1,4,-1
 30 657 l 1,5,-1
 240 779 l 1,6,-1
 240 1510 l 1,7,-1
 540 1510 l 1,8,-1
 540 952 l 1,9,-1
 694 1041 l 1,10,-1
 770 911 l 1,11,-1
 540 778 l 1,12,-1
 540 280 l 2,13,14
 540 130 540 130 700 130 c 1,15,-1
 700 -20 l 1,0,1
EndSplineSet
Validated: 19457
EndChar

StartChar: Eng
Encoding: 330 330 146
Width: 1631
GlyphClass: 2
Flags: W
HStem: -430 150<981 1093.5> 0 21G<170 490> 1346 184<747.384 1052.22> 1490 20G<170 490>
VStem: 170 320<0 1100.61 1266 1510> 1141 320<-233.076 1251.3>
LayerCount: 2
Fore
SplineSet
170 0 m 1,0,-1
 170 1510 l 1,1,-1
 490 1510 l 1,2,-1
 490 1266 l 1,3,4
 664 1530 664 1530 984 1530 c 0,5,6
 1235 1530 1235 1530 1353 1397 c 0,7,8
 1461 1279 1461 1279 1461 1089 c 2,9,-1
 1461 -84 l 2,10,11
 1461 -430 1461 -430 981 -430 c 1,12,-1
 981 -280 l 1,13,14
 1141 -280 1141 -280 1141 -80 c 2,15,-1
 1141 1083 l 2,16,17
 1141 1208 1141 1208 1080 1276 c 0,18,19
 1017 1346 1017 1346 907 1346 c 0,20,21
 714 1346 714 1346 592 1196 c 0,22,23
 490 1071 490 1071 490 866 c 2,24,-1
 490 0 l 1,25,-1
 170 0 l 1,0,-1
EndSplineSet
Validated: 1
EndChar

StartChar: eng
Encoding: 331 331 147
Width: 1422
GlyphClass: 2
Flags: W
HStem: -430 150<792 899.812> 0 21G<170 470> 950 170<671.017 902.532> 1080 20G<170 470>
VStem: 170 300<0 746.595 921 1100> 952 300<-233.076 885.458>
LayerCount: 2
Fore
SplineSet
170 0 m 1,0,-1
 170 1100 l 1,1,-1
 470 1100 l 1,2,-1
 470 921 l 1,3,4
 636 1120 636 1120 890 1120 c 0,5,6
 1056 1120 1056 1120 1153 1024 c 0,7,8
 1252 928 1252 928 1252 752 c 2,9,-1
 1252 -84 l 2,10,11
 1252 -430 1252 -430 792 -430 c 1,12,-1
 792 -280 l 1,13,14
 952 -280 952 -280 952 -80 c 2,15,-1
 952 747 l 2,16,17
 952 838 952 838 919 887 c 0,18,19
 876 950 876 950 800 950 c 0,20,21
 656 950 656 950 556 815 c 0,22,23
 470 700 470 700 470 538 c 2,24,-1
 470 0 l 1,25,-1
 170 0 l 1,0,-1
EndSplineSet
Validated: 1
EndChar

StartChar: OE
Encoding: 338 338 148
Width: 2613
GlyphClass: 2
Flags: W
HStem: -20 170<661.859 1064.25 1634.34 2032.89> 670 170<1749 2176> 1360 170<757.694 1156.66 1730.23 2119.92>
VStem: 70 340<433.677 936.643> 1409 340<840 1078.03>
CounterMasks: 1 e0
LayerCount: 2
Fore
SplineSet
858 150 m 0,0,1
 1070 150 1070 150 1212 307 c 0,2,3
 1409 523 1409 523 1409 836 c 0,4,5
 1409 1055 1409 1055 1290 1207 c 0,6,7
 1171 1360 1171 1360 961 1360 c 0,8,9
 750 1360 750 1360 607 1203 c 0,10,11
 410 987 410 987 410 674 c 0,12,13
 410 457 410 457 530 304 c 0,14,15
 650 150 650 150 858 150 c 0,0,1
827 -20 m 0,16,17
 456 -20 456 -20 245 194 c 0,18,19
 70 373 70 373 70 651 c 0,20,21
 70 1041 70 1041 359 1299 c 0,22,23
 619 1530 619 1530 992 1530 c 0,24,25
 1281 1530 1281 1530 1471 1402 c 1,26,27
 1686 1530 1686 1530 1964 1530 c 0,28,29
 2337 1530 2337 1530 2563 1298 c 1,30,-1
 2293 1163 l 1,31,32
 2149 1360 2149 1360 1933 1360 c 0,33,34
 1758 1360 1758 1360 1629 1251 c 1,35,36
 1749 1089 1749 1089 1749 840 c 1,37,-1
 2176 840 l 1,38,-1
 2176 670 l 1,39,-1
 1731 670 l 1,40,41
 1685 446 1685 446 1526 275 c 1,42,43
 1642 150 1642 150 1830 150 c 0,44,45
 2042 150 2042 150 2184 307 c 0,46,47
 2269 400 2269 400 2317 511 c 1,48,-1
 2558 347 l 1,49,50
 2504 275 2504 275 2432 211 c 0,51,52
 2169 -20 2169 -20 1799 -20 c 0,53,54
 1511 -20 1511 -20 1320 109 c 1,55,56
 1103 -20 1103 -20 827 -20 c 0,16,17
EndSplineSet
Validated: 1
EndChar

StartChar: oe
Encoding: 339 339 149
Width: 1949
GlyphClass: 2
Flags: W
HStem: -20 150<515.137 801.513 1194.68 1482.41> 475 150<1334 1603> 970 150<603.22 889.813 1283.15 1571.29>
VStem: 70 322<270.814 707.746> 1012 322<625 829.653>
CounterMasks: 1 e0
LayerCount: 2
Fore
SplineSet
645 130 m 0,0,1
 788 130 788 130 888 248 c 0,2,3
 1012 395 1012 395 1012 624 c 0,4,5
 1012 771 1012 771 944 869 c 0,6,7
 873 970 873 970 759 970 c 0,8,9
 616 970 616 970 516 852 c 0,10,11
 392 705 392 705 392 476 c 0,12,13
 392 329 392 329 460 231 c 0,14,15
 531 130 531 130 645 130 c 0,0,1
627 -20 m 0,16,17
 363 -20 363 -20 201 142 c 0,18,19
 70 275 70 275 70 480 c 0,20,21
 70 738 70 738 274 932 c 0,22,23
 473 1120 473 1120 777 1120 c 0,24,25
 965 1120 965 1120 1102 1038 c 1,26,27
 1257 1120 1257 1120 1458 1120 c 0,28,29
 1721 1120 1721 1120 1899 942 c 1,30,-1
 1653 820 l 1,31,32
 1581 970 1581 970 1440 970 c 0,33,34
 1332 970 1332 970 1249 903 c 1,35,36
 1332 786 1332 786 1334 625 c 1,37,-1
 1603 625 l 1,38,-1
 1603 475 l 1,39,-1
 1317 475 l 1,40,41
 1280 326 1280 326 1164 202 c 1,42,43
 1230 130 1230 130 1326 130 c 0,44,45
 1469 130 1469 130 1569 248 c 0,46,47
 1633 324 1633 324 1664 422 c 1,48,-1
 1899 267 l 1,49,50
 1861 216 1861 216 1811 168 c 0,51,52
 1615 -20 1615 -20 1308 -20 c 0,53,54
 1119 -20 1119 -20 983 62 c 1,55,56
 828 -20 828 -20 627 -20 c 0,16,17
EndSplineSet
Validated: 1
EndChar

StartChar: Tbar
Encoding: 358 358 150
Width: 1260
GlyphClass: 2
Flags: W
HStem: 0 21G<470 790> 630 150<285 470 790 975> 1340 170<10 470 790 1250>
VStem: 470 320<0 630 780 1340>
LayerCount: 2
Fore
SplineSet
470 0 m 1,0,-1
 470 630 l 1,1,-1
 285 630 l 1,2,-1
 285 780 l 1,3,-1
 470 780 l 1,4,-1
 470 1340 l 1,5,-1
 10 1340 l 1,6,-1
 10 1510 l 1,7,-1
 1250 1510 l 1,8,-1
 1250 1340 l 1,9,-1
 790 1340 l 1,10,-1
 790 780 l 1,11,-1
 975 780 l 1,12,-1
 975 630 l 1,13,-1
 790 630 l 1,14,-1
 790 0 l 1,15,-1
 470 0 l 1,0,-1
EndSplineSet
Validated: 1
EndChar

StartChar: tbar
Encoding: 359 359 151
Width: 780
GlyphClass: 2
Flags: W
HStem: -20 150<509.722 630> 522 150<30 170 470 610> 950 150<30 170 470 770> 1490 20G<170 470>
VStem: 170 300<167.963 522 672 950 1100 1510>
LayerCount: 2
Fore
SplineSet
630 -20 m 1,0,1
 170 -20 170 -20 170 276 c 2,2,-1
 170 522 l 1,3,-1
 30 522 l 1,4,-1
 30 672 l 1,5,-1
 170 672 l 1,6,-1
 170 950 l 1,7,-1
 30 950 l 1,8,-1
 30 1100 l 1,9,-1
 170 1100 l 1,10,-1
 170 1510 l 1,11,-1
 470 1510 l 1,12,-1
 470 1100 l 1,13,-1
 770 1100 l 1,14,-1
 770 950 l 1,15,-1
 470 950 l 1,16,-1
 470 672 l 1,17,-1
 610 672 l 1,18,-1
 610 522 l 1,19,-1
 470 522 l 1,20,-1
 470 280 l 2,21,22
 470 130 470 130 630 130 c 1,23,-1
 630 -20 l 1,0,1
EndSplineSet
Validated: 1
EndChar

StartChar: longs
Encoding: 383 383 152
Width: 1231
GlyphClass: 2
Flags: W
HStem: 0 21G<210 510> 680 150<10 210> 1380 150<737.967 1031.58>
VStem: 210 300<0 680 830 1099.3>
LayerCount: 2
Fore
SplineSet
210 0 m 1,0,-1
 210 680 l 1,1,-1
 10 680 l 1,2,-1
 10 830 l 1,3,-1
 210 830 l 1,4,5
 210 1147 210 1147 414 1340 c 0,6,7
 614 1530 614 1530 917 1530 c 0,8,9
 1078 1530 1078 1530 1226 1455 c 1,10,-1
 1091 1274 l 1,11,12
 1017 1380 1017 1380 899 1380 c 0,13,14
 729 1380 729 1380 596 1205 c 0,15,16
 510 1092 510 1092 510 830 c 2,17,-1
 510 0 l 1,18,-1
 210 0 l 1,0,-1
EndSplineSet
Validated: 1
EndChar

StartChar: florin
Encoding: 402 402 153
Width: 1191
GlyphClass: 2
Flags: W
HStem: -430 150<10 117.812> 680 150<70 170 470 942> 1380 150<697.967 991.585>
VStem: 170 300<-233.076 680 830 1099.3>
LayerCount: 2
Fore
SplineSet
10 -430 m 1,0,-1
 10 -280 l 1,1,2
 170 -280 170 -280 170 -80 c 2,3,-1
 170 680 l 1,4,-1
 70 680 l 1,5,-1
 70 830 l 1,6,-1
 170 830 l 1,7,8
 170 1147 170 1147 374 1340 c 0,9,10
 574 1530 574 1530 877 1530 c 0,11,12
 1038 1530 1038 1530 1186 1455 c 1,13,-1
 1051 1274 l 1,14,15
 977 1380 977 1380 859 1380 c 0,16,17
 689 1380 689 1380 556 1205 c 0,18,19
 470 1092 470 1092 470 830 c 1,20,-1
 942 830 l 1,21,-1
 942 680 l 1,22,-1
 470 680 l 1,23,-1
 470 -84 l 2,24,25
 470 -430 470 -430 10 -430 c 1,0,-1
EndSplineSet
Validated: 1
EndChar

StartChar: endash
Encoding: 8211 8211 154
Width: 1240
GlyphClass: 2
Flags: W
HStem: 655 200<120 1120>
LayerCount: 2
Fore
SplineSet
120 855 m 1,0,-1
 1120 855 l 1,1,-1
 1120 655 l 1,2,-1
 120 655 l 1,3,-1
 120 855 l 1,0,-1
EndSplineSet
Validated: 1
EndChar

StartChar: emdash
Encoding: 8212 8212 155
Width: 1540
GlyphClass: 2
Flags: W
HStem: 655 200<120 1420>
LayerCount: 2
Fore
SplineSet
120 855 m 1,0,-1
 1420 855 l 1,1,-1
 1420 655 l 1,2,-1
 120 655 l 1,3,-1
 120 855 l 1,0,-1
EndSplineSet
Validated: 1
EndChar

StartChar: afii00208
Encoding: 8213 8213 156
Width: 1540
GlyphClass: 2
Flags: W
HStem: 655 200<120 1420>
LayerCount: 2
Fore
SplineSet
120 855 m 1,0,-1
 1420 855 l 1,1,-1
 1420 655 l 1,2,-1
 120 655 l 1,3,-1
 120 855 l 1,0,-1
EndSplineSet
Validated: 1
EndChar

StartChar: quoteleft
Encoding: 8216 8216 157
Width: 373
GlyphClass: 2
Flags: W
HStem: 954 596
VStem: 20 209<1157.48 1368.16>
LayerCount: 2
Fore
SplineSet
221 954 m 1,0,1
 20 1040 20 1040 20 1232 c 0,2,3
 20 1426 20 1426 230 1550 c 1,4,-1
 344 1429 l 1,5,6
 229 1354 229 1354 229 1250 c 0,7,8
 229 1155 229 1155 353 1115 c 1,9,-1
 221 954 l 1,0,1
EndSplineSet
Validated: 1
EndChar

StartChar: quoteright
Encoding: 8217 8217 158
Width: 373
GlyphClass: 2
Flags: W
HStem: 954 596
VStem: 144 209<1135.84 1346.52>
LayerCount: 2
Fore
SplineSet
152 1550 m 1,0,1
 353 1464 353 1464 353 1272 c 0,2,3
 353 1078 353 1078 143 954 c 1,4,-1
 29 1075 l 1,5,6
 144 1150 144 1150 144 1254 c 0,7,8
 144 1349 144 1349 20 1389 c 1,9,-1
 152 1550 l 1,0,1
EndSplineSet
Validated: 1
EndChar

StartChar: quotesinglbase
Encoding: 8218 8218 159
Width: 373
GlyphClass: 2
Flags: W
HStem: -268 596
VStem: 144 209<-86.1641 124.525>
LayerCount: 2
Fore
SplineSet
152 328 m 1,0,1
 353 242 353 242 353 50 c 0,2,3
 353 -144 353 -144 143 -268 c 1,4,-1
 29 -147 l 1,5,6
 144 -72 144 -72 144 32 c 0,7,8
 144 127 144 127 20 167 c 1,9,-1
 152 328 l 1,0,1
EndSplineSet
Validated: 1
EndChar

StartChar: quotereversed
Encoding: 8219 8219 160
Width: 373
GlyphClass: 2
Flags: W
HStem: 954 596
VStem: 20 209<1135.84 1346.52>
LayerCount: 2
Fore
SplineSet
221 1550 m 1,0,1
 353 1389 l 1,2,3
 229 1349 229 1349 229 1254 c 0,4,5
 229 1150 229 1150 344 1075 c 1,6,-1
 230 954 l 1,7,8
 20 1078 20 1078 20 1272 c 0,9,10
 20 1464 20 1464 221 1550 c 1,0,1
EndSplineSet
Validated: 1
EndChar

StartChar: quotedblleft
Encoding: 8220 8220 161
Width: 725
GlyphClass: 2
Flags: W
HStem: 954 596
VStem: 20 209<1157.48 1368.16> 372 209<1157.48 1368.16>
LayerCount: 2
Fore
SplineSet
221 954 m 1,0,1
 20 1040 20 1040 20 1232 c 0,2,3
 20 1426 20 1426 230 1550 c 1,4,-1
 344 1429 l 1,5,6
 229 1354 229 1354 229 1250 c 0,7,8
 229 1155 229 1155 353 1115 c 1,9,-1
 221 954 l 1,0,1
573 954 m 1,10,11
 372 1040 372 1040 372 1232 c 0,12,13
 372 1426 372 1426 582 1550 c 1,14,-1
 696 1429 l 1,15,16
 581 1354 581 1354 581 1250 c 0,17,18
 581 1155 581 1155 705 1115 c 1,19,-1
 573 954 l 1,10,11
EndSplineSet
Validated: 1
EndChar

StartChar: quotedblright
Encoding: 8221 8221 162
Width: 725
GlyphClass: 2
Flags: W
HStem: 954 596
VStem: 144 209<1135.84 1346.52> 496 209<1135.84 1346.52>
LayerCount: 2
Fore
SplineSet
504 1550 m 1,0,1
 705 1464 705 1464 705 1272 c 0,2,3
 705 1078 705 1078 495 954 c 1,4,-1
 381 1075 l 1,5,6
 496 1150 496 1150 496 1254 c 0,7,8
 496 1349 496 1349 372 1389 c 1,9,-1
 504 1550 l 1,0,1
152 1550 m 1,10,11
 353 1464 353 1464 353 1272 c 0,12,13
 353 1078 353 1078 143 954 c 1,14,-1
 29 1075 l 1,15,16
 144 1150 144 1150 144 1254 c 0,17,18
 144 1349 144 1349 20 1389 c 1,19,-1
 152 1550 l 1,10,11
EndSplineSet
Validated: 1
EndChar

StartChar: quotedblbase
Encoding: 8222 8222 163
Width: 725
GlyphClass: 2
Flags: W
HStem: -268 596
VStem: 144 209<-86.1641 124.525> 496 209<-86.1641 124.525>
LayerCount: 2
Fore
SplineSet
504 328 m 1,0,1
 705 242 705 242 705 50 c 0,2,3
 705 -144 705 -144 495 -268 c 1,4,-1
 381 -147 l 1,5,6
 496 -72 496 -72 496 32 c 0,7,8
 496 127 496 127 372 167 c 1,9,-1
 504 328 l 1,0,1
152 328 m 1,10,11
 353 242 353 242 353 50 c 0,12,13
 353 -144 353 -144 143 -268 c 1,14,-1
 29 -147 l 1,15,16
 144 -72 144 -72 144 32 c 0,17,18
 144 127 144 127 20 167 c 1,19,-1
 152 328 l 1,10,11
EndSplineSet
Validated: 1
EndChar

StartChar: dagger
Encoding: 8224 8224 164
Width: 1240
GlyphClass: 2
Flags: W
HStem: 0 21G<460 780> 1010 170<120 460 780 1120> 1490 20G<460 780>
VStem: 460 320<0 1010 1180 1510>
LayerCount: 2
Fore
SplineSet
460 0 m 1,0,-1
 460 1010 l 1,1,-1
 120 1010 l 1,2,-1
 120 1180 l 1,3,-1
 460 1180 l 1,4,-1
 460 1510 l 1,5,-1
 780 1510 l 1,6,-1
 780 1180 l 1,7,-1
 1120 1180 l 1,8,-1
 1120 1010 l 1,9,-1
 780 1010 l 1,10,-1
 780 0 l 1,11,-1
 460 0 l 1,0,-1
EndSplineSet
Validated: 1
EndChar

StartChar: daggerdbl
Encoding: 8225 8225 165
Width: 1240
GlyphClass: 2
Flags: W
HStem: 0 21G<460 780> 330 170<120 460 780 1120> 1010 170<120 460 780 1120> 1490 20G<460 780>
VStem: 460 320<0 330 500 1010 1180 1510>
LayerCount: 2
Fore
SplineSet
460 0 m 1,0,-1
 460 330 l 1,1,-1
 120 330 l 1,2,-1
 120 500 l 1,3,-1
 460 500 l 1,4,-1
 460 1010 l 1,5,-1
 120 1010 l 1,6,-1
 120 1180 l 1,7,-1
 460 1180 l 1,8,-1
 460 1510 l 1,9,-1
 780 1510 l 1,10,-1
 780 1180 l 1,11,-1
 1120 1180 l 1,12,-1
 1120 1010 l 1,13,-1
 780 1010 l 1,14,-1
 780 500 l 1,15,-1
 1120 500 l 1,16,-1
 1120 330 l 1,17,-1
 780 330 l 1,18,-1
 780 0 l 1,19,-1
 460 0 l 1,0,-1
EndSplineSet
Validated: 1
EndChar

StartChar: bullet
Encoding: 8226 8226 166
Width: 991
GlyphClass: 2
Flags: W
HStem: 417 674<335.476 657.489>
VStem: 120 751<620.398 888.555>
LayerCount: 2
Fore
SplineSet
529 1091 m 0,0,1
 704 1091 704 1091 796 993 c 0,2,3
 871 912 871 912 871 778 c 0,4,5
 871 641 871 641 756 531 c 0,6,7
 636 417 636 417 463 417 c 128,-1,8
 290 417 290 417 196 516 c 0,9,10
 120 596 120 596 120 732.5 c 128,-1,11
 120 869 120 869 236 978 c 0,12,13
 356 1091 356 1091 529 1091 c 0,0,1
EndSplineSet
Validated: 1
EndChar

StartChar: ellipsis
Encoding: 8230 8230 167
Width: 1274
GlyphClass: 2
Flags: W
HStem: -20 370<83.1396 320.86 519.14 756.86 953.14 1190.86>
VStem: 20 364<42.5779 287.422> 456 364<42.5779 287.422> 890 364<42.5779 287.422>
LayerCount: 2
Fore
SplineSet
1072 -20 m 128,-1,1
 996 -20 996 -20 943 34 c 128,-1,2
 890 88 890 88 890 165 c 128,-1,3
 890 242 890 242 943 296 c 128,-1,4
 996 350 996 350 1072 350 c 128,-1,5
 1148 350 1148 350 1201 296 c 128,-1,6
 1254 242 1254 242 1254 165 c 128,-1,7
 1254 88 1254 88 1201 34 c 128,-1,0
 1148 -20 1148 -20 1072 -20 c 128,-1,1
638 -20 m 128,-1,9
 562 -20 562 -20 509 34 c 128,-1,10
 456 88 456 88 456 165 c 128,-1,11
 456 242 456 242 509 296 c 128,-1,12
 562 350 562 350 638 350 c 128,-1,13
 714 350 714 350 767 296 c 128,-1,14
 820 242 820 242 820 165 c 128,-1,15
 820 88 820 88 767 34 c 128,-1,8
 714 -20 714 -20 638 -20 c 128,-1,9
202 -20 m 128,-1,17
 126 -20 126 -20 73 34 c 128,-1,18
 20 88 20 88 20 165 c 128,-1,19
 20 242 20 242 73 296 c 128,-1,20
 126 350 126 350 202 350 c 128,-1,21
 278 350 278 350 331 296 c 128,-1,22
 384 242 384 242 384 165 c 128,-1,23
 384 88 384 88 331 34 c 128,-1,16
 278 -20 278 -20 202 -20 c 128,-1,17
EndSplineSet
Validated: 1
EndChar

StartChar: perthousand
Encoding: 8240 8240 168
Width: 2542
GlyphClass: 2
Flags: W
HStem: -20 116<1141.91 1334.18 1934.91 2127.18> 0 21G<325 592.166> 536 118<1171.82 1363.84 1964.82 2156.84> 856 118<385.162 577.175> 1414 116<414.825 607.088> 1490 20G<1156.83 1424>
VStem: 120 219<1026.17 1329.05> 653 218<1056.92 1362.75> 878 218<147.246 453.078> 1410 219<180.949 483.831> 1671 218<147.246 453.078> 2203 219<180.949 483.831>
DStem2: 325 0 581 0 0.487458 0.873146<124.789 1729.38>
LayerCount: 2
Fore
SplineSet
2023 96 m 0,0,1
 2099 96 2099 96 2148 163 c 0,2,3
 2203 237 2203 237 2203 341 c 0,4,5
 2203 430 2203 430 2168 479 c 0,6,7
 2129 536 2129 536 2069 536 c 0,8,9
 1993 536 1993 536 1944 469 c 0,10,11
 1889 395 1889 395 1889 291 c 0,12,13
 1889 202 1889 202 1924 153 c 0,14,15
 1964 96 1964 96 2023 96 c 0,0,1
2013 -20 m 0,16,17
 1838 -20 1838 -20 1746 78 c 0,18,19
 1671 159 1671 159 1671 293 c 0,20,21
 1671 430 1671 430 1786 540 c 0,22,23
 1906 654 1906 654 2079 654 c 128,-1,24
 2252 654 2252 654 2346 555 c 0,25,26
 2422 475 2422 475 2422 338.5 c 128,-1,27
 2422 202 2422 202 2306 93 c 0,28,29
 2186 -20 2186 -20 2013 -20 c 0,16,17
1230 96 m 0,30,31
 1306 96 1306 96 1355 163 c 0,32,33
 1410 237 1410 237 1410 341 c 0,34,35
 1410 430 1410 430 1375 479 c 0,36,37
 1336 536 1336 536 1276 536 c 0,38,39
 1200 536 1200 536 1151 469 c 0,40,41
 1096 395 1096 395 1096 291 c 0,42,43
 1096 202 1096 202 1131 153 c 0,44,45
 1171 96 1171 96 1230 96 c 0,30,31
1220 -20 m 0,46,47
 1045 -20 1045 -20 953 78 c 0,48,49
 878 159 878 159 878 293 c 0,50,51
 878 430 878 430 993 540 c 0,52,53
 1113 654 1113 654 1286 654 c 128,-1,54
 1459 654 1459 654 1553 555 c 0,55,56
 1629 475 1629 475 1629 338.5 c 128,-1,57
 1629 202 1629 202 1513 93 c 0,58,59
 1393 -20 1393 -20 1220 -20 c 0,46,47
519 1414 m 0,60,61
 443 1414 443 1414 394 1347 c 0,62,63
 339 1273 339 1273 339 1169 c 0,64,65
 339 1080 339 1080 374 1031 c 0,66,67
 413 974 413 974 473 974 c 0,68,69
 549 974 549 974 598 1041 c 0,70,71
 653 1115 653 1115 653 1219 c 0,72,73
 653 1308 653 1308 618 1357 c 0,74,75
 578 1414 578 1414 519 1414 c 0,60,61
529 1530 m 0,76,77
 704 1530 704 1530 796 1432 c 0,78,79
 871 1351 871 1351 871 1217 c 0,80,81
 871 1080 871 1080 756 970 c 0,82,83
 636 856 636 856 463 856 c 128,-1,84
 290 856 290 856 196 955 c 0,85,86
 120 1035 120 1035 120 1171.5 c 128,-1,87
 120 1308 120 1308 236 1417 c 0,88,89
 356 1530 356 1530 529 1530 c 0,76,77
325 0 m 1,90,-1
 1168 1510 l 1,91,-1
 1424 1510 l 1,92,-1
 581 0 l 1,93,-1
 325 0 l 1,90,-1
EndSplineSet
Validated: 1
EndChar

StartChar: minute
Encoding: 8242 8242 169
Width: 408
GlyphClass: 2
Flags: W
HStem: 1170 380<162 207>
VStem: 20 368
LayerCount: 2
Fore
SplineSet
162 1550 m 1,0,-1
 388 1550 l 1,1,-1
 207 1170 l 1,2,-1
 20 1170 l 1,3,-1
 162 1550 l 1,0,-1
EndSplineSet
Validated: 1
EndChar

StartChar: second
Encoding: 8243 8243 170
Width: 736
GlyphClass: 2
Flags: W
HStem: 1170 380<162 207 490 535>
LayerCount: 2
Fore
SplineSet
490 1550 m 1,0,-1
 716 1550 l 1,1,-1
 535 1170 l 1,2,-1
 348 1170 l 1,3,-1
 490 1550 l 1,0,-1
162 1550 m 1,4,-1
 388 1550 l 1,5,-1
 207 1170 l 1,6,-1
 20 1170 l 1,7,-1
 162 1550 l 1,4,-1
EndSplineSet
Validated: 1
EndChar

StartChar: guilsinglleft
Encoding: 8249 8249 171
Width: 800
GlyphClass: 2
Flags: W
HStem: 205 267<363 630> 1135 173<457 630>
VStem: 120 510
DStem2: 120 855 252 806 0.747652 0.664091<66.1496 567.248> 252 806 120 655 0.749838 -0.661622<0.92627 504.42>
LayerCount: 2
Fore
SplineSet
120 855 m 1,0,-1
 630 1308 l 1,1,-1
 630 1135 l 1,2,-1
 252 806 l 1,3,-1
 630 472 l 1,4,-1
 630 205 l 1,5,-1
 120 655 l 1,6,-1
 120 855 l 1,0,-1
EndSplineSet
Validated: 1
EndChar

StartChar: guilsinglright
Encoding: 8250 8250 172
Width: 800
GlyphClass: 2
Flags: W
HStem: 205 173<170 343> 1041 267<170 437>
VStem: 170 510
DStem2: 170 1308 170 1041 0.749838 -0.661622<176.653 680.147> 170 378 170 205 0.747652 0.664091<0 501.098>
LayerCount: 2
Fore
SplineSet
680 658 m 1,0,-1
 170 205 l 1,1,-1
 170 378 l 1,2,-1
 548 707 l 1,3,-1
 170 1041 l 1,4,-1
 170 1308 l 1,5,-1
 680 858 l 1,6,-1
 680 658 l 1,0,-1
EndSplineSet
Validated: 1
EndChar

StartChar: fraction
Encoding: 8260 8260 173
Width: 1119
GlyphClass: 2
Flags: W
HStem: 0 21G<10 277.166> 1490 20G<841.834 1109>
DStem2: 10 0 266 0 0.487458 0.873146<124.789 1729.38>
LayerCount: 2
Fore
SplineSet
10 0 m 1,0,-1
 853 1510 l 1,1,-1
 1109 1510 l 1,2,-1
 266 0 l 1,3,-1
 10 0 l 1,0,-1
EndSplineSet
Validated: 1
EndChar

StartChar: Euro
Encoding: 8364 8364 174
Width: 1810
GlyphClass: 2
Flags: W
HStem: -20 170<760.859 1160.31> 520 150<20 169 525 1210> 794 150<20 179 552 1210> 1360 170<856.694 1246.92>
VStem: 169 340<670 794>
LayerCount: 2
Fore
SplineSet
926 -20 m 0,0,1
 555 -20 555 -20 344 194 c 0,2,3
 212 329 212 329 180 520 c 1,4,-1
 20 520 l 1,5,-1
 20 670 l 1,6,-1
 169 670 l 1,7,8
 170 734 170 734 179 794 c 1,9,-1
 20 794 l 1,10,-1
 20 944 l 1,11,-1
 216 944 l 1,12,13
 286 1145 286 1145 458 1299 c 0,14,15
 718 1530 718 1530 1091 1530 c 128,-1,16
 1464 1530 1464 1530 1690 1298 c 1,17,-1
 1420 1163 l 1,18,19
 1276 1360 1276 1360 1060 1360 c 0,20,21
 849 1360 849 1360 706 1203 c 0,22,23
 601 1088 601 1088 552 944 c 1,24,-1
 1210 944 l 1,25,-1
 1210 794 l 1,26,-1
 517 794 l 1,27,28
 509 734 509 734 509 670 c 1,29,-1
 1210 670 l 1,30,-1
 1210 520 l 1,31,-1
 525 520 l 1,32,33
 553 400 553 400 629 304 c 0,34,35
 749 150 749 150 957 150 c 0,36,37
 1168 150 1168 150 1311 307 c 0,38,39
 1396 400 1396 400 1444 511 c 1,40,-1
 1685 347 l 1,41,42
 1631 275 1631 275 1559 211 c 0,43,44
 1299 -20 1299 -20 926 -20 c 0,0,1
EndSplineSet
Validated: 1
EndChar

StartChar: afii61248
Encoding: 8453 8453 175
Width: 2112
GlyphClass: 2
Flags: W
HStem: -20 94<1414 1653.61> 0 21G<496 763.166> 667 94<1452.41 1696.84> 749 94<419.625 659.614> 1437 93<459.62 701.497> 1490 20G<1327.83 1595>
VStem: 120 210<938.736 1282.8> 1114 210<170.219 514.542> 1782 210<226.458 574.338>
DStem2: 496 0 752 0 0.487458 0.873146<124.789 1729.38>
LayerCount: 2
Fore
SplineSet
602 1530 m 0,0,1
 802 1530 802 1530 911 1422 c 0,2,3
 917 1416 917 1416 923 1409 c 1,4,-1
 754 1327 l 1,5,6
 744 1347 744 1347 730 1363 c 0,7,8
 672 1437 672 1437 584 1437 c 128,-1,9
 496 1437 496 1437 429 1364 c 0,10,11
 330 1256 330 1256 330 1099 c 0,12,13
 330 992 330 992 389 917.5 c 128,-1,14
 448 843 448 843 536 843 c 128,-1,15
 624 843 624 843 690 915 c 0,16,17
 741 971 741 971 766 1040 c 1,18,-1
 920 937 l 1,19,20
 892 899 892 899 854 866 c 0,21,22
 720 749 720 749 516 749 c 0,23,24
 314 749 314 749 208 857 c 0,25,26
 120 947 120 947 120 1087 c 0,27,28
 120 1283 120 1283 265 1413 c 1,29,30
 400 1530 400 1530 602 1530 c 0,0,1
1510 -20 m 0,31,32
 1310 -20 1310 -20 1202 88 c 0,33,34
 1114 180 1114 180 1114 318 c 0,35,36
 1114 517 1114 517 1258 644 c 24,37,38
 1392 761 1392 761 1596 761 c 0,39,40
 1798 761 1798 761 1904 653 c 0,41,42
 1992 561 1992 561 1992 423 c 0,43,44
 1992 224 1992 224 1848 97 c 24,45,46
 1714 -20 1714 -20 1510 -20 c 0,31,32
1530 74 m 128,-1,48
 1618 74 1618 74 1684 146 c 0,49,50
 1782 254 1782 254 1782 411 c 0,51,52
 1782 520 1782 520 1724 593.5 c 128,-1,53
 1666 667 1666 667 1577 667 c 128,-1,54
 1488 667 1488 667 1422 595 c 0,55,56
 1324 487 1324 487 1324 330 c 0,57,58
 1324 223 1324 223 1383 148.5 c 128,-1,47
 1442 74 1442 74 1530 74 c 128,-1,48
496 0 m 1,59,-1
 1339 1510 l 1,60,-1
 1595 1510 l 1,61,-1
 752 0 l 1,62,-1
 496 0 l 1,59,-1
EndSplineSet
Validated: 1
EndChar

StartChar: afii61289
Encoding: 8467 8467 176
Width: 1117
GlyphClass: 2
Flags: W
HStem: 0 1G<20 396.273 546 655> 1510 20G<714.5 812>
LayerCount: 2
Fore
SplineSet
600 -20 m 0,0,1
 492 -20 492 -20 411 44 c 1,2,-1
 384 0 l 1,3,-1
 20 0 l 1,4,5
 182 162 182 162 285 325 c 1,6,7
 274 420 274 420 274 524 c 0,8,9
 274 686 274 686 321 865 c 0,10,11
 419 1240 419 1240 571 1423 c 0,12,13
 659 1530 659 1530 770 1530 c 0,14,15
 854 1530 854 1530 904 1480 c 0,16,17
 968 1416 968 1416 968 1281 c 0,18,19
 968 1186 968 1186 939 1041 c 0,20,21
 869 688 869 688 586 272 c 1,22,23
 588 216 588 216 609 216 c 128,-1,24
 630 216 630 216 655 260 c 0,25,26
 670 286 670 286 681 319 c 1,27,-1
 997 319 l 1,28,29
 904 144 904 144 807 62 c 128,-1,30
 710 -20 710 -20 600 -20 c 0,0,1
EndSplineSet
Validated: 1
EndChar

StartChar: trademark
Encoding: 8482 8482 177
Width: 2043
VWidth: 1401
GlyphClass: 2
Flags: W
HStem: 755 765<250 450 731 931 1202 1322.1 1673 1799.91> 1425 95<20 250 450 680 1005.43 1183.02 1477.17 1653.2>
VStem: 250 200<755 1425> 731 200<755 1348.78 1425 1520> 1202 200<755 1348.73> 1673 200<755 1391.48>
LayerCount: 2
Fore
SplineSet
731 1520 m 1,0,-1
 931 1520 l 1,1,-1
 931 1425 l 1,2,3
 1019 1530 1019 1530 1163 1530 c 0,4,5
 1319 1530 1319 1530 1369 1406 c 1,6,7
 1461 1530 1461 1530 1635 1530 c 0,8,9
 1750 1530 1750 1530 1812 1465 c 0,10,11
 1873 1401 1873 1401 1873 1304 c 2,12,-1
 1873 755 l 1,13,-1
 1673 755 l 1,14,-1
 1673 1300 l 2,15,16
 1673 1360 1673 1360 1651 1392.5 c 128,-1,17
 1629 1425 1629 1425 1587 1425 c 0,18,19
 1519 1425 1519 1425 1465 1370 c 0,20,21
 1402 1306 1402 1306 1402 1192 c 2,22,-1
 1402 755 l 1,23,-1
 1202 755 l 1,24,-1
 1202 1300 l 2,25,26
 1202 1360 1202 1360 1180 1392.5 c 128,-1,27
 1158 1425 1158 1425 1116 1425 c 0,28,29
 1048 1425 1048 1425 994 1370 c 0,30,31
 931 1306 931 1306 931 1192 c 2,32,-1
 931 755 l 1,33,-1
 731 755 l 1,34,-1
 731 1520 l 1,0,-1
20 1520 m 1,35,-1
 680 1520 l 1,36,-1
 680 1425 l 1,37,-1
 450 1425 l 1,38,-1
 450 755 l 1,39,-1
 250 755 l 1,40,-1
 250 1425 l 1,41,-1
 20 1425 l 1,42,-1
 20 1520 l 1,35,-1
EndSplineSet
Validated: 1
EndChar

StartChar: uni2126
Encoding: 8486 8486 178
Width: 1921
GlyphClass: 2
Flags: W
HStem: 0 170<20 383 675.592 773 955 1133.25 1435 1708> 1360 170<809.694 1210.32>
VStem: 122 340<425.636 936.643> 1461 340<571.492 1076.98>
LayerCount: 2
Fore
SplineSet
20 0 m 1,0,-1
 20 170 l 1,1,-1
 383 170 l 1,2,3
 122 350 122 350 122 651 c 0,4,5
 122 1041 122 1041 411 1299 c 0,6,7
 671 1530 671 1530 1044 1530 c 0,8,9
 1418 1530 1418 1530 1626 1316 c 0,10,11
 1801 1137 1801 1137 1801 859 c 0,12,13
 1801 457 1801 457 1512 224 c 24,14,15
 1476 195 1476 195 1435 170 c 1,16,-1
 1708 170 l 1,17,-1
 1708 0 l 1,18,-1
 955 0 l 1,19,-1
 955 170 l 1,20,21
 1157 189 1157 189 1264 307 c 24,22,23
 1461 523 1461 523 1461 836 c 0,24,25
 1461 1055 1461 1055 1342 1207 c 0,26,27
 1223 1360 1223 1360 1013 1360 c 0,28,29
 802 1360 802 1360 659 1203 c 0,30,31
 462 987 462 987 462 674 c 0,32,33
 462 425 462 425 581 292 c 24,34,35
 656 208 656 208 773 170 c 1,36,-1
 773 0 l 1,37,-1
 20 0 l 1,0,-1
EndSplineSet
Validated: 19457
EndChar

StartChar: estimated
Encoding: 8494 8494 179
Width: 1261
GlyphClass: 2
Flags: W
HStem: -20 183<451.95 808.867> 491 189<403 855> 935 185<449.039 809.176>
VStem: 70 333<316.826 491 680 791.88>
LayerCount: 2
Fore
SplineSet
629 -20 m 0,0,1
 378 -20 378 -20 224 145 c 128,-1,2
 70 310 70 310 70 553 c 0,3,4
 70 802 70 802 226 960 c 0,5,6
 384 1120 384 1120 626 1120 c 0,7,8
 869 1120 869 1120 1017 974 c 0,9,10
 1191 802 1191 802 1191 491 c 1,11,-1
 403 491 l 1,12,-1
 403 239 l 1,13,14
 498 163 498 163 629 163 c 0,15,16
 837 163 837 163 955 351 c 1,17,-1
 1119 255 l 1,18,19
 995 85 995 85 876 32.5 c 128,-1,20
 757 -20 757 -20 629 -20 c 0,0,1
855 680 m 1,21,-1
 855 862 l 1,22,23
 757 935 757 935 627 935 c 0,24,25
 495 935 495 935 403 861 c 1,26,-1
 403 680 l 1,27,-1
 855 680 l 1,21,-1
EndSplineSet
Validated: 1
EndChar

StartChar: partialdiff
Encoding: 8706 8706 180
Width: 1345
GlyphClass: 2
Flags: W
HStem: -20 273<462.903 676.396> 823 260<587.1 836.76> 1257 273<512.596 836.913>
VStem: 120 305<291.814 617.824> 916 309<1024 1178.17>
LayerCount: 2
Fore
SplineSet
542 -20 m 0,0,1
 272 -20 272 -20 173 171 c 0,2,3
 120 273 120 273 120 416 c 0,4,5
 120 673 120 673 274 878 c 128,-1,6
 428 1083 428 1083 700 1083 c 0,7,8
 819 1083 819 1083 916 1024 c 1,9,10
 913 1115 913 1115 875 1173 c 0,11,12
 818 1257 818 1257 696 1257 c 0,13,14
 541 1257 541 1257 390 1132 c 1,15,-1
 390 1443 l 1,16,17
 536 1530 536 1530 733 1530 c 0,18,19
 1050 1530 1050 1530 1166 1271 c 0,20,21
 1225 1139 1225 1139 1225 950 c 0,22,23
 1225 563 1225 563 1042 272 c 0,24,25
 861 -20 861 -20 542 -20 c 0,0,1
889 699 m 1,26,27
 868 756 868 756 825 788 c 0,28,29
 778 823 778 823 710 823 c 0,30,31
 601 823 601 823 520 706 c 0,32,33
 425 567 425 567 425 431 c 0,34,35
 425 344 425 344 463 295 c 0,36,37
 495 253 495 253 555 253 c 0,38,39
 662 253 662 253 757 376 c 128,-1,40
 852 499 852 499 889 699 c 1,26,27
EndSplineSet
Validated: 1
EndChar

StartChar: uni2206
Encoding: 8710 8710 181
Width: 1682
GlyphClass: 2
Flags: W
HStem: 0 170<269 1254> 1490 20G<672.046 1009.95>
DStem2: 5 0 269 170 0.408605 0.912711<263.033 1471.29> 1001 1510 760 1274 0.408605 -0.912711<116.926 1326.41>
LayerCount: 2
Fore
SplineSet
5 0 m 1,0,-1
 681 1510 l 1,1,-1
 1001 1510 l 1,2,-1
 1677 0 l 1,3,-1
 5 0 l 1,0,-1
269 170 m 1,4,-1
 1254 170 l 1,5,-1
 760 1274 l 1,6,-1
 269 170 l 1,4,-1
EndSplineSet
Validated: 1
EndChar

StartChar: product
Encoding: 8719 8719 182
Width: 1516
GlyphClass: 2
Flags: W
HStem: -410 21G<170 490 1026 1346> 1340 170<490 1026>
VStem: 170 320<-410 1340> 1026 320<-410 1340>
LayerCount: 2
Fore
SplineSet
170 -410 m 1,0,-1
 170 1510 l 1,1,-1
 1346 1510 l 1,2,-1
 1346 -410 l 1,3,-1
 1026 -410 l 1,4,-1
 1026 1340 l 1,5,-1
 490 1340 l 1,6,-1
 490 -410 l 1,7,-1
 170 -410 l 1,0,-1
EndSplineSet
Validated: 1
EndChar

StartChar: summation
Encoding: 8721 8721 183
Width: 1490
GlyphClass: 2
Flags: W
HStem: -410 170<586 1370> 1340 170<593 1279>
DStem2: 593 1340 120 1510 0.541984 -0.840389<0 713.356> 123 -410 586 -240 0.520222 0.854031<386.048 1153.35>
LayerCount: 2
Fore
SplineSet
123 -410 m 1,0,-1
 723 575 l 1,1,-1
 120 1510 l 1,2,-1
 1279 1510 l 1,3,-1
 1279 1340 l 1,4,-1
 593 1340 l 1,5,-1
 1084 578 l 1,6,-1
 586 -240 l 1,7,-1
 1370 -240 l 1,8,-1
 1370 -410 l 1,9,-1
 123 -410 l 1,0,-1
EndSplineSet
Validated: 1
EndChar

StartChar: minus
Encoding: 8722 8722 184
Width: 1240
GlyphClass: 2
Flags: W
HStem: 655 200<120 1120>
LayerCount: 2
Fore
SplineSet
120 855 m 1,0,-1
 1120 855 l 1,1,-1
 1120 655 l 1,2,-1
 120 655 l 1,3,-1
 120 855 l 1,0,-1
EndSplineSet
Validated: 1
EndChar

StartChar: uni2215
Encoding: 8725 8725 185
Width: 1119
GlyphClass: 2
Flags: W
HStem: 0 21G<10 277.166> 1490 20G<841.834 1109>
DStem2: 10 0 266 0 0.487458 0.873146<124.789 1729.38>
LayerCount: 2
Fore
SplineSet
10 0 m 1,0,-1
 853 1510 l 1,1,-1
 1109 1510 l 1,2,-1
 266 0 l 1,3,-1
 10 0 l 1,0,-1
EndSplineSet
Validated: 1
EndChar

StartChar: uni2219
Encoding: 8729 8729 186
Width: 404
GlyphClass: 2
Flags: W
HStem: 570 370<83.1396 320.86>
VStem: 20 364<632.578 877.422>
LayerCount: 2
Fore
SplineSet
202 940 m 128,-1,1
 278 940 278 940 331 886 c 128,-1,2
 384 832 384 832 384 755 c 128,-1,3
 384 678 384 678 331 624 c 128,-1,4
 278 570 278 570 202 570 c 128,-1,5
 126 570 126 570 73 624 c 128,-1,6
 20 678 20 678 20 755 c 128,-1,7
 20 832 20 832 73 886 c 128,-1,0
 126 940 126 940 202 940 c 128,-1,1
EndSplineSet
Validated: 1
EndChar

StartChar: radical
Encoding: 8730 8730 187
Width: 1681
GlyphClass: 2
Flags: W
HStem: 0 21G<508.036 845.955> 676 171<20 214> 1340 170<1437 1661>
DStem2: 485 847 214 676 0.409017 -0.912527<45.1984 669.215> 758 236 837 0 0.408665 0.912685<0 1285.09>
LayerCount: 2
Fore
SplineSet
517 0 m 1,0,-1
 214 676 l 1,1,-1
 20 676 l 1,2,-1
 20 847 l 1,3,-1
 485 847 l 1,4,-1
 758 236 l 1,5,-1
 1325 1510 l 1,6,-1
 1661 1510 l 1,7,-1
 1661 1340 l 1,8,-1
 1437 1340 l 1,9,-1
 837 0 l 1,10,-1
 517 0 l 1,0,-1
EndSplineSet
Validated: 1
EndChar

StartChar: infinity
Encoding: 8734 8734 188
Width: 1523
GlyphClass: 2
Flags: W
HStem: 417 118<385.162 578.809 915.852 1109.18> 975 116<414.825 606.053 945.191 1139.09>
VStem: 120 219<587.169 890.051> 653 218<618.546 891.454> 1185 218<617.922 923.754>
LayerCount: 2
Fore
SplineSet
519 975 m 0,0,1
 443 975 443 975 394 908 c 0,2,3
 339 834 339 834 339 730 c 0,4,5
 339 641 339 641 374 592 c 0,6,7
 413 535 413 535 473 535 c 0,8,9
 549 535 549 535 598 602 c 0,10,11
 653 676 653 676 653 780 c 0,12,13
 653 869 653 869 618 918 c 0,14,15
 578 975 578 975 519 975 c 0,0,1
1061 1091 m 0,16,17
 1236 1091 1236 1091 1328 993 c 0,18,19
 1403 912 1403 912 1403 778 c 0,20,21
 1403 641 1403 641 1288 531 c 0,22,23
 1168 417 1168 417 995 417 c 0,24,25
 827 417 827 417 733 511 c 1,26,27
 620 417 620 417 463 417 c 0,28,29
 290 417 290 417 196 516 c 0,30,31
 120 596 120 596 120 732.5 c 128,-1,32
 120 869 120 869 236 978 c 0,33,34
 356 1091 356 1091 529 1091 c 0,35,36
 699 1091 699 1091 791 998 c 1,37,38
 904 1091 904 1091 1061 1091 c 0,16,17
1051 975 m 0,39,40
 975 975 975 975 926 908 c 0,41,42
 871 834 871 834 871 730 c 0,43,44
 871 641 871 641 906 592 c 0,45,46
 945 535 945 535 1005 535 c 0,47,48
 1081 535 1081 535 1130 602 c 0,49,50
 1185 676 1185 676 1185 780 c 0,51,52
 1185 869 1185 869 1150 918 c 0,53,54
 1110 975 1110 975 1051 975 c 0,39,40
EndSplineSet
Validated: 1
EndChar

StartChar: approxequal
Encoding: 8776 8776 189
Width: 1242
GlyphClass: 2
Flags: W
HStem: 346 195<743.406 945.183> 547 195<298.239 498.594> 746 195<743.406 945.183> 947 195<298.239 498.594> 1088 20G<979.5 1048.45>
VStem: 120 121<424.958 484.987 824.958 884.987> 1001 121<601.421 663.042 1001.42 1063.04>
DStem2: 596 1085 496 904 0.829489 -0.558523<-94.3072 301.323> 596 685 496 504 0.829489 -0.558523<-94.3072 301.323>
LayerCount: 2
Fore
SplineSet
1001 708 m 1,0,-1
 1122 657 l 1,1,2
 1039 346 1039 346 830 346 c 0,3,4
 731 346 731 346 646 403 c 2,5,-1
 496 504 l 2,6,7
 432 547 432 547 388 547 c 0,8,9
 285 547 285 547 241 380 c 1,10,-1
 120 431 l 1,11,12
 203 742 203 742 412 742 c 0,13,14
 511 742 511 742 596 685 c 2,15,-1
 746 584 l 2,16,17
 810 541 810 541 864 541 c 0,18,19
 958 541 958 541 1001 708 c 1,0,-1
1001 1108 m 1,20,-1
 1122 1057 l 1,21,22
 1039 746 1039 746 830 746 c 0,23,24
 731 746 731 746 646 803 c 2,25,-1
 496 904 l 2,26,27
 432 947 432 947 388 947 c 0,28,29
 285 947 285 947 241 780 c 1,30,-1
 120 831 l 1,31,32
 203 1142 203 1142 412 1142 c 0,33,34
 511 1142 511 1142 596 1085 c 2,35,-1
 746 984 l 2,36,37
 810 941 810 941 864 941 c 0,38,39
 958 941 958 941 1001 1108 c 1,20,-1
EndSplineSet
Validated: 1
EndChar

StartChar: notequal
Encoding: 8800 8800 190
Width: 1240
GlyphClass: 2
Flags: W
HStem: 430 200<120 346 634 1120> 879 200<120 605 894 1120>
DStem2: 220 212 350 137 0.49983 0.866123<0.0186504 251.794 568.969 770.139 1087.81 1340.46>
LayerCount: 2
Fore
SplineSet
890 1373 m 1,0,-1
 1020 1298 l 1,1,-1
 894 1079 l 1,2,-1
 1120 1079 l 1,3,-1
 1120 879 l 1,4,-1
 778 879 l 1,5,-1
 634 630 l 1,6,-1
 1120 630 l 1,7,-1
 1120 430 l 1,8,-1
 519 430 l 1,9,-1
 350 137 l 1,10,-1
 220 212 l 1,11,-1
 346 430 l 1,12,-1
 120 430 l 1,13,-1
 120 630 l 1,14,-1
 461 630 l 1,15,-1
 605 879 l 1,16,-1
 120 879 l 1,17,-1
 120 1079 l 1,18,-1
 720 1079 l 1,19,-1
 890 1373 l 1,0,-1
EndSplineSet
Validated: 1
EndChar

StartChar: lessequal
Encoding: 8804 8804 191
Width: 1316
GlyphClass: 2
Flags: W
HStem: 100 200<170 1146>
DStem2: 170 1001 360 945 0.893693 0.448678<144.676 1024.8> 360 945 170 801 0.892591 -0.450868<0 877.866>
LayerCount: 2
Fore
SplineSet
170 1001 m 1,0,-1
 1146 1491 l 1,1,-1
 1146 1341 l 1,2,-1
 360 945 l 1,3,-1
 1146 554 l 1,4,-1
 1146 308 l 1,5,-1
 170 801 l 1,6,-1
 170 1001 l 1,0,-1
170 300 m 1,7,-1
 1146 300 l 1,8,-1
 1146 100 l 1,9,-1
 170 100 l 1,10,-1
 170 300 l 1,7,-1
EndSplineSet
Validated: 1
EndChar

StartChar: greaterequal
Encoding: 8805 8805 192
Width: 1316
GlyphClass: 2
Flags: W
HStem: 100 200<170 1146>
DStem2: 170 1491 170 1245 0.892591 -0.450868<110.914 988.779> 170 458 170 308 0.893693 0.448678<0 880.12>
LayerCount: 2
Fore
SplineSet
1146 798 m 1,0,-1
 170 308 l 1,1,-1
 170 458 l 1,2,-1
 956 854 l 1,3,-1
 170 1245 l 1,4,-1
 170 1491 l 1,5,-1
 1146 998 l 1,6,-1
 1146 798 l 1,0,-1
170 300 m 1,7,-1
 1146 300 l 1,8,-1
 1146 100 l 1,9,-1
 170 100 l 1,10,-1
 170 300 l 1,7,-1
EndSplineSet
Validated: 1
EndChar

StartChar: lozenge
Encoding: 9674 9674 193
Width: 1198
GlyphClass: 2
Flags: W
HStem: -20 21G<585.042 612.903> 1510 20G<585.641 612.409>
DStem2: 70 738 351 820 0.555427 0.831565<224.263 564.572> 351 820 70 738 0.5723 -0.820044<0 542.085> 599 1530 540 1103 0.556885 -0.83059<321.806 867.092> 662 376 599 -20 0.57078 0.821103<0 333.611>
LayerCount: 2
Fore
SplineSet
662 376 m 1,0,-1
 848 653 l 1,1,-1
 540 1103 l 1,2,-1
 351 820 l 1,3,-1
 662 376 l 1,0,-1
599 -20 m 1,4,-1
 70 738 l 1,5,-1
 599 1530 l 1,6,-1
 1128 741 l 1,7,-1
 599 -20 l 1,4,-1
EndSplineSet
Validated: 1
EndChar

StartChar: uni1E02
Encoding: 7682 7682 194
Width: 1558
Flags: W
HStem: -20 138<657.471 957.494> 0 21G<170 490> 32 114<586.959 724.309> 1346 184<742.83 986.753> 1490 20G<170 490> 1570 370<725.14 962.86>
VStem: 170 320<0 1077.46 1266 1510> 662 364<1632.58 1877.42> 1045 307<1027.09 1288.56> 1156 332<314.571 643.098>
LayerCount: 2
Fore
SplineSet
844 1940 m 128,-1,1
 920 1940 920 1940 973 1886 c 128,-1,2
 1026 1832 1026 1832 1026 1755 c 128,-1,3
 1026 1678 1026 1678 973 1624 c 128,-1,4
 920 1570 920 1570 844 1570 c 128,-1,5
 768 1570 768 1570 715 1624 c 128,-1,6
 662 1678 662 1678 662 1755 c 128,-1,7
 662 1832 662 1832 715 1886 c 128,-1,0
 768 1940 768 1940 844 1940 c 128,-1,1
170 0 m 1,8,-1
 170 1510 l 1,9,-1
 490 1510 l 1,10,-1
 490 1266 l 1,11,12
 683 1530 683 1530 944 1530 c 0,13,14
 1135 1530 1135 1530 1243.5 1429.5 c 128,-1,15
 1352 1329 1352 1329 1352 1188 c 0,16,17
 1352 996 1352 996 1138 861 c 1,18,19
 1272 840 1272 840 1360 770 c 0,20,21
 1488 668 1488 668 1488 502 c 128,-1,22
 1488 336 1488 336 1367 208 c 0,23,24
 1150 -20 1150 -20 835 -20 c 0,25,26
 728 -20 728 -20 644 32 c 0,27,28
 578 73 578 73 534 139 c 1,29,-1
 541 146 l 1,30,31
 641 118 641 118 727 118 c 0,32,33
 944 118 944 118 1053 229 c 0,34,35
 1156 334 1156 334 1156 493 c 0,36,37
 1156 604 1156 604 1085 676 c 0,38,39
 1013 749 1013 749 892 749 c 0,40,41
 788 749 788 749 687 729 c 1,42,-1
 687 739 l 1,43,44
 790 780 790 780 877 852 c 0,45,46
 1045 992 1045 992 1045 1161 c 0,47,48
 1045 1242 1045 1242 996.5 1294 c 128,-1,49
 948 1346 948 1346 865 1346 c 0,50,51
 736 1346 736 1346 633 1231 c 0,52,53
 490 1072 490 1072 490 867 c 2,54,-1
 490 0 l 1,55,-1
 170 0 l 1,8,-1
EndSplineSet
Validated: 1
EndChar

StartChar: uni1E03
Encoding: 7683 7683 195
Width: 1385
Flags: W
HStem: -20 150<528.916 784.425> 983 137<604.567 844.395> 1160 370<651.14 888.86> 1490 20G<170 470>
VStem: 170 300<193.403 1510> 588 364<1222.58 1467.42> 993 322<394.164 817.938>
LayerCount: 2
Fore
SplineSet
770 1530 m 128,-1,1
 846 1530 846 1530 899 1476 c 128,-1,2
 952 1422 952 1422 952 1345 c 128,-1,3
 952 1268 952 1268 899 1214 c 128,-1,4
 846 1160 846 1160 770 1160 c 128,-1,5
 694 1160 694 1160 641 1214 c 128,-1,6
 588 1268 588 1268 588 1345 c 128,-1,7
 588 1422 588 1422 641 1476 c 128,-1,0
 694 1530 694 1530 770 1530 c 128,-1,1
618 -20 m 0,8,9
 403 -20 403 -20 287 90 c 0,10,11
 170 200 170 200 170 395 c 2,12,-1
 170 1510 l 1,13,-1
 470 1510 l 1,14,-1
 470 400 l 2,15,16
 470 262 470 262 512 196 c 128,-1,17
 554 130 554 130 636 130 c 0,18,19
 768 130 768 130 869 248 c 0,20,21
 993 395 993 395 993 586 c 0,22,23
 993 778 993 778 911 878 c 0,24,25
 824 983 824 983 697 983 c 0,26,27
 595 983 595 983 510 954 c 1,28,-1
 503 961 l 1,29,30
 529 1013 529 1013 574 1053 c 0,31,32
 649 1120 649 1120 778 1120 c 0,33,34
 1024 1120 1024 1120 1184 958 c 0,35,36
 1315 825 1315 825 1315 620 c 0,37,38
 1315 362 1315 362 1112.5 171 c 128,-1,39
 910 -20 910 -20 618 -20 c 0,8,9
EndSplineSet
Validated: 1
EndChar

StartChar: uni1E0A
Encoding: 7690 7690 196
Width: 1796
Flags: W
HStem: -20 138<668.471 979.771> 0 21G<170 490> 32 114<597.959 735.309> 1360 170<761.871 1134.66> 1490 20G<170 490> 1570 370<820.14 1057.86>
VStem: 170 320<0 1078.35 1266 1510> 757 364<1632.58 1877.42> 1386 340<576.088 1077.38>
LayerCount: 2
Fore
SplineSet
939 1940 m 128,-1,1
 1015 1940 1015 1940 1068 1886 c 128,-1,2
 1121 1832 1121 1832 1121 1755 c 128,-1,3
 1121 1678 1121 1678 1068 1624 c 128,-1,4
 1015 1570 1015 1570 939 1570 c 128,-1,5
 863 1570 863 1570 810 1624 c 128,-1,6
 757 1678 757 1678 757 1755 c 128,-1,7
 757 1832 757 1832 810 1886 c 128,-1,0
 863 1940 863 1940 939 1940 c 128,-1,1
170 0 m 1,8,-1
 170 1510 l 1,9,-1
 490 1510 l 1,10,-1
 490 1266 l 1,11,12
 664 1530 664 1530 1000 1530 c 0,13,14
 1343 1530 1343 1530 1551 1316 c 0,15,16
 1726 1137 1726 1137 1726 859 c 0,17,18
 1726 469 1726 469 1437 211 c 0,19,20
 1178 -20 1178 -20 846 -20 c 0,21,22
 739 -20 739 -20 655 32 c 0,23,24
 589 73 589 73 545 139 c 1,25,-1
 552 146 l 1,26,27
 652 118 652 118 738 118 c 0,28,29
 1014 118 1014 118 1189 306 c 0,30,31
 1386 518 1386 518 1386 835 c 0,32,33
 1386 1057 1386 1057 1267 1207 c 0,34,35
 1146 1360 1146 1360 943 1360 c 0,36,37
 771 1360 771 1360 637 1225 c 0,38,39
 490 1077 490 1077 490 868 c 2,40,-1
 490 0 l 1,41,-1
 170 0 l 1,8,-1
EndSplineSet
Validated: 1
EndChar

StartChar: uni1E0B
Encoding: 7691 7691 197
Width: 1451
Flags: W
HStem: -20 158<510.177 791.849> 0 21G<981 1281> 983 137<614.357 865.352> 1160 370<537.14 774.86> 1490 20G<981 1281>
VStem: 70 321<281.388 710.09> 474 364<1222.58 1467.42> 981 300<0 179 350.84 1510>
LayerCount: 2
Fore
SplineSet
656 1530 m 128,-1,1
 732 1530 732 1530 785 1476 c 128,-1,2
 838 1422 838 1422 838 1345 c 128,-1,3
 838 1268 838 1268 785 1214 c 128,-1,4
 732 1160 732 1160 656 1160 c 128,-1,5
 580 1160 580 1160 527 1214 c 128,-1,6
 474 1268 474 1268 474 1345 c 128,-1,7
 474 1422 474 1422 527 1476 c 128,-1,0
 580 1530 580 1530 656 1530 c 128,-1,1
1281 0 m 1,8,-1
 981 0 l 1,9,-1
 981 179 l 1,10,11
 849 -20 849 -20 607 -20 c 0,12,13
 361 -20 361 -20 201 142 c 0,14,15
 70 275 70 275 70 480 c 0,16,17
 70 741 70 741 272 932 c 0,18,19
 471 1120 471 1120 710 1120 c 0,20,21
 816 1120 816 1120 879 1065 c 0,22,23
 918 1031 918 1031 948 971 c 1,24,-1
 941 964 l 1,25,26
 866 983 866 983 791 983 c 0,27,28
 621 983 621 983 510 852 c 0,29,30
 391 711 391 711 391 505 c 0,31,32
 391 335 391 335 464 232 c 0,33,34
 530 138 530 138 642 138 c 0,35,36
 753 138 753 138 840 220 c 0,37,38
 981 354 981 354 981 559 c 2,39,-1
 981 1510 l 1,40,-1
 1281 1510 l 1,41,-1
 1281 0 l 1,8,-1
EndSplineSet
Validated: 1
EndChar

StartChar: uni1E1E
Encoding: 7710 7710 198
Width: 1426
Flags: W
HStem: 0 21G<170 490> 670 170<490 1060> 1346 184<747.384 1052.09> 1490 20G<170 490> 1570 370<720.14 957.86>
VStem: 170 320<0 670 840 1100.61 1266 1510> 657 364<1632.58 1877.42>
LayerCount: 2
Fore
SplineSet
839 1940 m 128,-1,1
 915 1940 915 1940 968 1886 c 128,-1,2
 1021 1832 1021 1832 1021 1755 c 128,-1,3
 1021 1678 1021 1678 968 1624 c 128,-1,4
 915 1570 915 1570 839 1570 c 128,-1,5
 763 1570 763 1570 710 1624 c 128,-1,6
 657 1678 657 1678 657 1755 c 128,-1,7
 657 1832 657 1832 710 1886 c 128,-1,0
 763 1940 763 1940 839 1940 c 128,-1,1
170 0 m 1,8,-1
 170 1510 l 1,9,-1
 490 1510 l 1,10,-1
 490 1266 l 1,11,12
 664 1530 664 1530 984 1530 c 0,13,14
 1234 1530 1234 1530 1353 1397 c 0,15,16
 1395 1350 1395 1350 1421 1293 c 1,17,-1
 1139 1130 l 1,18,19
 1129 1221 1129 1221 1080 1276 c 0,20,21
 1017 1346 1017 1346 907 1346 c 0,22,23
 714 1346 714 1346 592 1196 c 0,24,25
 490 1071 490 1071 490 866 c 2,26,-1
 490 840 l 1,27,-1
 1060 840 l 1,28,-1
 1060 670 l 1,29,-1
 490 670 l 1,30,-1
 490 0 l 1,31,-1
 170 0 l 1,8,-1
EndSplineSet
Validated: 1
EndChar

StartChar: uni1E1F
Encoding: 7711 7711 199
Width: 1191
Flags: W
HStem: 0 21G<170 470> 680 150<70 170 470 942> 1380 150<697.967 991.585> 1570 370<511.14 748.86>
VStem: 170 300<0 680 830 1099.3> 448 364<1632.58 1877.42>
LayerCount: 2
Fore
SplineSet
630 1940 m 128,-1,1
 706 1940 706 1940 759 1886 c 128,-1,2
 812 1832 812 1832 812 1755 c 128,-1,3
 812 1678 812 1678 759 1624 c 128,-1,4
 706 1570 706 1570 630 1570 c 128,-1,5
 554 1570 554 1570 501 1624 c 128,-1,6
 448 1678 448 1678 448 1755 c 128,-1,7
 448 1832 448 1832 501 1886 c 128,-1,0
 554 1940 554 1940 630 1940 c 128,-1,1
170 0 m 1,8,-1
 170 680 l 1,9,-1
 70 680 l 1,10,-1
 70 830 l 1,11,-1
 170 830 l 1,12,13
 170 1147 170 1147 374 1340 c 0,14,15
 574 1530 574 1530 877 1530 c 0,16,17
 1038 1530 1038 1530 1186 1455 c 1,18,-1
 1051 1274 l 1,19,20
 977 1380 977 1380 859 1380 c 0,21,22
 689 1380 689 1380 556 1205 c 0,23,24
 470 1092 470 1092 470 830 c 1,25,-1
 942 830 l 1,26,-1
 942 680 l 1,27,-1
 470 680 l 1,28,-1
 470 0 l 1,29,-1
 170 0 l 1,8,-1
EndSplineSet
Validated: 1
EndChar

StartChar: uni1E40
Encoding: 7744 7744 200
Width: 2542
Flags: W
HStem: 0 21G<170 490 1111 1431 2052 2372> 1346 184<738.834 1022.95 1672.1 1971.32> 1490 20G<170 490> 1570 370<1148.14 1385.86>
VStem: 170 320<0 1086.92 1266 1510> 1085 364<1632.58 1877.42> 1111 320<0 1085.94> 2052 320<0 1260.17>
LayerCount: 2
Fore
SplineSet
1267 1940 m 128,-1,1
 1343 1940 1343 1940 1396 1886 c 128,-1,2
 1449 1832 1449 1832 1449 1755 c 128,-1,3
 1449 1678 1449 1678 1396 1624 c 128,-1,4
 1343 1570 1343 1570 1267 1570 c 128,-1,5
 1191 1570 1191 1570 1138 1624 c 128,-1,6
 1085 1678 1085 1678 1085 1755 c 128,-1,7
 1085 1832 1085 1832 1138 1886 c 128,-1,0
 1191 1940 1191 1940 1267 1940 c 128,-1,1
170 0 m 1,8,-1
 170 1510 l 1,9,-1
 490 1510 l 1,10,-1
 490 1266 l 1,11,12
 656 1530 656 1530 970 1530 c 0,13,14
 1302 1530 1302 1530 1395 1266 c 1,15,16
 1571 1530 1571 1530 1900 1530 c 0,17,18
 2136 1530 2136 1530 2265 1397 c 0,19,20
 2372 1287 2372 1287 2372 1089 c 2,21,-1
 2372 0 l 1,22,-1
 2052 0 l 1,23,-1
 2052 1083 l 2,24,25
 2052 1213 2052 1213 1997 1277 c 0,26,27
 1938 1346 1938 1346 1842 1346 c 0,28,29
 1686 1346 1686 1346 1566 1222 c 0,30,31
 1431 1084 1431 1084 1431 866 c 2,32,-1
 1431 0 l 1,33,-1
 1111 0 l 1,34,-1
 1111 1083 l 2,35,36
 1111 1207 1111 1207 1054 1274 c 0,37,38
 992 1346 992 1346 901 1346 c 0,39,40
 748 1346 748 1346 625 1222 c 0,41,42
 490 1086 490 1086 490 866 c 2,43,-1
 490 0 l 1,44,-1
 170 0 l 1,8,-1
EndSplineSet
Validated: 1
EndChar

StartChar: uni1E41
Encoding: 7745 7745 201
Width: 2144
Flags: W
HStem: 0 21G<170 470 922 1222 1674 1974> 950 170<650.367 877.951 1401.55 1631.3> 1080 20G<170 470> 1160 370<936.14 1173.86>
VStem: 170 300<0 748.177 921 1100> 873 364<1222.58 1467.42> 922 300<0 748.177> 1674 300<0 897.456>
LayerCount: 2
Fore
SplineSet
1055 1530 m 128,-1,1
 1131 1530 1131 1530 1184 1476 c 128,-1,2
 1237 1422 1237 1422 1237 1345 c 128,-1,3
 1237 1268 1237 1268 1184 1214 c 128,-1,4
 1131 1160 1131 1160 1055 1160 c 128,-1,5
 979 1160 979 1160 926 1214 c 128,-1,6
 873 1268 873 1268 873 1345 c 128,-1,7
 873 1422 873 1422 926 1476 c 128,-1,0
 979 1530 979 1530 1055 1530 c 128,-1,1
170 0 m 1,8,-1
 170 1100 l 1,9,-1
 470 1100 l 1,10,-1
 470 921 l 1,11,12
 612 1120 612 1120 859 1120 c 0,13,14
 1040 1120 1040 1120 1127 1013 c 0,15,16
 1163 970 1163 970 1186 903 c 1,17,18
 1349 1120 1349 1120 1591 1120 c 0,19,20
 1771 1120 1771 1120 1874 1020 c 0,21,22
 1974 923 1974 923 1974 752 c 2,23,-1
 1974 0 l 1,24,-1
 1674 0 l 1,25,-1
 1674 747 l 2,26,27
 1674 850 1674 850 1638 899 c 0,28,29
 1600 950 1600 950 1533 950 c 0,30,31
 1434 950 1434 950 1340 854 c 0,32,33
 1222 733 1222 733 1222 538 c 2,34,-1
 1222 0 l 1,35,-1
 922 0 l 1,36,-1
 922 747 l 2,37,38
 922 849 922 849 885 899 c 0,39,40
 847 950 847 950 781 950 c 0,41,42
 682 950 682 950 588 854 c 0,43,44
 470 733 470 733 470 538 c 2,45,-1
 470 0 l 1,46,-1
 170 0 l 1,8,-1
EndSplineSet
Validated: 1
EndChar

StartChar: uni1E56
Encoding: 7766 7766 202
Width: 1595
Flags: W
HStem: 0 21G<170 490> 344 138<668.471 943.601> 396 114<597.959 735.309> 1346 184<747.151 1048.23> 1490 20G<170 490> 1570 370<747.14 984.86>
VStem: 170 320<0 1086.13 1266 1510> 684 364<1632.58 1877.42> 1184 341<769.407 1203.72>
LayerCount: 2
Fore
SplineSet
866 1940 m 128,-1,1
 942 1940 942 1940 995 1886 c 128,-1,2
 1048 1832 1048 1832 1048 1755 c 128,-1,3
 1048 1678 1048 1678 995 1624 c 128,-1,4
 942 1570 942 1570 866 1570 c 128,-1,5
 790 1570 790 1570 737 1624 c 128,-1,6
 684 1678 684 1678 684 1755 c 128,-1,7
 684 1832 684 1832 737 1886 c 128,-1,0
 790 1940 790 1940 866 1940 c 128,-1,1
170 0 m 1,8,-1
 170 1510 l 1,9,-1
 490 1510 l 1,10,-1
 490 1266 l 1,11,12
 664 1530 664 1530 984 1530 c 0,13,14
 1215 1530 1215 1530 1371 1388 c 0,15,16
 1525 1247 1525 1247 1525 1022 c 0,17,18
 1525 693 1525 693 1275 493 c 0,19,20
 1089 344 1089 344 846 344 c 0,21,22
 739 344 739 344 655 396 c 0,23,24
 589 437 589 437 545 503 c 1,25,-1
 552 510 l 1,26,27
 652 482 652 482 738 482 c 0,28,29
 933 482 933 482 1045 602 c 0,30,31
 1184 751 1184 751 1184 1007 c 0,32,33
 1184 1168 1184 1168 1102 1257 c 0,34,35
 1021 1346 1021 1346 884 1346 c 0,36,37
 746 1346 746 1346 625 1222 c 0,38,39
 490 1084 490 1084 490 867 c 2,40,-1
 490 0 l 1,41,-1
 170 0 l 1,8,-1
EndSplineSet
Validated: 1
EndChar

StartChar: uni1E57
Encoding: 7767 7767 203
Width: 1451
Flags: W
HStem: -410 21G<170 470> -20 137<585.648 836.643> 962 158<659.151 940.823> 1080 20G<170 470> 1160 370<644.14 881.86>
VStem: 170 300<-410 749.16 921 1100> 581 364<1222.58 1467.42> 1060 321<389.91 818.612>
LayerCount: 2
Fore
SplineSet
763 1530 m 128,-1,1
 839 1530 839 1530 892 1476 c 128,-1,2
 945 1422 945 1422 945 1345 c 128,-1,3
 945 1268 945 1268 892 1214 c 128,-1,4
 839 1160 839 1160 763 1160 c 128,-1,5
 687 1160 687 1160 634 1214 c 128,-1,6
 581 1268 581 1268 581 1345 c 128,-1,7
 581 1422 581 1422 634 1476 c 128,-1,0
 687 1530 687 1530 763 1530 c 128,-1,1
741 -20 m 0,8,9
 635 -20 635 -20 572 35 c 0,10,11
 533 69 533 69 503 129 c 1,12,-1
 510 136 l 1,13,14
 585 117 585 117 660 117 c 0,15,16
 830 117 830 117 941 248 c 0,17,18
 1060 389 1060 389 1060 595 c 0,19,20
 1060 765 1060 765 987 868 c 0,21,22
 921 962 921 962 809 962 c 0,23,24
 698 962 698 962 611 880 c 0,25,26
 470 746 470 746 470 541 c 2,27,-1
 470 -410 l 1,28,-1
 170 -410 l 1,29,-1
 170 1100 l 1,30,-1
 470 1100 l 1,31,-1
 470 921 l 1,32,33
 602 1120 602 1120 844 1120 c 0,34,35
 1090 1120 1090 1120 1250 958 c 0,36,37
 1381 825 1381 825 1381 620 c 0,38,39
 1381 359 1381 359 1179 168 c 0,40,41
 980 -20 980 -20 741 -20 c 0,8,9
EndSplineSet
Validated: 1
EndChar

StartChar: uni1E60
Encoding: 7776 7776 204
Width: 1352
Flags: W
HStem: -20 170<484.601 829.605> 1358 172<629.202 900.453> 1570 370<603.14 840.86>
VStem: 259 308<1103.99 1297.82> 540 364<1632.58 1877.42> 958 324<306.544 561.011>
DStem2: 706 1042 528 766 0.904679 -0.426094<-163.301 434.095>
LayerCount: 2
Fore
SplineSet
655 -20 m 0,0,1
 302 -20 302 -20 70 232 c 1,2,-1
 318 363 l 1,3,4
 440 150 440 150 668 150 c 0,5,6
 819 150 819 150 900 264 c 0,7,8
 958 346 958 346 958 449 c 0,9,10
 958 564 958 564 815 631 c 2,11,-1
 528 766 l 2,12,13
 259 893 259 893 259 1134 c 0,14,15
 259 1302 259 1302 405 1416 c 128,-1,16
 551 1530 551 1530 750 1530 c 0,17,18
 1018 1530 1018 1530 1179 1365 c 1,19,-1
 974 1220 l 1,20,21
 907 1358 907 1358 766 1358 c 0,22,23
 677 1358 677 1358 626 1313 c 0,24,25
 567 1262 567 1262 567 1197 c 0,26,27
 567 1107 567 1107 706 1042 c 2,28,-1
 999 904 l 2,29,30
 1282 771 1282 771 1282 505 c 0,31,32
 1282 322 1282 322 1151 179 c 0,33,34
 969 -20 969 -20 655 -20 c 0,0,1
722 1940 m 128,-1,36
 798 1940 798 1940 851 1886 c 128,-1,37
 904 1832 904 1832 904 1755 c 128,-1,38
 904 1678 904 1678 851 1624 c 128,-1,39
 798 1570 798 1570 722 1570 c 128,-1,40
 646 1570 646 1570 593 1624 c 128,-1,41
 540 1678 540 1678 540 1755 c 128,-1,42
 540 1832 540 1832 593 1886 c 128,-1,35
 646 1940 646 1940 722 1940 c 128,-1,36
EndSplineSet
Validated: 1
EndChar

StartChar: uni1E61
Encoding: 7777 7777 205
Width: 1086
Flags: W
HStem: -20 152<371.129 658.24> 968 152<513.177 723.571> 1160 370<461.14 698.86>
VStem: 207 273<715.5 939.747> 398 364<1222.58 1467.42> 729 287<200.705 399.517>
DStem2: 810 673 398 538 0.910496 -0.413517<-379.683 60.2033>
LayerCount: 2
Fore
SplineSet
527 -20 m 0,0,1
 247 -20 247 -20 70 180 c 1,2,-1
 286 293 l 1,3,4
 351 132 351 132 516 132 c 0,5,6
 620 132 620 132 682 196 c 0,7,8
 729 244 729 244 729 311 c 0,9,10
 729 388 729 388 638 429 c 2,11,-1
 398 538 l 2,12,13
 207 625 207 625 207 806 c 0,14,15
 207 941 207 941 325 1032 c 0,16,17
 440 1120 440 1120 623 1120 c 0,18,19
 833 1120 833 1120 940 987 c 1,20,-1
 768 866 l 1,21,22
 713 968 713 968 619 968 c 0,23,24
 556 968 556 968 520 940 c 0,25,26
 480 908 480 908 480 866 c 0,27,28
 480 822 480 822 576 779 c 2,29,-1
 810 673 l 2,30,31
 1016 580 1016 580 1016 372 c 0,32,33
 1016 190 1016 190 860 76 c 0,34,35
 728 -20 728 -20 527 -20 c 0,0,1
580 1530 m 128,-1,37
 656 1530 656 1530 709 1476 c 128,-1,38
 762 1422 762 1422 762 1345 c 128,-1,39
 762 1268 762 1268 709 1214 c 128,-1,40
 656 1160 656 1160 580 1160 c 128,-1,41
 504 1160 504 1160 451 1214 c 128,-1,42
 398 1268 398 1268 398 1345 c 128,-1,43
 398 1422 398 1422 451 1476 c 128,-1,36
 504 1530 504 1530 580 1530 c 128,-1,37
EndSplineSet
Validated: 1
EndChar

StartChar: uni1E6A
Encoding: 7786 7786 206
Width: 1260
Flags: W
HStem: 0 21G<470 790> 1340 170<10 470 790 1250> 1570 370<513.14 750.86>
VStem: 450 364<1632.58 1877.42> 470 320<0 1340>
LayerCount: 2
Fore
SplineSet
632 1940 m 128,-1,1
 708 1940 708 1940 761 1886 c 128,-1,2
 814 1832 814 1832 814 1755 c 128,-1,3
 814 1678 814 1678 761 1624 c 128,-1,4
 708 1570 708 1570 632 1570 c 128,-1,5
 556 1570 556 1570 503 1624 c 128,-1,6
 450 1678 450 1678 450 1755 c 128,-1,7
 450 1832 450 1832 503 1886 c 128,-1,0
 556 1940 556 1940 632 1940 c 128,-1,1
470 0 m 1,8,-1
 470 1340 l 1,9,-1
 10 1340 l 1,10,-1
 10 1510 l 1,11,-1
 1250 1510 l 1,12,-1
 1250 1340 l 1,13,-1
 790 1340 l 1,14,-1
 790 0 l 1,15,-1
 470 0 l 1,8,-1
EndSplineSet
Validated: 1
EndChar

StartChar: uni1E6B
Encoding: 7787 7787 207
Width: 780
Flags: W
HStem: -20 150<509.722 630> 950 150<30 170 470 770> 1490 20G<170 470> 1570 370<206.14 443.86>
VStem: 143 364<1632.58 1877.42> 170 300<167.963 950 1100 1510>
LayerCount: 2
Fore
SplineSet
325 1940 m 128,-1,1
 401 1940 401 1940 454 1886 c 128,-1,2
 507 1832 507 1832 507 1755 c 128,-1,3
 507 1678 507 1678 454 1624 c 128,-1,4
 401 1570 401 1570 325 1570 c 128,-1,5
 249 1570 249 1570 196 1624 c 128,-1,6
 143 1678 143 1678 143 1755 c 128,-1,7
 143 1832 143 1832 196 1886 c 128,-1,0
 249 1940 249 1940 325 1940 c 128,-1,1
630 -20 m 1,8,9
 170 -20 170 -20 170 276 c 2,10,-1
 170 950 l 1,11,-1
 30 950 l 1,12,-1
 30 1100 l 1,13,-1
 170 1100 l 1,14,-1
 170 1510 l 1,15,-1
 470 1510 l 1,16,-1
 470 1100 l 1,17,-1
 770 1100 l 1,18,-1
 770 950 l 1,19,-1
 470 950 l 1,20,-1
 470 280 l 2,21,22
 470 130 470 130 630 130 c 1,23,-1
 630 -20 l 1,8,9
EndSplineSet
Validated: 1
EndChar

StartChar: Wgrave
Encoding: 7808 7808 208
Width: 2475
Flags: W
HStem: -20 184<570.679 869.896 1519.05 1792.93> 1490 20G<170 490 1111 1431 1704 2174.5>
VStem: 170 320<249.834 1510> 1111 320<424.062 1510> 2105 300<581.825 1082.27>
LayerCount: 2
Fore
SplineSet
1214 1970 m 1,0,-1
 1398 1641 l 1,1,-1
 1272 1550 l 1,2,-1
 1021 1835 l 1,3,-1
 1214 1970 l 1,0,-1
642 -20 m 0,4,5
 406 -20 406 -20 277 113 c 0,6,7
 170 223 170 223 170 421 c 2,8,-1
 170 1510 l 1,9,-1
 490 1510 l 1,10,-1
 490 427 l 2,11,12
 490 297 490 297 545 233 c 0,13,14
 604 164 604 164 700 164 c 0,15,16
 856 164 856 164 976 288 c 0,17,18
 1111 426 1111 426 1111 644 c 2,19,-1
 1111 1510 l 1,20,-1
 1431 1510 l 1,21,-1
 1431 427 l 2,22,23
 1431 303 1431 303 1488 236 c 0,24,25
 1550 164 1550 164 1641 164 c 0,26,27
 1792 164 1792 164 1923 320 c 0,28,29
 2105 535 2105 535 2105 838 c 0,30,31
 2105 1041 2105 1041 1999 1203 c 0,32,33
 1894 1364 1894 1364 1704 1510 c 1,34,-1
 2111 1510 l 1,35,36
 2238 1402 2238 1402 2316 1250 c 0,37,38
 2405 1076 2405 1076 2405 858 c 0,39,40
 2405 486 2405 486 2116 211 c 0,41,42
 1874 -20 1874 -20 1572 -20 c 0,43,44
 1240 -20 1240 -20 1147 244 c 1,45,46
 971 -20 971 -20 642 -20 c 0,4,5
EndSplineSet
Validated: 1
EndChar

StartChar: wgrave
Encoding: 7809 7809 209
Width: 2052
Flags: W
HStem: -20 170<512.705 742.451 1265.62 1514.06> 1080 20G<170 470 922 1222 1391 1817.5>
VStem: 170 300<202.544 1100> 922 300<351.823 1100> 1704 278<391.051 809.006>
LayerCount: 2
Fore
SplineSet
1015 1560 m 1,0,-1
 1199 1231 l 1,1,-1
 1073 1140 l 1,2,-1
 822 1425 l 1,3,-1
 1015 1560 l 1,0,-1
553 -20 m 0,4,5
 373 -20 373 -20 270 80 c 0,6,7
 170 177 170 177 170 348 c 2,8,-1
 170 1100 l 1,9,-1
 470 1100 l 1,10,-1
 470 353 l 2,11,12
 470 250 470 250 506 201 c 0,13,14
 544 150 544 150 611 150 c 0,15,16
 710 150 710 150 804 246 c 0,17,18
 922 367 922 367 922 562 c 2,19,-1
 922 1100 l 1,20,-1
 1222 1100 l 1,21,-1
 1222 353 l 2,22,23
 1222 251 1222 251 1259 201 c 0,24,25
 1297 150 1297 150 1368 150 c 0,26,27
 1506 150 1506 150 1606 282 c 0,28,29
 1704 413 1704 413 1704 586 c 0,30,31
 1704 740 1704 740 1632 864 c 0,32,33
 1553 1001 1553 1001 1391 1100 c 1,34,-1
 1765 1100 l 1,35,36
 1870 1012 1870 1012 1926 892 c 128,-1,37
 1982 772 1982 772 1982 619 c 0,38,39
 1982 360 1982 360 1779 170 c 128,-1,40
 1576 -20 1576 -20 1303 -20 c 0,41,42
 1108 -20 1108 -20 1017 87 c 0,43,44
 981 130 981 130 958 197 c 1,45,46
 795 -20 795 -20 553 -20 c 0,4,5
EndSplineSet
Validated: 1
EndChar

StartChar: Wacute
Encoding: 7810 7810 210
Width: 2475
Flags: W
HStem: -20 184<570.679 869.896 1519.05 1792.93> 1490 20G<170 490 1111 1431 1704 2174.5>
VStem: 170 320<249.834 1510> 1111 320<424.062 1510> 2105 300<581.825 1082.27>
LayerCount: 2
Fore
SplineSet
1338 1970 m 1,0,-1
 1531 1835 l 1,1,-1
 1280 1550 l 1,2,-1
 1154 1641 l 1,3,-1
 1338 1970 l 1,0,-1
642 -20 m 0,4,5
 406 -20 406 -20 277 113 c 0,6,7
 170 223 170 223 170 421 c 2,8,-1
 170 1510 l 1,9,-1
 490 1510 l 1,10,-1
 490 427 l 2,11,12
 490 297 490 297 545 233 c 0,13,14
 604 164 604 164 700 164 c 0,15,16
 856 164 856 164 976 288 c 0,17,18
 1111 426 1111 426 1111 644 c 2,19,-1
 1111 1510 l 1,20,-1
 1431 1510 l 1,21,-1
 1431 427 l 2,22,23
 1431 303 1431 303 1488 236 c 0,24,25
 1550 164 1550 164 1641 164 c 0,26,27
 1792 164 1792 164 1923 320 c 0,28,29
 2105 535 2105 535 2105 838 c 0,30,31
 2105 1041 2105 1041 1999 1203 c 0,32,33
 1894 1364 1894 1364 1704 1510 c 1,34,-1
 2111 1510 l 1,35,36
 2238 1402 2238 1402 2316 1250 c 0,37,38
 2405 1076 2405 1076 2405 858 c 0,39,40
 2405 486 2405 486 2116 211 c 0,41,42
 1874 -20 1874 -20 1572 -20 c 0,43,44
 1240 -20 1240 -20 1147 244 c 1,45,46
 971 -20 971 -20 642 -20 c 0,4,5
EndSplineSet
Validated: 1
EndChar

StartChar: wacute
Encoding: 7811 7811 211
Width: 2052
Flags: W
HStem: -20 170<512.705 742.451 1265.62 1514.06> 1080 20G<170 470 922 1222 1391 1817.5>
VStem: 170 300<202.544 1100> 922 300<351.823 1100> 1704 278<391.051 809.006>
LayerCount: 2
Fore
SplineSet
1142 1560 m 1,0,-1
 1335 1425 l 1,1,-1
 1084 1140 l 1,2,-1
 958 1231 l 1,3,-1
 1142 1560 l 1,0,-1
553 -20 m 0,4,5
 373 -20 373 -20 270 80 c 0,6,7
 170 177 170 177 170 348 c 2,8,-1
 170 1100 l 1,9,-1
 470 1100 l 1,10,-1
 470 353 l 2,11,12
 470 250 470 250 506 201 c 0,13,14
 544 150 544 150 611 150 c 0,15,16
 710 150 710 150 804 246 c 0,17,18
 922 367 922 367 922 562 c 2,19,-1
 922 1100 l 1,20,-1
 1222 1100 l 1,21,-1
 1222 353 l 2,22,23
 1222 251 1222 251 1259 201 c 0,24,25
 1297 150 1297 150 1368 150 c 0,26,27
 1506 150 1506 150 1606 282 c 0,28,29
 1704 413 1704 413 1704 586 c 0,30,31
 1704 740 1704 740 1632 864 c 0,32,33
 1553 1001 1553 1001 1391 1100 c 1,34,-1
 1765 1100 l 1,35,36
 1870 1012 1870 1012 1926 892 c 128,-1,37
 1982 772 1982 772 1982 619 c 0,38,39
 1982 360 1982 360 1779 170 c 128,-1,40
 1576 -20 1576 -20 1303 -20 c 0,41,42
 1108 -20 1108 -20 1017 87 c 0,43,44
 981 130 981 130 958 197 c 1,45,46
 795 -20 795 -20 553 -20 c 0,4,5
EndSplineSet
Validated: 1
EndChar

StartChar: Wdieresis
Encoding: 7812 7812 212
Width: 2475
Flags: W
HStem: -20 184<570.679 869.896 1519.05 1792.93> 1490 20G<170 490 1111 1431 1704 2174.5> 1600 282<1009.25 1204.75 1344.29 1539.71>
VStem: 170 320<249.834 1510> 968 278<1642.29 1839.71> 1111 320<424.062 1510> 1302 280<1642.29 1839.71> 2105 300<581.825 1082.27>
LayerCount: 2
Fore
SplineSet
1442 1882 m 128,-1,1
 1500 1882 1500 1882 1541 1841 c 128,-1,2
 1582 1800 1582 1800 1582 1741 c 128,-1,3
 1582 1682 1582 1682 1541 1641 c 128,-1,4
 1500 1600 1500 1600 1442 1600 c 128,-1,5
 1384 1600 1384 1600 1343 1641 c 128,-1,6
 1302 1682 1302 1682 1302 1741 c 128,-1,7
 1302 1800 1302 1800 1343 1841 c 128,-1,0
 1384 1882 1384 1882 1442 1882 c 128,-1,1
1107 1882 m 128,-1,9
 1166 1882 1166 1882 1206 1841 c 128,-1,10
 1246 1800 1246 1800 1246 1741 c 128,-1,11
 1246 1682 1246 1682 1206 1641 c 128,-1,12
 1166 1600 1166 1600 1107 1600 c 128,-1,13
 1048 1600 1048 1600 1008 1641 c 128,-1,14
 968 1682 968 1682 968 1741 c 128,-1,15
 968 1800 968 1800 1008 1841 c 128,-1,8
 1048 1882 1048 1882 1107 1882 c 128,-1,9
642 -20 m 0,16,17
 406 -20 406 -20 277 113 c 0,18,19
 170 223 170 223 170 421 c 2,20,-1
 170 1510 l 1,21,-1
 490 1510 l 1,22,-1
 490 427 l 2,23,24
 490 297 490 297 545 233 c 0,25,26
 604 164 604 164 700 164 c 0,27,28
 856 164 856 164 976 288 c 0,29,30
 1111 426 1111 426 1111 644 c 2,31,-1
 1111 1510 l 1,32,-1
 1431 1510 l 1,33,-1
 1431 427 l 2,34,35
 1431 303 1431 303 1488 236 c 0,36,37
 1550 164 1550 164 1641 164 c 0,38,39
 1792 164 1792 164 1923 320 c 0,40,41
 2105 535 2105 535 2105 838 c 0,42,43
 2105 1041 2105 1041 1999 1203 c 0,44,45
 1894 1364 1894 1364 1704 1510 c 1,46,-1
 2111 1510 l 1,47,48
 2238 1402 2238 1402 2316 1250 c 0,49,50
 2405 1076 2405 1076 2405 858 c 0,51,52
 2405 486 2405 486 2116 211 c 0,53,54
 1874 -20 1874 -20 1572 -20 c 0,55,56
 1240 -20 1240 -20 1147 244 c 1,57,58
 971 -20 971 -20 642 -20 c 0,16,17
EndSplineSet
Validated: 1
EndChar

StartChar: wdieresis
Encoding: 7813 7813 213
Width: 2052
Flags: W
HStem: -20 170<512.705 742.451 1265.62 1514.06> 1080 20G<170 470 922 1222 1391 1817.5> 1190 282<809.255 1004.75 1144.29 1339.71>
VStem: 170 300<202.544 1100> 768 278<1232.29 1429.71> 922 300<351.823 1100> 1102 280<1232.29 1429.71> 1704 278<391.051 809.006>
LayerCount: 2
Fore
SplineSet
1242 1472 m 128,-1,1
 1300 1472 1300 1472 1341 1431 c 128,-1,2
 1382 1390 1382 1390 1382 1331 c 128,-1,3
 1382 1272 1382 1272 1341 1231 c 128,-1,4
 1300 1190 1300 1190 1242 1190 c 128,-1,5
 1184 1190 1184 1190 1143 1231 c 128,-1,6
 1102 1272 1102 1272 1102 1331 c 128,-1,7
 1102 1390 1102 1390 1143 1431 c 128,-1,0
 1184 1472 1184 1472 1242 1472 c 128,-1,1
907 1472 m 128,-1,9
 966 1472 966 1472 1006 1431 c 128,-1,10
 1046 1390 1046 1390 1046 1331 c 128,-1,11
 1046 1272 1046 1272 1006 1231 c 128,-1,12
 966 1190 966 1190 907 1190 c 128,-1,13
 848 1190 848 1190 808 1231 c 128,-1,14
 768 1272 768 1272 768 1331 c 128,-1,15
 768 1390 768 1390 808 1431 c 128,-1,8
 848 1472 848 1472 907 1472 c 128,-1,9
553 -20 m 0,16,17
 373 -20 373 -20 270 80 c 0,18,19
 170 177 170 177 170 348 c 2,20,-1
 170 1100 l 1,21,-1
 470 1100 l 1,22,-1
 470 353 l 2,23,24
 470 250 470 250 506 201 c 0,25,26
 544 150 544 150 611 150 c 0,27,28
 710 150 710 150 804 246 c 0,29,30
 922 367 922 367 922 562 c 2,31,-1
 922 1100 l 1,32,-1
 1222 1100 l 1,33,-1
 1222 353 l 2,34,35
 1222 251 1222 251 1259 201 c 0,36,37
 1297 150 1297 150 1368 150 c 0,38,39
 1506 150 1506 150 1606 282 c 0,40,41
 1704 413 1704 413 1704 586 c 0,42,43
 1704 740 1704 740 1632 864 c 0,44,45
 1553 1001 1553 1001 1391 1100 c 1,46,-1
 1765 1100 l 1,47,48
 1870 1012 1870 1012 1926 892 c 128,-1,49
 1982 772 1982 772 1982 619 c 0,50,51
 1982 360 1982 360 1779 170 c 128,-1,52
 1576 -20 1576 -20 1303 -20 c 0,53,54
 1108 -20 1108 -20 1017 87 c 0,55,56
 981 130 981 130 958 197 c 1,57,58
 795 -20 795 -20 553 -20 c 0,16,17
EndSplineSet
Validated: 1
EndChar

StartChar: Ygrave
Encoding: 7922 7922 214
Width: 1524
Flags: W
HStem: 0 21G<588 908> 1490 20G<5 364.703 1311.73 1519>
VStem: 588 320<0 422>
DStem2: 354 1510 5 1510 0.472311 -0.881432<0 1000.35> 826 628 908 423 0.489995 0.871725<0 1012.39>
LayerCount: 2
Fore
SplineSet
795 1970 m 1,0,-1
 979 1641 l 1,1,-1
 853 1550 l 1,2,-1
 602 1835 l 1,3,-1
 795 1970 l 1,0,-1
588 0 m 1,4,-1
 588 422 l 1,5,-1
 5 1510 l 1,6,-1
 354 1510 l 1,7,-1
 826 628 l 1,8,-1
 1323 1510 l 1,9,-1
 1519 1510 l 1,10,-1
 908 423 l 1,11,-1
 908 0 l 1,12,-1
 588 0 l 1,4,-1
EndSplineSet
Validated: 19457
EndChar

StartChar: ygrave
Encoding: 7923 7923 215
Width: 1422
Flags: W
HStem: -430 150<430.415 733.502> -20 170<519.528 749.987> 1080 20G<170 470 952 1252>
VStem: 170 300<214.542 1100> 952 300<353.405 1100>
LayerCount: 2
Fore
SplineSet
630 1560 m 1,0,-1
 814 1231 l 1,1,-1
 688 1140 l 1,2,-1
 437 1425 l 1,3,-1
 630 1560 l 1,0,-1
532 -20 m 0,4,5
 368 -20 368 -20 269 76 c 128,-1,6
 170 172 170 172 170 348 c 2,7,-1
 170 1100 l 1,8,-1
 470 1100 l 1,9,-1
 470 353 l 2,10,11
 470 262 470 262 503 213 c 0,12,13
 546 150 546 150 622 150 c 0,14,15
 766 150 766 150 866 285 c 0,16,17
 952 400 952 400 952 562 c 2,18,-1
 952 1100 l 1,19,-1
 1252 1100 l 1,20,-1
 1252 267 l 2,21,22
 1252 -47 1252 -47 1048 -240 c 0,23,24
 848 -430 848 -430 545 -430 c 0,25,26
 384 -430 384 -430 236 -355 c 1,27,-1
 371 -174 l 1,28,29
 445 -280 445 -280 563 -280 c 0,30,31
 754 -280 754 -280 866 -105 c 0,32,33
 939 9 939 9 952 180 c 1,34,35
 782 -20 782 -20 532 -20 c 0,4,5
EndSplineSet
Validated: 1
EndChar

StartChar: circumflex
Encoding: 710 710 216
Width: 642
Flags: W
HStem: 1140 420
VStem: 20 602
LayerCount: 2
Fore
SplineSet
321 1560 m 1,0,-1
 622 1234 l 1,1,-1
 473 1140 l 1,2,-1
 320 1345 l 1,3,-1
 168 1140 l 1,4,-1
 20 1234 l 1,5,-1
 321 1560 l 1,0,-1
EndSplineSet
Validated: 1
EndChar

StartChar: caron
Encoding: 711 711 217
Width: 642
Flags: W
HStem: 1140 420
VStem: 20 602
LayerCount: 2
Fore
SplineSet
169 1560 m 1,0,-1
 322 1355 l 1,1,-1
 474 1560 l 1,2,-1
 622 1466 l 1,3,-1
 321 1140 l 1,4,-1
 20 1466 l 1,5,-1
 169 1560 l 1,0,-1
EndSplineSet
Validated: 1
EndChar

StartChar: uni02C9
Encoding: 713 713 218
Width: 680
Flags: W
HStem: 1255 170<20 660>
VStem: 20 640<1255 1425>
LayerCount: 2
Fore
SplineSet
20 1425 m 1,0,-1
 660 1425 l 1,1,-1
 660 1255 l 1,2,-1
 20 1255 l 1,3,-1
 20 1425 l 1,0,-1
EndSplineSet
Validated: 1
EndChar

StartChar: breve
Encoding: 728 728 219
Width: 680
Flags: W
HStem: 1228 171<121.46 561.662>
VStem: 20 640<1284.13 1399>
LayerCount: 2
Fore
SplineSet
20 1496 m 1,0,1
 170 1399 170 1399 340 1399 c 0,2,3
 517 1399 517 1399 660 1496 c 1,4,-1
 660 1304 l 1,5,6
 524 1228 524 1228 340 1228 c 0,7,8
 163 1228 163 1228 20 1304 c 1,9,-1
 20 1496 l 1,0,1
EndSplineSet
Validated: 1
EndChar

StartChar: ring
Encoding: 730 730 220
Width: 404
Flags: W
HStem: 1160 92<131.054 272.946> 1438 92<131.054 272.946>
VStem: 20 91<1272.75 1417.25> 293 91<1272.75 1417.25>
LayerCount: 2
Fore
SplineSet
202 1438 m 128,-1,1
 164 1438 164 1438 137.5 1411 c 128,-1,2
 111 1384 111 1384 111 1345 c 128,-1,3
 111 1306 111 1306 137.5 1279 c 128,-1,4
 164 1252 164 1252 202 1252 c 128,-1,5
 240 1252 240 1252 266.5 1279 c 128,-1,6
 293 1306 293 1306 293 1345 c 128,-1,7
 293 1384 293 1384 266.5 1411 c 128,-1,0
 240 1438 240 1438 202 1438 c 128,-1,1
202 1530 m 128,-1,9
 278 1530 278 1530 331 1476 c 128,-1,10
 384 1422 384 1422 384 1345 c 128,-1,11
 384 1268 384 1268 331 1214 c 128,-1,12
 278 1160 278 1160 202 1160 c 128,-1,13
 126 1160 126 1160 73 1214 c 128,-1,14
 20 1268 20 1268 20 1345 c 128,-1,15
 20 1422 20 1422 73 1476 c 128,-1,8
 126 1530 126 1530 202 1530 c 128,-1,9
EndSplineSet
Validated: 1
EndChar

StartChar: tilde
Encoding: 732 732 221
Width: 680
Flags: W
HStem: 1195 170<361.438 632.902> 1289 170<47.0981 318.562>
VStem: 20 640
LayerCount: 2
Fore
SplineSet
190 1459 m 0,0,1
 255 1459 255 1459 356 1412 c 128,-1,2
 457 1365 457 1365 510 1365 c 0,3,4
 619 1365 619 1365 660 1447 c 1,5,-1
 660 1258 l 1,6,7
 603 1195 603 1195 490 1195 c 0,8,9
 425 1195 425 1195 324 1242 c 128,-1,10
 223 1289 223 1289 170 1289 c 0,11,12
 61 1289 61 1289 20 1207 c 1,13,-1
 20 1396 l 1,14,15
 77 1459 77 1459 190 1459 c 0,0,1
EndSplineSet
Validated: 1
EndChar

StartChar: uni1E9E
Encoding: 7838 7838 222
Width: 1558
Flags: W
HStem: -20 138<657.471 957.494> 0 21G<170 490> 32 114<586.959 724.309> 1346 184<742.83 986.54> 1490 20G<170 490>
VStem: 170 320<0 1077.46 1266 1510> 1156 332<314.571 642.025>
LayerCount: 2
Fore
SplineSet
170 0 m 1,0,-1
 170 1510 l 1,1,-1
 490 1510 l 1,2,-1
 490 1266 l 1,3,4
 683 1530 683 1530 944 1530 c 0,5,6
 1135 1530 1135 1530 1243.5 1429.5 c 128,-1,7
 1352 1329 1352 1329 1352 1188 c 1,8,9
 1097 1130 1097 1130 1002 894 c 1,10,11
 1215 894 1215 894 1347 792 c 0,12,13
 1488 682 1488 682 1488 502 c 0,14,15
 1488 336 1488 336 1367 208 c 0,16,17
 1150 -20 1150 -20 835 -20 c 0,18,19
 728 -20 728 -20 644 32 c 0,20,21
 578 73 578 73 534 139 c 1,22,-1
 541 146 l 1,23,24
 641 118 641 118 727 118 c 0,25,26
 944 118 944 118 1053 229 c 0,27,28
 1156 334 1156 334 1156 493 c 0,29,30
 1156 604 1156 604 1085 676 c 0,31,32
 1013 749 1013 749 892 749 c 0,33,34
 868 749 868 749 837 746 c 1,35,36
 837 1067 837 1067 1027 1248 c 1,37,38
 1016 1273 1016 1273 996 1294 c 0,39,40
 948 1346 948 1346 865 1346 c 0,41,42
 736 1346 736 1346 633 1231 c 0,43,44
 490 1072 490 1072 490 867 c 2,45,-1
 490 0 l 1,46,-1
 170 0 l 1,0,-1
EndSplineSet
Validated: 1
EndChar

StartChar: uni203D
Encoding: 8253 8253 223
Width: 1408
Flags: W
HStem: -20 370<540.14 777.86> 1360 170<534.785 822.255>
VStem: 477 364<42.5779 287.422> 943 345<890.606 1234.26>
LayerCount: 2
Fore
SplineSet
742 1530 m 0,0,1
 1003 1530 1003 1530 1157 1382 c 0,2,3
 1288 1256 1288 1256 1288 1065 c 0,4,5
 1288 852 1288 852 1063 663 c 2,6,-1
 809 450 l 1,7,-1
 595 450 l 1,8,-1
 528 1160 l 1,9,-1
 790 1160 l 1,10,-1
 745 684 l 1,11,-1
 821 774 l 2,12,13
 943 918 943 918 943 1066 c 0,14,15
 943 1192 943 1192 869 1275 c 0,16,17
 793 1360 793 1360 683 1360 c 0,18,19
 568 1360 568 1360 469 1266 c 0,20,21
 387 1187 387 1187 343 1031 c 1,22,-1
 120 1148 l 1,23,24
 158 1216 158 1216 207 1278 c 0,25,26
 408 1530 408 1530 742 1530 c 0,0,1
659 -20 m 128,-1,28
 583 -20 583 -20 530 34 c 128,-1,29
 477 88 477 88 477 165 c 128,-1,30
 477 242 477 242 530 296 c 128,-1,31
 583 350 583 350 659 350 c 128,-1,32
 735 350 735 350 788 296 c 128,-1,33
 841 242 841 242 841 165 c 128,-1,34
 841 88 841 88 788 34 c 128,-1,27
 735 -20 735 -20 659 -20 c 128,-1,28
EndSplineSet
Validated: 1
EndChar

StartChar: afii61352
Encoding: 8470 8470 224
Width: 2372
Flags: W
HStem: 0 170<1582 2252> 238 86<1817.83 1989.2> 731 86<1850.12 2017.39> 1346 184<747.384 1052.22> 1490 20G<170 490>
VStem: 170 320<0 1100.61 1266 1510> 1141 320<0 1251.3> 1582 200<367.02 652.045> 2051 201<402.185 693.497>
LayerCount: 2
Fore
SplineSet
1582 170 m 1,0,-1
 2252 170 l 1,1,-1
 2252 0 l 1,2,-1
 1582 0 l 1,3,-1
 1582 170 l 1,0,-1
1938 731 m 0,4,5
 1886 731 1886 731 1842 680 c 0,6,7
 1782 610 1782 610 1782 497 c 0,8,9
 1782 418 1782 418 1811 375 c 0,10,11
 1844 324 1844 324 1902 324 c 0,12,13
 1953 324 1953 324 1998 376 c 0,14,15
 2051 439 2051 439 2051 563 c 0,16,17
 2051 636 2051 636 2020 686 c 0,18,19
 1992 731 1992 731 1938 731 c 0,4,5
1948 817 m 0,20,21
 2093 817 2093 817 2175 741 c 0,22,23
 2252 670 2252 670 2252 552 c 0,24,25
 2252 428 2252 428 2150 335 c 0,26,27
 2043 238 2043 238 1888 238 c 0,28,29
 1740 238 1740 238 1660 317 c 0,30,31
 1582 394 1582 394 1582 506 c 0,32,33
 1582 625 1582 625 1684 720 c 0,34,35
 1790 817 1790 817 1948 817 c 0,20,21
170 0 m 1,36,-1
 170 1510 l 1,37,-1
 490 1510 l 1,38,-1
 490 1266 l 1,39,40
 664 1530 664 1530 984 1530 c 0,41,42
 1235 1530 1235 1530 1353 1397 c 0,43,44
 1461 1279 1461 1279 1461 1089 c 2,45,-1
 1461 0 l 1,46,-1
 1141 0 l 1,47,-1
 1141 1083 l 2,48,49
 1141 1208 1141 1208 1080 1276 c 0,50,51
 1017 1346 1017 1346 907 1346 c 0,52,53
 714 1346 714 1346 592 1196 c 0,54,55
 490 1071 490 1071 490 866 c 2,56,-1
 490 0 l 1,57,-1
 170 0 l 1,36,-1
EndSplineSet
Validated: 1
EndChar

StartChar: uni2117
Encoding: 8471 8471 225
Width: 1341
Flags: W
HStem: 386 55<505.479 827.893> 737 67<620.551 766.636> 1225 102<624.339 820.584> 1475 55<512.972 828.032>
VStem: 120 60<779.952 1138.53> 356 200<559 1149.91 1220 1319> 863 210<903.017 1181.45> 1160 61<771.255 1146.12>
LayerCount: 2
Fore
SplineSet
669 1475 m 0,0,1
 473 1475 473 1475 327 1330 c 0,2,3
 180 1184 180 1184 180 953 c 0,4,5
 180 751 180 751 324 591 c 0,6,7
 339 574 339 574 356 559 c 1,8,-1
 356 1319 l 1,9,-1
 556 1319 l 1,10,-1
 556 1220 l 1,11,12
 637 1327 637 1327 780 1327 c 0,13,14
 913 1327 913 1327 993 1254.5 c 128,-1,15
 1073 1182 1073 1182 1073 1070 c 0,16,17
 1073 868 1073 868 877 770 c 0,18,19
 813 737 813 737 731 737 c 0,20,21
 645 737 645 737 576 806 c 1,22,-1
 582 816 l 1,23,24
 627 804 627 804 660 804 c 0,25,26
 740 804 740 804 794 860 c 0,27,28
 863 932 863 932 863 1030 c 0,29,30
 863 1130 863 1130 822 1181 c 0,31,32
 787 1225 787 1225 728 1225 c 0,33,34
 655 1225 655 1225 610 1164 c 0,35,36
 556 1090 556 1090 556 991 c 2,37,-1
 556 552 l 1,38,-1
 363 552 l 1,39,40
 488 441 488 441 671 441 c 0,41,42
 868 441 868 441 1017 591 c 0,43,44
 1160 736 1160 736 1160 953 c 0,45,46
 1160 1188 1160 1188 1019 1327 c 0,47,48
 869 1475 869 1475 669 1475 c 0,0,1
671 1530 m 0,49,50
 913 1530 913 1530 1069 1357 c 0,51,52
 1221 1188 1221 1188 1221 953 c 0,53,54
 1221 701 1221 701 1060 549 c 0,55,56
 889 386 889 386 669 386 c 0,57,58
 446 386 446 386 281 549 c 0,59,60
 120 708 120 708 120 953 c 0,61,62
 120 1197 120 1197 278 1362 c 0,63,64
 439 1530 439 1530 671 1530 c 0,49,50
EndSplineSet
Validated: 1
EndChar

StartChar: integral
Encoding: 8747 8747 226
Width: 949
Flags: W
HStem: -430 170<10 189.189> 1590 170<759.811 939>
VStem: 317 315<-141.071 1471.07>
LayerCount: 2
Fore
SplineSet
10 -430 m 1,0,1
 10 -260 l 1,2,3
 317 -260 317 -260 317 26 c 2,4,-1
 317 1305 l 2,5,6
 317 1760 317 1760 939 1760 c 1,7,-1
 939 1590 l 1,8,9
 632 1590 632 1590 632 1304 c 2,10,-1
 632 25 l 2,11,12
 632 -430 632 -430 10 -430 c 1,0,1
EndSplineSet
Validated: 1
EndChar

StartChar: dotaccent
Encoding: 729 729 227
Width: 404
Flags: W
HStem: 1160 370<83.1396 320.86>
VStem: 20 364<1222.58 1467.42>
LayerCount: 2
Fore
SplineSet
202 1530 m 128,-1,1
 278 1530 278 1530 331 1476 c 128,-1,2
 384 1422 384 1422 384 1345 c 128,-1,3
 384 1268 384 1268 331 1214 c 128,-1,4
 278 1160 278 1160 202 1160 c 128,-1,5
 126 1160 126 1160 73 1214 c 128,-1,6
 20 1268 20 1268 20 1345 c 128,-1,7
 20 1422 20 1422 73 1476 c 128,-1,0
 126 1530 126 1530 202 1530 c 128,-1,1
EndSplineSet
Validated: 1
EndChar

StartChar: ogonek
Encoding: 731 731 228
Width: 403
Flags: W
HStem: -430 193<241.558 383> -20 20G<100.5 357>
VStem: 20 195<-331 -91.4163>
LayerCount: 2
Fore
SplineSet
181 0 m 1,0,-1
 357 0 l 1,1,2
 215 -37 215 -37 215 -137 c 128,-1,3
 215 -237 215 -237 383 -237 c 1,4,-1
 383 -430 l 1,5,6
 20 -430 20 -430 20 -232 c 0,7,8
 20 -75 20 -75 181 0 c 1,0,-1
EndSplineSet
Validated: 1
EndChar

StartChar: hungarumlaut
Encoding: 733 733 229
Width: 648
Flags: W
HStem: 1160 380
VStem: 20 608
LayerCount: 2
Fore
SplineSet
462 1540 m 1,0,-1
 628 1423 l 1,1,-1
 419 1160 l 1,2,-1
 294 1248 l 1,3,-1
 462 1540 l 1,0,-1
188 1540 m 1,4,-1
 354 1423 l 1,5,-1
 145 1160 l 1,6,-1
 20 1248 l 1,7,-1
 188 1540 l 1,4,-1
EndSplineSet
Validated: 1
EndChar

StartChar: Acircumflex
Encoding: 194 194 230
Width: 1683
Flags: W
HStem: 0 21G<5 201.896 1327.13 1678> 670 170<567 964> 1490 20G<672.046 1009.97>
DStem2: 5 0 193 0 0.408605 0.912711<76.8177 810.099 996.313 1486.52> 1001 1510 766 1288 0.409108 -0.912486<106.432 596.229 782.034 1514.91>
LayerCount: 2
Fore
SplineSet
841 1970 m 1,0,-1
 1142 1644 l 1,1,-1
 993 1550 l 1,2,-1
 840 1755 l 1,3,-1
 688 1550 l 1,4,-1
 540 1644 l 1,5,-1
 841 1970 l 1,0,-1
5 0 m 1,6,-1
 681 1510 l 1,7,-1
 1001 1510 l 1,8,-1
 1678 0 l 1,9,-1
 1336 0 l 1,10,-1
 1039 670 l 1,11,-1
 491 670 l 1,12,-1
 193 0 l 1,13,-1
 5 0 l 1,6,-1
964 840 m 1,14,-1
 766 1288 l 1,15,-1
 567 840 l 1,16,-1
 964 840 l 1,14,-1
EndSplineSet
Validated: 19457
EndChar

StartChar: Aringacute
Encoding: 506 506 231
Width: 1683
Flags: W
HStem: 0 21G<5 201.896 1327.13 1678> 670 170<567 964> 1490 20G<672.046 1009.97> 1570 92<635.054 776.946> 1848 92<635.054 776.946>
VStem: 524 91<1682.75 1827.25> 797 91<1682.75 1827.25>
DStem2: 5 0 193 0 0.408605 0.912711<76.8177 810.099 996.313 1486.52> 1001 1510 766 1288 0.409108 -0.912486<106.432 596.229 782.034 1514.91>
LayerCount: 2
Fore
SplineSet
706 1848 m 128,-1,1
 668 1848 668 1848 641.5 1821 c 128,-1,2
 615 1794 615 1794 615 1755 c 128,-1,3
 615 1716 615 1716 641.5 1689 c 128,-1,4
 668 1662 668 1662 706 1662 c 128,-1,5
 744 1662 744 1662 770.5 1689 c 128,-1,6
 797 1716 797 1716 797 1755 c 128,-1,7
 797 1794 797 1794 770.5 1821 c 128,-1,0
 744 1848 744 1848 706 1848 c 128,-1,1
706 1940 m 128,-1,9
 782 1940 782 1940 835 1886 c 128,-1,10
 888 1832 888 1832 888 1755 c 128,-1,11
 888 1678 888 1678 835 1624 c 128,-1,12
 782 1570 782 1570 706 1570 c 128,-1,13
 630 1570 630 1570 577 1624 c 128,-1,14
 524 1678 524 1678 524 1755 c 128,-1,15
 524 1832 524 1832 577 1886 c 128,-1,8
 630 1940 630 1940 706 1940 c 128,-1,9
1073 1970 m 1,16,-1
 1266 1835 l 1,17,-1
 1015 1550 l 1,18,-1
 889 1641 l 1,19,-1
 1073 1970 l 1,16,-1
5 0 m 1,20,-1
 681 1510 l 1,21,-1
 1001 1510 l 1,22,-1
 1678 0 l 1,23,-1
 1336 0 l 1,24,-1
 1039 670 l 1,25,-1
 491 670 l 1,26,-1
 193 0 l 1,27,-1
 5 0 l 1,20,-1
964 840 m 1,28,-1
 766 1288 l 1,29,-1
 567 840 l 1,30,-1
 964 840 l 1,28,-1
EndSplineSet
Validated: 19457
EndChar

StartChar: aringacute
Encoding: 507 507 232
Width: 1385
Flags: W
HStem: -20 137<540.605 780.433> 0 21G<915 1215> 970 150<600.575 856.084> 1160 92<474.054 615.946> 1438 92<474.054 615.946>
VStem: 70 322<282.062 705.836> 363 91<1272.75 1417.25> 636 91<1272.75 1417.25> 915 300<0 906.597>
LayerCount: 2
Fore
SplineSet
545 1438 m 128,-1,1
 507 1438 507 1438 480.5 1411 c 128,-1,2
 454 1384 454 1384 454 1345 c 128,-1,3
 454 1306 454 1306 480.5 1279 c 128,-1,4
 507 1252 507 1252 545 1252 c 128,-1,5
 583 1252 583 1252 609.5 1279 c 128,-1,6
 636 1306 636 1306 636 1345 c 128,-1,7
 636 1384 636 1384 609.5 1411 c 128,-1,0
 583 1438 583 1438 545 1438 c 128,-1,1
545 1530 m 128,-1,9
 621 1530 621 1530 674 1476 c 128,-1,10
 727 1422 727 1422 727 1345 c 128,-1,11
 727 1268 727 1268 674 1214 c 128,-1,12
 621 1160 621 1160 545 1160 c 128,-1,13
 469 1160 469 1160 416 1214 c 128,-1,14
 363 1268 363 1268 363 1345 c 128,-1,15
 363 1422 363 1422 416 1476 c 128,-1,8
 469 1530 469 1530 545 1530 c 128,-1,9
905 1560 m 1,16,-1
 1098 1425 l 1,17,-1
 847 1140 l 1,18,-1
 721 1231 l 1,19,-1
 905 1560 l 1,16,-1
1215 0 m 1,20,-1
 915 0 l 1,21,-1
 915 700 l 2,22,23
 915 838 915 838 873 904 c 128,-1,24
 831 970 831 970 749 970 c 0,25,26
 617 970 617 970 516 852 c 0,27,28
 392 705 392 705 392 514 c 0,29,30
 392 322 392 322 474 222 c 0,31,32
 561 117 561 117 688 117 c 0,33,34
 790 117 790 117 875 146 c 1,35,-1
 882 139 l 1,36,37
 856 87 856 87 811 47 c 0,38,39
 736 -20 736 -20 607 -20 c 0,40,41
 361 -20 361 -20 201 142 c 0,42,43
 70 275 70 275 70 480 c 0,44,45
 70 738 70 738 272.5 929 c 128,-1,46
 475 1120 475 1120 767 1120 c 0,47,48
 982 1120 982 1120 1098 1010 c 0,49,50
 1215 900 1215 900 1215 705 c 2,51,-1
 1215 0 l 1,20,-1
EndSplineSet
Validated: 1
EndChar

StartChar: AEacute
Encoding: 508 508 233
Width: 2362
Flags: W
HStem: 0 21G<5 201.896 1491.5 1733> 670 170<567 964 1378 1925> 1360 170<1481.05 1868.92> 1490 20G<672.046 1009.96>
DStem2: 5 0 193 0 0.408605 0.912711<76.8177 810.099 996.313 1486.52> 1001 1510 766 1288 0.40894 -0.912561<106.488 220.229 484.678 596.285 920.722 1503.94>
LayerCount: 2
Fore
SplineSet
1294 1970 m 1,0,-1
 1487 1835 l 1,1,-1
 1236 1550 l 1,2,-1
 1110 1641 l 1,3,-1
 1294 1970 l 1,0,-1
5 0 m 1,4,-1
 681 1510 l 1,5,-1
 1001 1510 l 1,6,-1
 1091 1309 l 1,7,8
 1348 1530 1348 1530 1713 1530 c 0,9,10
 2086 1530 2086 1530 2312 1298 c 1,11,-1
 2042 1163 l 1,12,13
 1898 1360 1898 1360 1682 1360 c 0,14,15
 1471 1360 1471 1360 1328 1203 c 0,16,17
 1258 1126 1258 1126 1213 1037 c 1,18,-1
 1301 840 l 1,19,-1
 1925 840 l 1,20,-1
 1925 670 l 1,21,-1
 1378 670 l 1,22,-1
 1610 151 l 1,23,24
 1801 162 1801 162 1933 307 c 0,25,26
 2018 400 2018 400 2066 511 c 1,27,-1
 2307 347 l 1,28,29
 2253 275 2253 275 2181 211 c 0,30,31
 1918 -20 1918 -20 1548 -20 c 0,32,33
 1435 -20 1435 -20 1336 0 c 1,34,-1
 1039 670 l 1,35,-1
 491 670 l 1,36,-1
 193 0 l 1,37,-1
 5 0 l 1,4,-1
964 840 m 1,38,-1
 766 1288 l 1,39,-1
 567 840 l 1,40,-1
 964 840 l 1,38,-1
EndSplineSet
Validated: 19457
EndChar

StartChar: aeacute
Encoding: 509 509 234
Width: 1948
Flags: W
HStem: -20 137<540.605 780.433 1216.77 1461.65> 475 150<1215 1602> 970 150<600.575 855.728 1282.91 1570.29>
VStem: 70 322<282.062 705.836> 915 300<139.693 475 625 848.934>
LayerCount: 2
Fore
SplineSet
1119 1560 m 1,0,-1
 1312 1425 l 1,1,-1
 1061 1140 l 1,2,-1
 935 1231 l 1,3,-1
 1119 1560 l 1,0,-1
915 0 m 1,4,-1
 915 700 l 2,5,6
 915 838 915 838 873 904 c 128,-1,7
 831 970 831 970 749 970 c 0,8,9
 617 970 617 970 516 852 c 0,10,11
 392 705 392 705 392 514 c 0,12,13
 392 322 392 322 474 222 c 0,14,15
 561 117 561 117 688 117 c 0,16,17
 790 117 790 117 875 146 c 1,18,-1
 882 139 l 1,19,20
 856 87 856 87 811 47 c 0,21,22
 736 -20 736 -20 607 -20 c 0,23,24
 361 -20 361 -20 201 142 c 0,25,26
 70 275 70 275 70 480 c 0,27,28
 70 738 70 738 272.5 929 c 128,-1,29
 475 1120 475 1120 767 1120 c 0,30,31
 966 1120 966 1120 1080 1026 c 1,32,33
 1242 1120 1242 1120 1457 1120 c 0,34,35
 1720 1120 1720 1120 1898 942 c 1,36,-1
 1652 820 l 1,37,38
 1580 970 1580 970 1439 970 c 0,39,40
 1297 970 1297 970 1195 851 c 1,41,42
 1215 785 1215 785 1215 705 c 2,43,-1
 1215 625 l 1,44,-1
 1602 625 l 1,45,-1
 1602 475 l 1,46,-1
 1215 475 l 1,47,-1
 1215 159 l 1,48,49
 1264 130 1264 130 1325 130 c 0,50,51
 1468 130 1468 130 1568 248 c 0,52,53
 1632 324 1632 324 1663 422 c 1,54,-1
 1898 267 l 1,55,56
 1860 216 1860 216 1810 168 c 0,57,58
 1614 -20 1614 -20 1307 -20 c 0,59,60
 1214 -20 1214 -20 1133 0 c 1,61,-1
 915 0 l 1,4,-1
EndSplineSet
Validated: 1
EndChar

StartChar: Oslashacute
Encoding: 510 510 235
Width: 1819
Flags: W
HStem: -20 170<671.05 1060.89> 1360 170<757.694 1147.28>
VStem: 70 340<433.677 936.643> 1409 340<572.643 1076.98>
DStem2: 407 35 536 -40 0.500135 0.865948<0 34.4807 284.042 1467.29 1715.99 1749.1>
LayerCount: 2
Fore
SplineSet
1001 1970 m 1,0,-1
 1194 1835 l 1,1,-1
 943 1550 l 1,2,-1
 817 1641 l 1,3,-1
 1001 1970 l 1,0,-1
827 -20 m 0,4,5
 685 -20 685 -20 566 11 c 1,6,-1
 536 -40 l 1,7,-1
 407 35 l 1,8,-1
 424 65 l 1,9,10
 324 115 324 115 245 194 c 0,11,12
 70 373 70 373 70 651 c 0,13,14
 70 1041 70 1041 359 1299 c 0,15,16
 619 1530 619 1530 992 1530 c 0,17,18
 1134 1530 1134 1530 1252 1499 c 1,19,-1
 1282 1550 l 1,20,-1
 1411 1475 l 1,21,-1
 1395 1446 l 1,22,23
 1496 1396 1496 1396 1574 1316 c 0,24,25
 1749 1137 1749 1137 1749 859 c 0,26,27
 1749 466 1749 466 1460 211 c 0,28,29
 1197 -20 1197 -20 827 -20 c 0,4,5
858 150 m 0,30,31
 1070 150 1070 150 1212 307 c 0,32,33
 1409 523 1409 523 1409 836 c 0,34,35
 1409 1055 1409 1055 1290 1207 c 0,36,37
 1280 1219 1280 1219 1270 1231 c 1,38,-1
 669 190 l 1,39,40
 752 150 752 150 858 150 c 0,30,31
549 281 m 1,41,-1
 1149 1321 l 1,42,43
 1066 1360 1066 1360 961 1360 c 0,44,45
 750 1360 750 1360 607 1203 c 0,46,47
 410 987 410 987 410 674 c 0,48,49
 410 457 410 457 530 304 c 0,50,51
 539 292 539 292 549 281 c 1,41,-1
EndSplineSet
Validated: 1
EndChar

StartChar: oslashacute
Encoding: 511 511 236
Width: 1404
Flags: W
HStem: -20 150<557.594 800.78> 970 150<603.22 846.422>
VStem: 70 322<270.879 707.746> 1012 322<392.254 829.193>
DStem2: 302 7 432 -68 0.49983 0.866123<0.0186504 48.8154 286.274 1054.2 1291.66 1340.46>
LayerCount: 2
Fore
SplineSet
781 1560 m 1,0,-1
 974 1425 l 1,1,-1
 723 1140 l 1,2,-1
 597 1231 l 1,3,-1
 781 1560 l 1,0,-1
627 -20 m 0,4,5
 543 -20 543 -20 469 -4 c 1,6,-1
 432 -68 l 1,7,-1
 302 7 l 1,8,-1
 326 49 l 1,9,10
 257 86 257 86 201 142 c 0,11,12
 70 275 70 275 70 480 c 0,13,14
 70 738 70 738 274 932 c 0,15,16
 473 1120 473 1120 777 1120 c 0,17,18
 861 1120 861 1120 935 1104 c 1,19,-1
 972 1168 l 1,20,-1
 1102 1093 l 1,21,-1
 1078 1051 l 1,22,23
 1147 1014 1147 1014 1203 958 c 0,24,25
 1334 825 1334 825 1334 620 c 0,26,27
 1334 362 1334 362 1130 168 c 0,28,29
 931 -20 931 -20 627 -20 c 0,4,5
645 130 m 0,30,31
 788 130 788 130 888 248 c 0,32,33
 1012 395 1012 395 1012 624 c 0,34,35
 1012 754 1012 754 959 845 c 1,36,-1
 556 148 l 1,37,38
 597 130 597 130 645 130 c 0,30,31
445 255 m 1,39,-1
 848 952 l 1,40,41
 808 970 808 970 759 970 c 0,42,43
 616 970 616 970 516 852 c 0,44,45
 392 705 392 705 392 476 c 0,46,47
 392 347 392 347 445 255 c 1,39,-1
EndSplineSet
Validated: 1
EndChar

StartChar: Scommaaccent
Encoding: 536 536 237
Width: 1352
Flags: W
HStem: -430 21G<563.405 608.903> -20 170<484.601 829.605> 1358 172<629.202 900.453>
VStem: 259 308<1103.99 1297.82> 958 324<306.544 561.011>
DStem2: 706 1042 528 766 0.904679 -0.426094<-163.301 434.095>
LayerCount: 2
Fore
SplineSet
655 -20 m 0,0,1
 302 -20 302 -20 70 232 c 1,2,-1
 318 363 l 1,3,4
 440 150 440 150 668 150 c 0,5,6
 819 150 819 150 900 264 c 0,7,8
 958 346 958 346 958 449 c 0,9,10
 958 564 958 564 815 631 c 2,11,-1
 528 766 l 2,12,13
 259 893 259 893 259 1134 c 0,14,15
 259 1302 259 1302 405 1416 c 128,-1,16
 551 1530 551 1530 750 1530 c 0,17,18
 1018 1530 1018 1530 1179 1365 c 1,19,-1
 974 1220 l 1,20,21
 907 1358 907 1358 766 1358 c 0,22,23
 677 1358 677 1358 626 1313 c 0,24,25
 567 1262 567 1262 567 1197 c 0,26,27
 567 1107 567 1107 706 1042 c 2,28,-1
 999 904 l 2,29,30
 1282 771 1282 771 1282 505 c 0,31,32
 1282 322 1282 322 1151 179 c 0,33,34
 969 -20 969 -20 655 -20 c 0,0,1
654 -40 m 1,35,-1
 830 -163 l 1,36,-1
 591 -430 l 1,37,-1
 482 -351 l 1,38,-1
 654 -40 l 1,35,-1
EndSplineSet
Validated: 1
EndChar

StartChar: scommaaccent
Encoding: 537 537 238
Width: 1086
Flags: W
HStem: -430 21G<435.405 480.903> -20 152<371.129 658.24> 968 152<513.177 723.571>
VStem: 207 273<715.5 939.747> 729 287<200.705 399.517>
DStem2: 810 673 398 538 0.910496 -0.413517<-379.683 60.2033>
LayerCount: 2
Fore
SplineSet
527 -20 m 0,0,1
 247 -20 247 -20 70 180 c 1,2,-1
 286 293 l 1,3,4
 351 132 351 132 516 132 c 0,5,6
 620 132 620 132 682 196 c 0,7,8
 729 244 729 244 729 311 c 0,9,10
 729 388 729 388 638 429 c 2,11,-1
 398 538 l 2,12,13
 207 625 207 625 207 806 c 0,14,15
 207 941 207 941 325 1032 c 0,16,17
 440 1120 440 1120 623 1120 c 0,18,19
 833 1120 833 1120 940 987 c 1,20,-1
 768 866 l 1,21,22
 713 968 713 968 619 968 c 0,23,24
 556 968 556 968 520 940 c 0,25,26
 480 908 480 908 480 866 c 0,27,28
 480 822 480 822 576 779 c 2,29,-1
 810 673 l 2,30,31
 1016 580 1016 580 1016 372 c 0,32,33
 1016 190 1016 190 860 76 c 0,34,35
 728 -20 728 -20 527 -20 c 0,0,1
526 -40 m 1,36,-1
 702 -163 l 1,37,-1
 463 -430 l 1,38,-1
 354 -351 l 1,39,-1
 526 -40 l 1,36,-1
EndSplineSet
Validated: 1
EndChar

StartChar: uni021A
Encoding: 538 538 239
Width: 1260
Flags: W
HStem: -430 21G<533.405 578.903> 0 21G<470 790> 1340 170<10 470 790 1250>
VStem: 470 320<0 1340>
LayerCount: 2
Fore
SplineSet
624 -40 m 1,0,-1
 800 -163 l 1,1,-1
 561 -430 l 1,2,-1
 452 -351 l 1,3,-1
 624 -40 l 1,0,-1
470 0 m 1,4,-1
 470 1340 l 1,5,-1
 10 1340 l 1,6,-1
 10 1510 l 1,7,-1
 1250 1510 l 1,8,-1
 1250 1340 l 1,9,-1
 790 1340 l 1,10,-1
 790 0 l 1,11,-1
 470 0 l 1,4,-1
EndSplineSet
Validated: 1
EndChar

StartChar: uni021B
Encoding: 539 539 240
Width: 780
Flags: W
HStem: -430 21G<305.405 350.903> -20 150<509.722 630> 950 150<30 170 470 770> 1490 20G<170 470>
VStem: 170 300<167.963 950 1100 1510>
LayerCount: 2
Fore
SplineSet
396 -40 m 1,0,-1
 572 -163 l 1,1,-1
 333 -430 l 1,2,-1
 224 -351 l 1,3,-1
 396 -40 l 1,0,-1
630 -20 m 1,4,5
 170 -20 170 -20 170 276 c 2,6,-1
 170 950 l 1,7,-1
 30 950 l 1,8,-1
 30 1100 l 1,9,-1
 170 1100 l 1,10,-1
 170 1510 l 1,11,-1
 470 1510 l 1,12,-1
 470 1100 l 1,13,-1
 770 1100 l 1,14,-1
 770 950 l 1,15,-1
 470 950 l 1,16,-1
 470 280 l 2,17,18
 470 130 470 130 630 130 c 1,19,-1
 630 -20 l 1,4,5
EndSplineSet
Validated: 1
EndChar

StartChar: Agrave
Encoding: 192 192 241
Width: 1683
Flags: W
HStem: 0 21G<5 201.896 1327.13 1678> 670 170<567 964> 1490 20G<672.046 1009.97>
DStem2: 5 0 193 0 0.408605 0.912711<76.8177 810.099 996.313 1486.52> 1001 1510 766 1288 0.409108 -0.912486<106.432 596.229 782.034 1514.91>
LayerCount: 2
Fore
SplineSet
754 1970 m 1,0,-1
 938 1641 l 1,1,-1
 812 1550 l 1,2,-1
 561 1835 l 1,3,-1
 754 1970 l 1,0,-1
5 0 m 1,4,-1
 681 1510 l 1,5,-1
 1001 1510 l 1,6,-1
 1678 0 l 1,7,-1
 1336 0 l 1,8,-1
 1039 670 l 1,9,-1
 491 670 l 1,10,-1
 193 0 l 1,11,-1
 5 0 l 1,4,-1
964 840 m 1,12,-1
 766 1288 l 1,13,-1
 567 840 l 1,14,-1
 964 840 l 1,12,-1
EndSplineSet
Validated: 19457
EndChar

StartChar: Aacute
Encoding: 193 193 242
Width: 1683
Flags: W
HStem: 0 21G<5 201.896 1327.13 1678> 670 170<567 964> 1490 20G<672.046 1009.97>
DStem2: 5 0 193 0 0.408605 0.912711<76.8177 810.099 996.313 1486.52> 1001 1510 766 1288 0.409108 -0.912486<106.432 596.229 782.034 1514.91>
LayerCount: 2
Fore
SplineSet
913 1970 m 1,0,-1
 1106 1835 l 1,1,-1
 855 1550 l 1,2,-1
 729 1641 l 1,3,-1
 913 1970 l 1,0,-1
5 0 m 1,4,-1
 681 1510 l 1,5,-1
 1001 1510 l 1,6,-1
 1678 0 l 1,7,-1
 1336 0 l 1,8,-1
 1039 670 l 1,9,-1
 491 670 l 1,10,-1
 193 0 l 1,11,-1
 5 0 l 1,4,-1
964 840 m 1,12,-1
 766 1288 l 1,13,-1
 567 840 l 1,14,-1
 964 840 l 1,12,-1
EndSplineSet
Validated: 19457
EndChar

StartChar: Atilde
Encoding: 195 195 243
Width: 1683
Flags: W
HStem: 0 21G<5 201.896 1327.13 1678> 670 170<567 964> 1490 20G<672.046 1009.97> 1614 170<861.438 1132.9> 1708 170<547.098 818.562>
DStem2: 5 0 193 0 0.408605 0.912711<76.8177 810.099 996.313 1486.52> 1001 1510 766 1288 0.409108 -0.912486<106.432 596.229 782.034 1514.91>
LayerCount: 2
Fore
SplineSet
690 1878 m 0,0,1
 755 1878 755 1878 856 1831 c 128,-1,2
 957 1784 957 1784 1010 1784 c 0,3,4
 1119 1784 1119 1784 1160 1866 c 1,5,-1
 1160 1677 l 1,6,7
 1103 1614 1103 1614 990 1614 c 0,8,9
 925 1614 925 1614 824 1661 c 128,-1,10
 723 1708 723 1708 670 1708 c 0,11,12
 561 1708 561 1708 520 1626 c 1,13,-1
 520 1815 l 1,14,15
 577 1878 577 1878 690 1878 c 0,0,1
5 0 m 1,16,-1
 681 1510 l 1,17,-1
 1001 1510 l 1,18,-1
 1678 0 l 1,19,-1
 1336 0 l 1,20,-1
 1039 670 l 1,21,-1
 491 670 l 1,22,-1
 193 0 l 1,23,-1
 5 0 l 1,16,-1
964 840 m 1,24,-1
 766 1288 l 1,25,-1
 567 840 l 1,26,-1
 964 840 l 1,24,-1
EndSplineSet
Validated: 19457
EndChar

